SplineFontDB: 3.0
FontName: Umpush-LightOblique
FullName: Umpush Light Oblique
FamilyName: Umpush
Weight: Light
Copyright: Copyright (c) 2003 NECTEC. All rights reserved.\nCopyright (c) 2007 Widhaya Trisarnwadhana. All rights reserved.\nModified under GNU General Public License by TLWG.
Version: 0.9.11: 2009-07-22
ItalicAngle: -10
UnderlinePosition: -85
UnderlineWidth: 10
Ascent: 1638
Descent: 410
LayerCount: 2
Layer: 0 0 "Back"  1
Layer: 1 0 "Fore"  0
NeedsXUIDChange: 1
FSType: 0
OS2Version: 0
OS2_WeightWidthSlopeOnly: 0
OS2_UseTypoMetrics: 0
CreationTime: 1176605901
ModificationTime: 1248249764
PfmFamily: 33
TTFWeight: 300
TTFWidth: 5
LineGap: 0
VLineGap: 0
Panose: 2 11 3 4 2 2 2 2 2 4
OS2TypoAscent: 0
OS2TypoAOffset: 1
OS2TypoDescent: 0
OS2TypoDOffset: 1
OS2TypoLinegap: 0
OS2WinAscent: 0
OS2WinAOffset: 1
OS2WinDescent: 0
OS2WinDOffset: 1
HheadAscent: 0
HheadAOffset: 1
HheadDescent: 0
HheadDOffset: 1
OS2Vendor: 'PfEd'
Lookup: 4 0 1 "'liga' Standard Ligatures lookup 0"  {"'liga' Standard Ligatures lookup 0"  } ['liga' ('latn' <'dflt' > ) ]
Lookup: 6 0 0 "'ccmp' Thai General Composition"  {"'ccmp' Thai Below Vowel Tone Reordering"  "'ccmp' Thai General Composition"  } ['ccmp' ('DFLT' <'dflt' > 'thai' <'KUY ' 'PAL ' 'THA ' 'dflt' > ) ]
Lookup: 6 0 0 "'ccmp' Thai Conditional Descender Removal"  {"'ccmp' Thai Conditional Descender Removal"  } ['ccmp' ('DFLT' <'dflt' > 'thai' <'KUY ' 'PAL ' 'THA ' 'dflt' > ) ]
Lookup: 5 0 0 "Required Thai Descender Removal"  {"Required Thai Descender Removal"  } [' RQD' ('thai' <'PAL ' > ) ]
Lookup: 1 0 0 "Thai Descender Removal Single Substitution"  {"Thai Descender Removal Single Substitution" ("descless" ) } []
Lookup: 2 0 0 "Thai Sara Am Decomposition"  {"Thai Sara Am Decomposition"  } []
Lookup: 2 0 0 "Thai Tone Nikhahit Attachment"  {"Thai Tone Nikhahit Attachment"  } []
Lookup: 1 0 0 "Thai Sara Am Lakkhang"  {"Thai Sara Am Lakkhang"  } []
Lookup: 1 0 0 "Thai Tone Low Variant"  {"Thai Tone Low Variant" ("low" ) } []

StartChar: .notdef
Encoding: 65536 -1 0
Width: 1533
VWidth: 2045
Flags: W
HStem: 0 32<292.643 1252.64> 1248 32<507.056 1467.06>
VStem: 256 1022<0 1022> 481.698 1022<257.998 1280>
DStem2: 256 0 287.001 0 0.173648 0.984808<37.8768 1272.64> 1247 0 1278 0 0.173648 0.984808<32.4937 1267.25>
LayerCount: 2
Fore
SplineSet
256 0 m 1xe0
 481.698 1280 l 1
 1503.7 1280 l 1xd0
 1278 0 l 1
 256 0 l 1xe0
292.643 32 m 1
 1252.64 32 l 1
 1467.06 1248 l 1
 507.056 1248 l 1
 292.643 32 l 1
EndSplineSet
EndChar

StartChar: uni0E4D.high
Encoding: 63262 63262 2
Width: 0
VWidth: 2558
Flags: W
HStem: 2026 72<47.4149 179.128> 2254 74<61.3427 195.646>
VStem: -31 71<2105.61 2231.63> 202 71<2122.54 2246.11>
AnchorPoint: "AboveMark" 98 2040 mark 0
LayerCount: 2
Fore
SplineSet
-31 2147 m 0
 -31 2242 57 2328 148 2328 c 0
 220 2328 273 2277 273 2203 c 0
 273 2107 183 2026 95 2026 c 0
 24 2026 -31 2075 -31 2147 c 0
135 2254 m 0
 74 2254 40 2201 40 2161 c 0
 40 2127 66 2098 108 2098 c 0
 146 2098 202 2135 202 2190 c 0
 202 2230 173 2254 135 2254 c 0
EndSplineSet
EndChar

StartChar: exclam
Encoding: 33 33 5
Width: 681
VWidth: 2045
Flags: W
HStem: 0 193<240 369> 1430 20G<465.46 618>
VStem: 206 163<0 163> 240 163<30 193> 315 76<366 427.635> 469 149<1301 1450>
DStem2: 206 0 369 0 0.173648 0.984808<28.3047 195.972 734.919 1473.64>
LayerCount: 2
Fore
SplineSet
389 998 m 1xcc
 469 1450 l 1
 618 1450 l 1
 538 998 l 1
 391 366 l 1
 315 366 l 1
 389 998 l 1xcc
240 193 m 1xd4
 403 193 l 1xd4
 369 0 l 1
 206 0 l 1xe4
 240 193 l 1xd4
EndSplineSet
EndChar

StartChar: quotedbl
Encoding: 34 34 6
Width: 568
VWidth: 2045
Flags: W
HStem: 1430 20G<343.481 481 606.481 744>
VStem: 347 134<1316 1450> 610 134<1316 1450>
LayerCount: 2
Fore
SplineSet
284 946 m 1
 306 1217 l 1
 347 1450 l 1
 481 1450 l 1
 440 1217 l 1
 370 946 l 1
 284 946 l 1
547 946 m 1
 569 1217 l 1
 610 1450 l 1
 744 1450 l 1
 703 1217 l 1
 632 946 l 1
 547 946 l 1
EndSplineSet
EndChar

StartChar: numbersign
Encoding: 35 35 7
Width: 1137
VWidth: 2045
Flags: W
HStem: -9 21G<85 218.614 597 729.563> 385 127<111 234 413 745 916 1181> 949 127<211 452 632 964 1135 1280> 1450 20G<646.487 780 1157.44 1293>
VStem: 85 126<-9 117> 597 125<-9 116> 654 126<1344 1470> 1165 128<1342 1470>
DStem2: 85 -9 211 -9 0.359064 0.933313<45.242 421.226 604.029 1025.89 1209.05 1584.68> 597 -9 722 -9 0.360162 0.93289<45.0203 420.863 600.927 1025.89 1205.95 1584.32>
LayerCount: 2
Fore
SplineSet
85 -9 m 1xfd
 234 385 l 1
 89 385 l 1
 111 512 l 1
 285 512 l 1
 452 949 l 1
 188 949 l 1
 211 1076 l 1
 506 1076 l 1
 654 1470 l 1
 780 1470 l 1xfb
 632 1076 l 1
 1016 1076 l 1
 1165 1470 l 1
 1293 1470 l 1
 1135 1076 l 1
 1303 1076 l 1
 1280 949 l 1
 1083 949 l 1
 916 512 l 1
 1203 512 l 1
 1181 385 l 1
 871 385 l 1
 722 -9 l 1
 597 -9 l 1
 745 385 l 1
 361 385 l 1
 211 -9 l 1
 85 -9 l 1xfd
413 512 m 1
 797 512 l 1
 964 949 l 1
 579 949 l 1
 413 512 l 1
EndSplineSet
EndChar

StartChar: dollar
Encoding: 36 36 8
Width: 1137
VWidth: 2045
Flags: W
HStem: -18 103<392.231 509 617 775.917> 659 108<737 851.191> 681 106<527.03 632> 1308 100<593.517 743 850 979.371>
VStem: 141 129<208.046 417> 284 129<883.205 1145.11> 491 90<-118 -28> 983 132<278.279 547.361> 1073 122<1050 1214.31>
DStem2: 491 -118 581 -118 0.173648 0.984808<15.6283 101.606 221.796 804.614 919.035 1448.1 1565.16 1630.74>
LayerCount: 2
Fore
SplineSet
617 85 m 1xdf
 954 131 983 371 983 431 c 0
 983 611 751 652 718 659 c 1
 617 85 l 1xdf
284 972 m 0
 284 1155 455 1408 760 1408 c 1
 774 1488 l 1
 864 1488 l 1
 850 1408 l 1
 1118 1404 1195 1227 1195 1100 c 0
 1195 1082 1194 1065 1191 1050 c 1
 1071 1050 l 1
 1072 1059 1073 1068 1073 1077 c 0
 1073 1182 1004 1308 833 1308 c 1
 737 767 l 1xde80
 802 760 1115 702 1115 454 c 0
 1115 276 952 -14 599 -15 c 1
 581 -118 l 1
 491 -118 l 1
 509 -18 l 1
 286 2 141 115 141 324 c 0
 141 353 144 384 150 417 c 1
 275 417 l 1
 272 399 270 382 270 364 c 0
 270 221 371 86 527 85 c 1
 632 681 l 17xbf
 432 714 284 801 284 972 c 0
743 1308 m 1
 594 1297 413 1186 413 1000 c 0
 413 913 459 834 651 787 c 1xbe
 743 1308 l 1
EndSplineSet
EndChar

StartChar: percent
Encoding: 37 37 9
Width: 1818
VWidth: 2045
Flags: W
HStem: -48 85<1284.77 1492.12> -9 21G<486 625.649> 640 82<1378.84 1586.74> 719 85<475.344 681.505> 1408 82<564.58 776.637>
VStem: 306 102<873.504 1221.64> 486 126<-9 117> 842 104<993.332 1344.62> 1116 103<102.955 452.464> 1510 125<1365 1490> 1654 105<224.327 574.819>
DStem2: 486 -9 612 -9 0.564072 0.825726<71.073 1815.37>
LayerCount: 2
Fore
SplineSet
1759 420 m 0xafe0
 1759 187 1578 -48 1370 -48 c 256
 1220 -48 1116 82 1116 257 c 0
 1116 493 1305 722 1505 722 c 256
 1657 722 1759 592 1759 420 c 0xafe0
1384 37 m 258
 1526 37 1654 227 1654 415 c 0
 1654 547 1589 640 1490 640 c 256
 1345 640 1219 448 1219 261 c 0
 1219 130 1286 37 1383 37 c 2
 1384 37 l 258
946 1188 m 0
 946 950 764 719 558 719 c 256x1fe0
 418 719 306 836 306 1019 c 0
 306 1267 491 1488 694 1490 c 256
 854 1490 946 1354 946 1188 c 0
572 804 m 256
 709 804 842 988 842 1183 c 0
 842 1315 777 1408 678 1408 c 256
 536 1408 408 1220 408 1031 c 0
 408 900 474 804 572 804 c 256
1510 1490 m 1
 1635 1490 l 1
 612 -9 l 1
 486 -9 l 1x4fe0
 1510 1490 l 1
EndSplineSet
EndChar

StartChar: ampersand
Encoding: 38 38 10
Width: 1364
VWidth: 2045
Flags: W
HStem: -24 119<407.104 758.486> 1381 110<722.599 1000.97>
VStem: 150 148<206.098 507.998> 471 136<1013.2 1269.63> 1057 132<1099.05 1326.31>
DStem2: 781 798 656 739 0.518808 -0.854891<0 499.256>
LayerCount: 2
Fore
SplineSet
150 332 m 0
 150 457 244 719 584 841 c 1
 492 971 471 1052 471 1111 c 0
 471 1287 645 1491 900 1491 c 0
 1081 1491 1189 1374 1189 1230 c 0
 1189 1144 1159 981 781 798 c 1
 1043 373 l 1
 1115 471 1170 576 1205 689 c 1
 1334 649 l 1
 1287 520 1213 394 1114 269 c 1
 1162 196 1232 125 1327 56 c 1
 1207 -27 l 1
 1121 25 1056 89 1008 165 c 1
 878 39 725 -24 548 -24 c 0
 236 -24 150 198 150 332 c 0
725 897 m 1
 897 966 1057 1090 1057 1218 c 0
 1057 1299 994 1381 871 1381 c 0
 693 1381 607 1239 607 1143 c 0
 607 1076 643 1021 725 897 c 1
656 739 m 1
 428 664 298 514 298 364 c 0
 298 250 358 95 572 95 c 0
 706 95 861 178 936 266 c 1
 656 739 l 1
EndSplineSet
EndChar

StartChar: quotesingle
Encoding: 39 39 11
Width: 454
VWidth: 2045
Flags: W
HStem: 1445 20G<390.49 554>
VStem: 394 160<1305 1465>
LayerCount: 2
Fore
SplineSet
333 946 m 1
 351 1220 l 1
 394 1465 l 1
 554 1465 l 1
 511 1220 l 1
 429 946 l 1
 333 946 l 1
EndSplineSet
EndChar

StartChar: parenleft
Encoding: 40 40 12
Width: 681
VWidth: 2045
Flags: W
HStem: -430 21G<322.5 479>
VStem: 198 125<-53 614.883>
LayerCount: 2
Fore
SplineSet
198 287 m 0
 198 768 446 1203 742 1489 c 1
 818 1489 l 1
 561 1209 323 746 323 250 c 0
 323 73 355 -163 479 -430 c 1
 403 -430 l 1
 242 -169 198 84 198 287 c 0
EndSplineSet
EndChar

StartChar: parenright
Encoding: 41 41 13
Width: 681
VWidth: 2045
Flags: W
VStem: 573 126<454.368 1115.57>
LayerCount: 2
Fore
SplineSet
573 826 m 0
 573 471 448 25 76 -430 c 1
 151 -430 l 1
 540 -30 699 419 699 783 c 0
 699 1095 589 1343 490 1489 c 1
 415 1489 l 1
 490 1351 573 1113 573 826 c 0
EndSplineSet
EndChar

StartChar: asterisk
Encoding: 42 42 14
Width: 795
VWidth: 2045
Flags: W
HStem: 1208 117<780.566 918.855>
VStem: 598 116<1430.54 1489>
LayerCount: 2
Fore
SplineSet
283 1208 m 1
 339 1325 l 1
 567 1223 l 1
 579 1334 589 1423 598 1489 c 1
 714 1489 l 1
 650 1228 l 1
 729 1263 819 1296 917 1326 c 1
 933 1210 l 1
 831 1181 740 1158 659 1143 c 1
 696 1109 743 1042 802 942 c 1
 692 873 l 1
 644 956 608 1031 582 1097 c 1
 529 1025 468 952 400 878 c 1
 322 941 l 1
 405 1032 473 1099 527 1142 c 1
 283 1208 l 1
EndSplineSet
EndChar

StartChar: plus
Encoding: 43 43 15
Width: 1350
VWidth: 2045
Flags: W
HStem: 662 122<327 728 873 1274>
VStem: 653 124<237 361> 823 124<1081 1205>
DStem2: 653 237 777 237 0.173648 0.984808<21.5324 431.567 576.892 982.814>
LayerCount: 2
Fore
SplineSet
653 237 m 1
 728 662 l 1
 306 662 l 1
 327 784 l 1
 749 784 l 1
 823 1205 l 1
 947 1205 l 1
 873 784 l 1
 1295 784 l 1
 1274 662 l 1
 852 662 l 1
 777 237 l 1
 653 237 l 1
EndSplineSet
EndChar

StartChar: comma
Encoding: 44 44 16
Width: 568
VWidth: 2045
Flags: W
VStem: 240 183<22 205>
LayerCount: 2
Fore
SplineSet
204 0 m 1
 240 205 l 1
 423 205 l 1
 387 0 l 2
 370 -99 327 -228 169 -290 c 1
 148 -213 l 1
 224 -181 273 -125 299 0 c 1
 204 0 l 1
EndSplineSet
EndChar

StartChar: hyphen
Encoding: 45 45 17
Width: 681
VWidth: 2045
Flags: W
HStem: 462 136<169 698>
LayerCount: 2
Fore
SplineSet
145 462 m 1
 169 598 l 1
 722 598 l 1
 698 462 l 1
 145 462 l 1
EndSplineSet
EndChar

StartChar: period
Encoding: 46 46 18
Width: 568
VWidth: 2045
Flags: W
HStem: 0 196<221 369>
VStem: 186 183<0 183> 221 183<13 196>
LayerCount: 2
Fore
SplineSet
186 0 m 1xc0
 221 196 l 1
 404 196 l 1xa0
 369 0 l 1
 186 0 l 1xc0
EndSplineSet
EndChar

StartChar: slash
Encoding: 47 47 19
Width: 568
VWidth: 2045
Flags: W
HStem: -9 21G<-83 58.4557> 1448 20G<753.517 893>
VStem: -83 130<-9 121> 765 128<1340 1468>
DStem2: -83 -9 47 -9 0.497908 0.86723<64.7281 1703.12>
LayerCount: 2
Fore
SplineSet
-83 -9 m 1
 765 1468 l 1
 893 1468 l 1
 47 -9 l 1
 -83 -9 l 1
EndSplineSet
EndChar

StartChar: zero
Encoding: 48 48 20
Width: 1137
VWidth: 2045
Flags: W
HStem: -15 112<429.269 736.389> 1347 112<641.565 945.197>
VStem: 185 132<222.727 816.135> 1059 131<636.169 1223.49>
LayerCount: 2
Fore
SplineSet
1059 992 m 0
 1059 1229 972 1347 799 1347 c 8
 413 1347 317 705 317 456 c 0
 317 217 404 97 578 97 c 8
 963 97 1059 756 1059 992 c 0
555 -15 m 16
 308 -15 185 138 185 443 c 0
 185 767 311 1459 817 1459 c 16
 1065 1459 1190 1308 1190 1006 c 0
 1190 739 1086 -15 555 -15 c 16
EndSplineSet
EndChar

StartChar: one
Encoding: 49 49 21
Width: 1137
VWidth: 2045
Flags: W
HStem: 0 21G<636 766.521> 997 106<417 503.706> 1451 20G<822.5 1022>
VStem: 636 127<0 127>
DStem2: 636 0 763 0 0.173648 0.984808<22.0533 1320.02>
LayerCount: 2
Fore
SplineSet
417 1103 m 1
 669 1211 804 1385 841 1471 c 1
 1022 1471 l 1
 763 0 l 1
 636 0 l 1
 865 1300 l 1
 719 1136 622 1060 399 997 c 1
 417 1103 l 1
EndSplineSet
EndChar

StartChar: two
Encoding: 50 50 22
Width: 1137
VWidth: 2045
Flags: W
HStem: 0 136<283 1031> 1370 110<616.547 976.005>
VStem: 279 131<1039 1170> 1091 133<962.735 1267.6>
DStem2: 259 321 421 298 0.808953 0.587873<-80.9064 988.719>
LayerCount: 2
Fore
SplineSet
833 1480 m 0
 1094 1480 1224 1340 1224 1154 c 0
 1224 1024 1167 871 1052 772 c 0
 965 697 862 617 743 532 c 10
 421 298 l 18
 334 234 289 180 283 136 c 1
 1055 136 l 1
 1031 0 l 1
 61 0 l 1
 84 131 150 238 259 321 c 0
 565 556 626 576 912 804 c 0
 1074 933 1091 1076 1091 1134 c 0
 1091 1310 922 1370 809 1370 c 0
 508 1370 427 1131 410 1039 c 1
 279 1039 l 1
 325 1300 546 1480 833 1480 c 0
EndSplineSet
EndChar

StartChar: three
Encoding: 51 51 23
Width: 1137
VWidth: 2045
Flags: W
HStem: -9 127<412.924 755.251> 713 131<590 863.418> 1069 21G<292 428.5> 1353 127<600.217 966.77>
VStem: 155 130<241.077 426> 292 127<1069 1196> 975 155<334.061 625.141> 1042 130<1014.52 1280.93>
LayerCount: 2
Fore
SplineSet
1172 1157 m 0xfd
 1172 907 934 801 911 794 c 1
 958 784 1130 737 1130 528 c 0
 1130 246 877 -9 550 -9 c 0
 282 -9 155 175 155 362 c 0
 155 384 157 405 160 426 c 1
 288 426 l 1
 286 415 285 404 285 391 c 0
 285 283 360 118 573 118 c 0
 781 118 975 283 975 498 c 0xfe
 975 669 816 713 688 713 c 0
 646 713 603 706 563 693 c 1
 590 844 l 1
 676 844 844 848 931 933 c 0
 1032 1036 1042 1103 1042 1160 c 0
 1042 1313 905 1353 782 1353 c 0
 536 1353 438 1166 419 1069 c 9
 292 1069 l 1
 322 1256 520 1480 811 1480 c 0
 1066 1480 1172 1315 1172 1157 c 0xfd
EndSplineSet
EndChar

StartChar: four
Encoding: 52 52 24
Width: 1137
VWidth: 2045
Flags: W
HStem: 0 21G<715 845.516> 347 121<242 776 925 1101> 1451 20G<934.078 1101>
VStem: 715 127<0 127>
DStem2: 110 477 242 468 0.645908 0.763415<78.3891 1151.3> 715 0 842 0 0.173648 0.984808<22.0533 352.321 497.356 1301.77>
LayerCount: 2
Fore
SplineSet
715 0 m 1
 776 347 l 1
 87 347 l 1
 110 477 l 1
 951 1471 l 1
 1101 1471 l 1
 925 468 l 1
 1123 468 l 1
 1101 347 l 1
 903 347 l 1
 842 0 l 1
 715 0 l 1
798 468 m 1
 941 1282 l 1
 242 468 l 1
 798 468 l 1
EndSplineSet
EndChar

StartChar: five
Encoding: 53 53 25
Width: 1137
VWidth: 2045
Flags: W
HStem: -9 124<393.916 755.795> 855 131<540.686 897.432> 1344 127<606 1225>
VStem: 153 138<214.133 414> 1014 140<390.718 742.287>
DStem2: 241 707 418 852 0.340854 0.940116<196.648 723.266>
LayerCount: 2
Fore
SplineSet
1154 615 m 0
 1154 349 957 -9 543 -9 c 0
 250 -9 153 182 153 351 c 0
 153 372 155 394 158 414 c 1
 293 414 l 1
 292 398 291 384 291 369 c 0
 291 149 455 115 588 115 c 0
 812 115 1014 340 1014 590 c 0
 1014 718 948 855 703 855 c 0
 573 854 465 797 380 686 c 1
 241 707 l 1
 518 1471 l 1
 1247 1471 l 1
 1225 1344 l 1
 606 1344 l 1
 418 852 l 1
 508 954 643 986 779 986 c 0
 983 986 1154 856 1154 615 c 0
EndSplineSet
EndChar

StartChar: six
Encoding: 54 54 26
Width: 1137
VWidth: 2045
Flags: W
HStem: -9 127<445.208 783.134> 844 132<552.023 893.15> 1341 139<647.999 995.741>
VStem: 175 157<239.938 610.774> 1005 134<373.672 730.55> 1087 130<1103 1249.5>
LayerCount: 2
Fore
SplineSet
1139 592 m 0xf8
 1139 331 945 -9 575 -9 c 0
 294 -9 175 190 175 465 c 0
 175 530 182 600 195 673 c 0
 267 1084 442 1480 863 1480 c 0
 1065 1480 1217 1361 1217 1167 c 0
 1217 1146 1216 1125 1212 1103 c 1
 1087 1103 l 1
 1087 1113 l 2xf4
 1087 1173 1059 1341 828 1341 c 0
 527 1341 408 1052 351 766 c 1
 362 788 481 976 776 976 c 0
 958 976 1139 842 1139 592 c 0xf8
603 118 m 0
 892 118 1005 387 1005 562 c 0xf8
 1005 719 918 844 725 844 c 0
 489 844 332 635 332 407 c 0
 332 240 429 118 603 118 c 0
EndSplineSet
EndChar

StartChar: seven
Encoding: 55 55 27
Width: 1137
VWidth: 2045
Flags: W
HStem: 0 21G<361 521> 1329 142<357 1120>
VStem: 361 149<0 149>
LayerCount: 2
Fore
SplineSet
361 0 m 1
 392 168 499 682 1120 1329 c 1
 332 1329 l 1
 357 1471 l 1
 1305 1471 l 1
 1280 1329 l 1
 644 703 532 126 510 0 c 1
 361 0 l 1
EndSplineSet
EndChar

StartChar: eight
Encoding: 56 56 28
Width: 1137
VWidth: 2045
Flags: W
HStem: -9 119<411.242 769.629> 727 131<558.656 863.386> 1365 115<640.327 965.398>
VStem: 149 137<228.683 521.782> 330 135<948.09 1207.91> 993 140<319.188 608.932> 1058 130<1015.7 1276.87>
LayerCount: 2
Fore
SplineSet
1058 1151 m 0xfa
 1058 1000 902 858 717 858 c 256
 557 858 465 962 465 1073 c 0
 465 1220 620 1365 807 1365 c 256
 954 1365 1058 1273 1058 1151 c 0xfa
993 467 m 0xfc
 993 283 808 110 585 110 c 256
 421 110 286 208 286 368 c 0
 286 565 481 727 694 727 c 256
 869 727 993 617 993 467 c 0xfc
503 804 m 1
 219 733 149 474 149 348 c 0
 149 165 281 -9 564 -9 c 0
 1019 -9 1133 356 1133 507 c 0xfc
 1133 618 1081 745 913 804 c 1
 1033 852 1188 940 1188 1171 c 0xfa
 1188 1360 1044 1480 824 1480 c 0
 493 1480 330 1237 330 1038 c 0
 330 928 387 850 503 804 c 1
EndSplineSet
EndChar

StartChar: nine
Encoding: 57 57 29
Width: 1137
VWidth: 2045
Flags: W
HStem: -9 139<431.927 766.829> 495 133<535.081 851.182> 1347 133<646.001 963.157>
VStem: 202 134<224.745 369> 276 133<760.27 1097.53> 1086 151<872.323 1219.83>
LayerCount: 2
Fore
SplineSet
684 628 m 256xec
 894 628 1086 833 1086 1054 c 0
 1086 1211 987 1347 811 1347 c 256
 611 1347 409 1148 409 921 c 0
 409 749 530 628 684 628 c 256xec
276 875 m 0
 276 1137 467 1480 833 1480 c 0
 1080 1480 1237 1351 1237 1015 c 0
 1237 937 1229 849 1211 748 c 0
 1141 353 969 -9 536 -9 c 0
 336 -9 202 133 202 327 c 0
 202 341 203 355 204 369 c 9
 336 369 l 1
 336 363 l 0xf4
 336 237 428 130 583 130 c 0
 589 130 l 0
 673 130 760 161 851 222 c 0
 943 283 1014 447 1065 713 c 1
 939 519 772 495 651 495 c 0
 477 495 276 611 276 875 c 0
EndSplineSet
EndChar

StartChar: colon
Encoding: 58 58 30
Width: 568
VWidth: 2045
Flags: W
HStem: 0 205<274 390> 856 204<425 541>
VStem: 238 152<0 152> 274 152<53 205> 389 152<856 1008> 425 152<908 1060>
DStem2: 238 0 390 0 0.173648 0.984808<26.3945 208.137 895.611 1076.37>
LayerCount: 2
Fore
SplineSet
389 856 m 1xc8
 425 1060 l 1
 577 1060 l 1xc4
 541 856 l 1
 389 856 l 1xc8
238 0 m 1xe0
 274 205 l 1
 426 205 l 1xd0
 390 0 l 1
 238 0 l 1xe0
EndSplineSet
EndChar

StartChar: semicolon
Encoding: 59 59 31
Width: 568
VWidth: 2045
Flags: W
HStem: 856 204<407 539>
VStem: 256 168<37 205> 371 168<856 1024> 407 168<892 1060>
DStem2: 168.865 -290 336.865 -290 0.173648 0.984808<294.474 502.611 1192.86 1370.84>
LayerCount: 2
Fore
SplineSet
371 856 m 1xa0
 407 1060 l 1
 575 1060 l 1x90
 539 856 l 1
 371 856 l 1xa0
220 0 m 1
 256 205 l 1
 424 205 l 1xc0
 388 0 l 2
 360 -159 280 -244 169 -290 c 1
 138 -221 l 1
 252 -173 282 -49 291 0 c 1
 220 0 l 1
EndSplineSet
EndChar

StartChar: less
Encoding: 60 60 32
Width: 1350
VWidth: 2045
Flags: W
DStem2: 447 723 291 663 0.898614 -0.438741<0 843.964> 312 785 447 723 0.924404 0.381416<101.147 1058.56>
LayerCount: 2
Fore
SplineSet
291 663 m 1
 312 785 l 1
 1359 1217 l 1
 1335 1081 l 1
 447 723 l 1
 1207 356 l 1
 1184 227 l 1
 291 663 l 1
EndSplineSet
EndChar

StartChar: equal
Encoding: 61 61 33
Width: 1350
VWidth: 2045
Flags: W
HStem: 440 130<290 1235> 885 121<366 1313>
LayerCount: 2
Fore
SplineSet
1313 885 m 1
 345 885 l 1
 366 1006 l 1
 1334 1006 l 1
 1313 885 l 1
1235 440 m 1
 267 440 l 1
 290 570 l 1
 1258 570 l 1
 1235 440 l 1
EndSplineSet
EndChar

StartChar: greater
Encoding: 62 62 34
Width: 1350
VWidth: 2045
Flags: W
DStem2: 251 356 229 227 0.923155 0.384428<0 959.924> 404 1217 379 1081 0.900198 -0.435482<36.7206 875.873>
LayerCount: 2
Fore
SplineSet
1276 663 m 1
 1297 785 l 1
 404 1217 l 1
 379 1081 l 1
 1138 723 l 1
 251 356 l 1
 229 227 l 1
 1276 663 l 1
EndSplineSet
EndChar

StartChar: question
Encoding: 63 63 35
Width: 1022
VWidth: 2045
Flags: W
HStem: 0 205<466 589> 1378 126<563.663 927.89>
VStem: 221 131<1045 1176> 430 159<0 159> 466 159<46 205> 506 125<361 486> 1047 133<983.903 1261.3>
LayerCount: 2
Fore
SplineSet
776 1504 m 0xe6
 1014 1504 1180 1369 1180 1161 c 0
 1180 942 1039 822 842 693 c 0
 762 640 708 577 679 506 c 0
 652 435 635 386 631 361 c 9
 506 361 l 17
 512 396 532 458 568 544 c 0
 676 805 1047 861 1047 1125 c 0
 1047 1241 958 1378 757 1378 c 8
 513 1378 383 1212 352 1045 c 1
 221 1045 l 1
 278 1299 492 1504 776 1504 c 0xe6
430 0 m 1xf2
 466 205 l 1
 625 205 l 1xea
 589 0 l 1
 430 0 l 1xf2
EndSplineSet
EndChar

StartChar: at
Encoding: 64 64 36
Width: 1635
VWidth: 2045
Flags: W
HStem: -430 112<544.62 1203.52> -33 145<1135.68 1334.3> -3 115<580.811 846.868> 967 116<837.341 1161.76> 1384 109<854.27 1385.65>
VStem: -21 113<58.9984 587.803> 374 124<200.526 574.781> 1376 140<938 1078> 1672 136<-118 18> 1781 113<607.461 1032.55>
LayerCount: 2
Fore
SplineSet
374 346 m 0xbf40
 374 729 723 1083 999 1083 c 0
 1134 1083 1258 1041 1318 938 c 1
 1376 1078 l 1
 1516 1078 l 1
 1204 257 l 2
 1197 240 1176 185 1176 167 c 0
 1176 136 1206 112 1243 112 c 0
 1487 112 1781 526 1781 826 c 0xdf40
 1781 1202 1430 1384 1140 1384 c 0
 564 1384 92 875 92 300 c 0
 92 -189 515 -318 877 -318 c 0
 1226 -318 1533 -204 1672 18 c 1
 1808 18 l 1xdf80
 1741 -83 1457 -430 853 -430 c 0
 131 -430 -21 -29 -21 286 c 0
 -21 870 446 1493 1177 1493 c 0
 1709 1493 1894 1150 1894 848 c 0
 1894 431 1504 -33 1148 -33 c 0xdf40
 1094 -33 1004 -4 1004 104 c 0
 1004 117 1005 130 1008 145 c 1
 890 46 772 -3 655 -3 c 0
 468 -3 374 151 374 346 c 0xbf40
706 112 m 0xbf
 986 112 1229 509 1229 764 c 0
 1229 884 1172 967 994 967 c 0
 751 965 498 646 498 363 c 0
 498 172 616 112 706 112 c 0xbf
EndSplineSet
EndChar

StartChar: A
Encoding: 65 65 37
Width: 1364
VWidth: 2045
Flags: W
HStem: 0 21G<-3 160.55 1195.99 1366> 471 129<487 1060> 1430 20G<826.4 1005.05>
VStem: -3 152<0 152> 1201 165<0 165>
DStem2: -3 0 149 0 0.501718 0.865031<76.2612 620.158 764.861 1561.92> 1000 1450 886 1290 0.244738 -0.969589<127.234 838.835 969.541 1455.1>
LayerCount: 2
Fore
SplineSet
838 1450 m 1
 1000 1450 l 1
 1366 0 l 1
 1201 0 l 1
 1083 471 l 1
 421 471 l 1
 149 0 l 1
 -3 0 l 1
 838 1450 l 1
1060 600 m 1
 886 1290 l 1
 487 600 l 1
 1060 600 l 1
EndSplineSet
EndChar

StartChar: B
Encoding: 66 66 38
Width: 1364
VWidth: 2045
Flags: W
HStem: 0 136<314 994.049> 692 127<434 1067.93> 1314 136<522 1151.36>
VStem: 1186 151<313.457 592.984> 1238 143<973.244 1238.14>
DStem2: 165 0 290.02 0 0.173648 0.984808<159.807 724.378 853.269 1356.03>
LayerCount: 2
Fore
SplineSet
1337 489 m 0xf0
 1337 373 1257 0 753 0 c 2
 165 0 l 1
 421 1450 l 1
 954 1450 l 2
 1316 1450 1381 1268 1381 1144 c 0xe8
 1381 1022 1314 861 1116 772 c 1
 1274 722 1337 607 1337 489 c 0xf0
873 819 m 2
 1020 819 1238 878 1238 1114 c 0
 1238 1236 1158 1314 936 1314 c 2
 522 1314 l 1
 434 819 l 1
 873 819 l 2
802 136 m 2
 1099 136 1186 354 1186 468 c 0xf0
 1186 625 1032 692 872 692 c 2
 412 692 l 1
 314 136 l 1
 802 136 l 2
EndSplineSet
EndChar

StartChar: C
Encoding: 67 67 39
Width: 1477
VWidth: 2045
Flags: W
HStem: -10 143<589.83 1046.83> 1335 142<794.827 1245.18>
VStem: 216 146<357.892 854.874> 1347 134<346 480> 1423 134<1050 1184>
LayerCount: 2
Fore
SplineSet
216 560 m 0xf0
 216 1051 551 1477 1053 1477 c 0
 1360 1477 1528 1305 1557 1050 c 1
 1423 1050 l 1xe8
 1389 1283 1172 1335 1025 1335 c 0
 667 1335 362 1046 362 585 c 0
 362 311 509 133 810 133 c 0
 1085 133 1259 248 1347 480 c 1
 1481 480 l 1
 1377 206 1118 -10 815 -10 c 0
 332 -10 216 290 216 560 c 0xf0
EndSplineSet
EndChar

StartChar: D
Encoding: 68 68 40
Width: 1477
VWidth: 2045
Flags: W
HStem: 0 136<320 942.479> 1314 136<528 1168.49>
VStem: 1382 148<631.668 1125.71>
DStem2: 168 0 296.02 0 0.173648 0.984808<160.328 1356.55>
LayerCount: 2
Fore
SplineSet
928 1450 m 2
 1383 1450 1530 1253 1530 960 c 0
 1530 694 1432 0 695 0 c 2
 168 0 l 1
 424 1450 l 1
 928 1450 l 2
320 136 m 1
 713 136 l 2
 1248 136 1382 631 1382 913 c 0
 1382 1145 1272 1314 917 1314 c 2
 528 1314 l 1
 320 136 l 1
EndSplineSet
EndChar

StartChar: E
Encoding: 69 69 41
Width: 1248
VWidth: 2045
Flags: W
HStem: 0 142<260 1168> 668 136<377 1085> 1305 145<465 1398>
DStem2: 108 0 234.962 0 0.173648 0.984808<166.237 700.395 838.497 1347.17>
LayerCount: 2
Fore
SplineSet
108 0 m 1
 364 1450 l 1
 1424 1450 l 1
 1398 1305 l 1
 465 1305 l 1
 377 804 l 1
 1109 804 l 1
 1085 668 l 1
 353 668 l 1
 260 142 l 1
 1193 142 l 1
 1168 0 l 1
 108 0 l 1
EndSplineSet
EndChar

StartChar: F
Encoding: 70 70 42
Width: 1137
VWidth: 2045
Flags: W
HStem: 0 21G<91 219.529> 663 135<357 1049> 1323 127<449 1312>
VStem: 91 125<0 125>
DStem2: 91 0 216 0 0.173648 0.984808<21.706 694.95 832.067 1365.07>
LayerCount: 2
Fore
SplineSet
91 0 m 1
 347 1450 l 1
 1335 1450 l 1
 1312 1323 l 1
 449 1323 l 1
 357 798 l 1
 1073 798 l 1
 1049 663 l 1
 333 663 l 1
 216 0 l 1
 91 0 l 1
EndSplineSet
EndChar

StartChar: G
Encoding: 71 71 43
Width: 1590
VWidth: 2045
Flags: W
HStem: -9 142<639.494 1086.98> 1335 142<840.375 1286.23>
VStem: 263 145<365.75 857.291> 1469 134<1050 1184>
LayerCount: 2
Fore
SplineSet
1099 1477 m 0
 598 1477 263 1049 263 566 c 0
 263 305 370 -9 833 -9 c 0
 1205 -9 1478 191 1543 539 c 2
 1568 683 l 1
 1070 683 l 1
 1045 541 l 1
 1405 541 l 1
 1383 414 1246 133 838 133 c 0
 652 133 408 232 408 585 c 0
 408 969 640 1335 1062 1335 c 0
 1390 1335 1462 1135 1469 1050 c 1
 1603 1050 l 1
 1575 1304 1407 1477 1099 1477 c 0
EndSplineSet
EndChar

StartChar: H
Encoding: 72 72 44
Width: 1477
VWidth: 2045
Flags: W
HStem: 0 21G<165 293.536 1186 1316.53> 690 134<435 1308> 1430 20G<417.469 546 1438.45 1569>
VStem: 165 125<0 125> 421 125<1325 1450> 1186 127<0 127> 1442 127<1323 1450>
DStem2: 165 0 290 0 0.173648 0.984808<21.706 722.408 858.367 1472.43> 1186 0 1313 0 0.173648 0.984808<22.0533 700.702 836.661 1472.43>
LayerCount: 2
Fore
SplineSet
165 0 m 1
 421 1450 l 1
 546 1450 l 1
 435 824 l 1
 1331 824 l 1
 1442 1450 l 1
 1569 1450 l 1
 1313 0 l 1
 1186 0 l 1
 1308 690 l 1
 412 690 l 1
 290 0 l 1
 165 0 l 1
EndSplineSet
EndChar

StartChar: I
Encoding: 73 73 45
Width: 568
VWidth: 2045
Flags: W
HStem: 0 21G<235 372.531> 1430 20G<487.469 625>
VStem: 235 134<0 134> 491 134<1316 1450>
DStem2: 235 0 369 0 0.173648 0.984808<23.2689 1472.43>
LayerCount: 2
Fore
SplineSet
235 0 m 1
 491 1450 l 1
 625 1450 l 1
 369 0 l 1
 235 0 l 1
EndSplineSet
EndChar

StartChar: J
Encoding: 74 74 46
Width: 1022
VWidth: 2045
Flags: W
HStem: -9 127<324.986 650.518> 1430 20G<982.468 1120>
VStem: 124 135<185.907 453.324> 986 134<1316 1450>
DStem2: 728.472 -9 862.008 -9 0.173648 0.984808<233.184 1481.55>
LayerCount: 2
Fore
SplineSet
986 1450 m 17
 1120 1450 l 1
 944 456 l 2
 898 193 776 -9 461 -9 c 0
 178 -9 124 155 124 291 c 0
 124 363 139 427 144 455 c 1
 271 455 l 17
 263 412 259 372 259 335 c 0
 259 205 314 118 481 118 c 0
 664 118 771 233 802 408 c 10
 986 1450 l 17
EndSplineSet
EndChar

StartChar: K
Encoding: 75 75 47
Width: 1364
VWidth: 2045
Flags: W
HStem: 0 21G<149 280.544 1150.3 1345> 1430 20G<401.469 533 1354.35 1570>
VStem: 149 128<0 128> 405 128<1322 1450> 1165 180<0 180> 1381 189<1261 1450>
DStem2: 149 0 277 0 0.173648 0.984808<22.227 583.843 749.229 1472.43> 403 716 375 553 0.799759 0.600321<0 188.957 329.754 1222.8> 735 823 619 743 0.595461 -0.803384<0 917.233>
LayerCount: 2
Fore
SplineSet
149 0 m 1
 405 1450 l 1
 533 1450 l 1
 403 716 l 1
 1381 1450 l 1
 1570 1450 l 1
 735 823 l 1
 1345 0 l 1
 1165 0 l 1
 619 743 l 1
 375 553 l 1
 277 0 l 1
 149 0 l 1
EndSplineSet
EndChar

StartChar: L
Encoding: 76 76 48
Width: 1137
VWidth: 2045
Flags: W
HStem: 0 133<300 1058> 1430 20G<401.469 533>
VStem: 405 128<1322 1450>
DStem2: 149 0 276.549 0 0.173648 0.984808<157.2 1472.43>
LayerCount: 2
Fore
SplineSet
149 0 m 1
 405 1450 l 1
 533 1450 l 1
 300 133 l 1
 1081 133 l 1
 1058 0 l 1
 149 0 l 1
EndSplineSet
EndChar

StartChar: M
Encoding: 77 77 49
Width: 1702
VWidth: 2045
Flags: W
HStem: 0 21G<152 280.528 790.463 915.472 1415 1552.53> 1430 20G<404.469 538.348 1658.76 1805>
VStem: 152 125<0 125> 1415 134<0 134>
DStem2: 152 0 277 0 0.173648 0.984808<21.706 1184.39> 533 1450 479 1145 0.258313 -0.966061<280.7 1339.46> 879 156 903 0 0.522036 0.852923<0 1228.8> 1415 0 1549 0 0.173648 0.984808<23.2689 1162.68>
LayerCount: 2
Fore
SplineSet
152 0 m 1
 408 1450 l 1
 533 1450 l 1
 879 156 l 1
 1671 1450 l 1
 1805 1450 l 1
 1549 0 l 1
 1415 0 l 1
 1617 1145 l 1
 903 0 l 1
 796 0 l 1
 479 1145 l 1
 277 0 l 1
 152 0 l 1
EndSplineSet
EndChar

StartChar: N
Encoding: 78 78 50
Width: 1477
VWidth: 2045
Flags: W
HStem: 0 21G<156 286.527 1164.16 1312.53> 1430 20G<408.469 549.837 1427.47 1565>
VStem: 156 127<0 127> 1431 134<1316 1450>
DStem2: 156 0 283 0 0.173648 0.984808<22.0533 1283.21> 539 1450 502 1242 0.47642 -0.879218<165.25 1412.62> 1175.32 0 1309 0 0.173648 0.984808<211.209 1472.37>
LayerCount: 2
Fore
SplineSet
156 0 m 1
 412 1450 l 1
 539 1450 l 1
 1212 208 l 1
 1431 1450 l 1
 1565 1450 l 1
 1309 0 l 1
 1175 0 l 1
 502 1242 l 1
 283 0 l 1
 156 0 l 1
EndSplineSet
EndChar

StartChar: O
Encoding: 79 79 51
Width: 1590
VWidth: 2045
Flags: W
HStem: -12 119<620.983 1017.08> 1349 125<827.538 1218.96>
VStem: 216 145<384.852 850.531> 1481 160<607.698 1074.93>
LayerCount: 2
Fore
SplineSet
216 591 m 0
 216 1020 541 1474 1059 1474 c 256
 1523 1474 1641 1146 1641 883 c 0
 1641 424 1287 -12 797 -12 c 256
 330 -12 216 333 216 591 c 0
812 107 m 256
 1160 107 1481 463 1481 854 c 0
 1481 1145 1290 1349 1031 1349 c 256
 682 1349 361 989 361 604 c 0
 361 314 552 107 812 107 c 256
EndSplineSet
EndChar

StartChar: P
Encoding: 80 80 52
Width: 1248
VWidth: 2045
Flags: W
HStem: 0 21G<88 219.517> 580 127<341 1007.95> 1314 136<448 1126.16>
VStem: 88 128<0 128> 1250 148<921.259 1211.47>
DStem2: 88 0 216 0 0.173648 0.984808<22.227 611.128 740.192 1356.55>
LayerCount: 2
Fore
SplineSet
1398 1128 m 0
 1398 948 1318 580 761 580 c 2
 318 580 l 1
 216 0 l 1
 88 0 l 1
 344 1450 l 1
 928 1450 l 2
 1085 1450 1398 1440 1398 1128 c 0
787 707 m 2
 1192 707 1250 1001 1250 1089 c 0
 1250 1193 1184 1314 891 1314 c 2
 448 1314 l 1
 341 707 l 1
 787 707 l 2
EndSplineSet
EndChar

StartChar: Q
Encoding: 81 81 53
Width: 1590
VWidth: 2045
Flags: W
HStem: -9 139<585.593 1035.78 1290.14 1566.57> 347 123<719.912 1034.54> 1335 142<782.475 1222.26>
VStem: 193 151<361.757 844.074> 1466 153<604.927 1089.55>
LayerCount: 2
Fore
SplineSet
1013 1335 m 0
 608 1335 344 977 344 596 c 0
 344 435 398 295 474 249 c 1
 559 348 713 470 871 470 c 0
 1110 470 1213 340 1238 293 c 1
 1405 440 1466 678 1466 875 c 0
 1466 1195 1254 1335 1013 1335 c 0
1387 0 m 0
 1225 0 1171 104 1171 104 c 1
 1056 29 926 -9 782 -9 c 0
 415 -9 193 208 193 556 c 0
 193 956 457 1477 1024 1477 c 0
 1298 1477 1619 1350 1619 924 c 0
 1619 651 1519 323 1289 172 c 1
 1312 135 1354 116 1412 116 c 0
 1483 116 1550 148 1585 186 c 1
 1650 91 l 1
 1584 30 1497 0 1387 0 c 0
1121 204 m 1
 1102 255 1031 347 860 347 c 0
 758 347 600 240 577 175 c 1
 637 144 711 130 815 130 c 0
 864 130 1030 134 1121 204 c 1
EndSplineSet
EndChar

StartChar: R
Encoding: 82 82 54
Width: 1364
VWidth: 2045
Flags: W
HStem: 0 21G<98 226.517 1155.83 1325> 580 127<348 815> 1314 136<455 1131.01>
VStem: 98 125<0 125> 1168 157<0 157> 1238 168<913.65 1221.77>
DStem2: 98 0 223 0 0.173648 0.984808<21.706 610.607 739.671 1356.03> 968 595 815 580 0.514496 -0.857493<0 613.107>
LayerCount: 2
Fore
SplineSet
1406 1130 m 0xf4
 1406 962 1311 653 968 595 c 1
 1325 0 l 1
 1168 0 l 1xf8
 815 580 l 1
 325 580 l 1
 223 0 l 1
 98 0 l 1
 354 1450 l 1
 939 1450 l 2
 1084 1450 1406 1437 1406 1130 c 0xf4
825 707 m 2
 1187 707 1238 970 1238 1085 c 0xf4
 1238 1193 1181 1314 927 1314 c 2
 455 1314 l 1
 348 707 l 1
 825 707 l 2
EndSplineSet
EndChar

StartChar: S
Encoding: 83 83 55
Width: 1248
VWidth: 2045
Flags: W
HStem: -9 136<437.298 927.229> 1338 133<625.965 1062.02>
VStem: 125 147<271.37 501> 285 146<952.129 1177.35> 1146 145<310.139 543.625> 1201 151<1018 1204.36>
LayerCount: 2
Fore
SplineSet
431 1051 m 0xf8
 431 1127 494 1338 861 1338 c 0
 1061 1338 1201 1240 1201 1046 c 0
 1201 1037 1201 1028 1200 1018 c 9
 1348 1018 l 1
 1351 1040 1352 1061 1352 1081 c 0xf4
 1352 1339 1149 1471 865 1471 c 0
 596 1471 285 1301 285 1013 c 0
 285 824 484 733 713 689 c 0
 1053 627 1146 542 1146 444 c 0
 1146 353 1058 127 684 127 c 0
 348 127 272 286 272 426 c 0
 272 452 275 477 279 501 c 9
 134 501 l 17
 128 469 125 435 125 399 c 0
 125 209 230 -9 687 -9 c 0
 1071 -9 1291 271 1291 467 c 0
 1291 567 1225 754 764 835 c 0
 600 863 431 923 431 1051 c 0xf8
EndSplineSet
EndChar

StartChar: T
Encoding: 84 84 56
Width: 1137
VWidth: 2045
Flags: W
HStem: 0 21G<500 637.523> 1317 133<274 732 866 1351>
VStem: 500 134<0 134>
DStem2: 500 0 634 0 0.173648 0.984808<23.2689 1337.28>
LayerCount: 2
Fore
SplineSet
500 0 m 1
 732 1317 l 1
 250 1317 l 1
 274 1450 l 1
 1375 1450 l 1
 1351 1317 l 1
 866 1317 l 1
 634 0 l 1
 500 0 l 1
EndSplineSet
EndChar

StartChar: U
Encoding: 85 85 57
Width: 1477
VWidth: 2045
Flags: W
HStem: -9 127<535.881 986.608> 1430 20G<414.471 543 1438.46 1569>
VStem: 246 130<266.952 718.766> 418 125<1325 1450> 1442 127<1323 1450>
DStem2: 160.612 -9 285.259 -9 0.173648 0.984808<492.077 1481.53> 1184.26 -9 1311.61 -9 0.173648 0.984808<342.372 1481.59>
LayerCount: 2
Fore
SplineSet
739 118 m 0
 1113 118 1245 336 1286 568 c 2
 1442 1450 l 1
 1569 1450 l 1
 1413 566 l 2
 1332 110 1030 -9 746 -9 c 0
 471 -9 246 76 246 402 c 0
 246 451 251 506 262 566 c 2
 418 1450 l 1
 543 1450 l 1
 387 568 l 2
 379 525 376 487 376 451 c 0
 376 195 560 118 739 118 c 0
EndSplineSet
EndChar

StartChar: V
Encoding: 86 86 58
Width: 1248
VWidth: 2045
Flags: W
HStem: 0 21G<556.917 694.228> 1430 20G<265 424.88 1342.73 1497>
VStem: 265 156<1294 1450> 1354 143<1307 1450>
DStem2: 421 1450 265 1450 0.200013 -0.979793<0 1254.91> 660 218 683 0 0.489519 0.871993<0 1414.02>
LayerCount: 2
Fore
SplineSet
561 0 m 1
 265 1450 l 1
 421 1450 l 1
 660 218 l 1
 1354 1450 l 1
 1497 1450 l 1
 683 0 l 1
 561 0 l 1
EndSplineSet
EndChar

StartChar: W
Encoding: 87 87 59
Width: 1818
VWidth: 2045
Flags: W
HStem: 0 21G<433.848 582.194 1259.98 1408.99> 1430 20G<280 429.023 1103.83 1254.06 1897.39 2052>
VStem: 280 147<1303 1450> 1906 146<1304 1450>
DStem2: 427 1450 280 1450 0.106969 -0.994262<0 1232.23> 551 224 573 0 0.417698 0.908586<0 1158.32> 1252 1450 1138 1229 0.100385 -0.994949<208.44 1232.46> 1378 224 1400 0 0.410103 0.912039<0 1334.69>
LayerCount: 2
Fore
SplineSet
436 0 m 1
 280 1450 l 1
 427 1450 l 1
 551 224 l 1
 1113 1450 l 1
 1252 1450 l 1
 1378 224 l 1
 1906 1450 l 1
 2052 1450 l 1
 1400 0 l 1
 1262 0 l 1
 1138 1229 l 1
 573 0 l 1
 436 0 l 1
EndSplineSet
EndChar

StartChar: X
Encoding: 88 88 60
Width: 1248
VWidth: 2045
Flags: W
HStem: 0 21G<9 203.445 1058.59 1244> 1430 20G<332 518.057 1266.96 1460>
VStem: 9 177<0 177> 332 177<1273 1450> 1069 175<0 175> 1284 176<1274 1450>
DStem2: 9 0 186 0 0.660336 0.75097<116.879 958.16 1150.63 1930.84> 509 1450 332 1450 0.446336 -0.894865<0 651.614 874.477 1547.5>
LayerCount: 2
Fore
SplineSet
9 0 m 1
 670 740 l 1
 332 1450 l 1
 509 1450 l 1
 778 856 l 1
 1284 1450 l 1
 1460 1450 l 1
 843 740 l 1
 1244 0 l 1
 1069 0 l 1
 739 634 l 1
 186 0 l 1
 9 0 l 1
EndSplineSet
EndChar

StartChar: Y
Encoding: 89 89 61
Width: 1248
VWidth: 2045
Flags: W
HStem: 0 21G<540 691.51> 1430 20G<262 448.206 1305.72 1497>
VStem: 262 177<1273 1450> 540 148<0 148> 1322 175<1275 1450>
DStem2: 439 1450 262 1450 0.423005 -0.906127<0 762.885> 540 0 688 0 0.173648 0.984808<25.6999 630.493> 758 757 797 621 0.645157 0.76405<0 893.355>
LayerCount: 2
Fore
SplineSet
540 0 m 1
 649 621 l 1
 262 1450 l 1
 439 1450 l 1
 758 757 l 1
 1322 1450 l 1
 1497 1450 l 1
 797 621 l 1
 688 0 l 1
 540 0 l 1
EndSplineSet
EndChar

StartChar: Z
Encoding: 90 90 62
Width: 1248
VWidth: 2045
Flags: W
HStem: 0 142<258 1198> 1308 142<302 1266>
LayerCount: 2
Fore
SplineSet
41 0 m 1
 67 150 l 1
 1266 1308 l 1
 277 1308 l 1
 302 1450 l 1
 1468 1450 l 1
 1443 1308 l 1
 258 142 l 1
 1223 142 l 1
 1198 0 l 1
 41 0 l 1
EndSplineSet
EndChar

StartChar: bracketleft
Encoding: 91 91 63
Width: 681
VWidth: 2045
Flags: W
HStem: -408 112<214 463> 1353 112<505 774>
DStem2: 67 -408 194.251 -408 0.173648 0.984808<135.825 1810.3>
LayerCount: 2
Fore
SplineSet
67 -408 m 1
 397 1465 l 1
 793 1465 l 1
 774 1353 l 1
 505 1353 l 1
 214 -296 l 1
 483 -296 l 1
 463 -408 l 1
 67 -408 l 1
EndSplineSet
EndChar

StartChar: backslash
Encoding: 92 92 64
Width: 568
VWidth: 2045
Flags: W
VStem: 263 107<1382 1489> 420 107<-24 83>
DStem2: 370 1489 263 1489 0.103213 -0.994659<0 1510.08>
LayerCount: 2
Fore
SplineSet
420 -24 m 1
 263 1489 l 1
 370 1489 l 1
 527 -24 l 1
 420 -24 l 1
EndSplineSet
EndChar

StartChar: bracketright
Encoding: 93 93 65
Width: 681
VWidth: 2045
Flags: W
DStem2: 302.251 -408 429 -408 0.173648 0.984808<113.728 1788.21>
LayerCount: 2
Fore
SplineSet
429 -408 m 1
 759 1465 l 1
 362 1465 l 1
 343 1353 l 1
 613 1353 l 1
 322 -296 l 1
 52 -296 l 1
 32 -408 l 1
 429 -408 l 1
EndSplineSet
EndChar

StartChar: asciicircum
Encoding: 94 94 66
Width: 1350
VWidth: 2045
Flags: W
VStem: 359 137<689 826> 1066 144<689 833>
DStem2: 359 689 496 689 0.523385 0.852096<71.7037 857.659>
LayerCount: 2
Fore
SplineSet
496 689 m 1
 359 689 l 1
 851 1490 l 1
 998 1490 l 1
 1210 689 l 1
 1066 689 l 1
 902 1362 l 1
 496 689 l 1
EndSplineSet
EndChar

StartChar: underscore
Encoding: 95 95 67
Width: 1022
VWidth: 2045
Flags: W
HStem: -408 94<-85 983>
LayerCount: 2
Fore
SplineSet
-102 -408 m 1
 -85 -314 l 1
 1000 -314 l 1
 983 -408 l 1
 -102 -408 l 1
EndSplineSet
EndChar

StartChar: grave
Encoding: 96 96 68
Width: 681
VWidth: 2045
Flags: W
HStem: 1454 20G<394 603.121>
LayerCount: 2
Fore
SplineSet
683 1193 m 1
 576 1193 l 1
 394 1474 l 1
 597 1474 l 1
 683 1193 l 1
EndSplineSet
EndChar

StartChar: a
Encoding: 97 97 69
Width: 1137
VWidth: 2045
Flags: W
HStem: -24 103<318.854 690.124> 982 102<523.056 935.089>
VStem: 119 140<137.95 371.716> 902 125<1.54582 286.67> 1006 127<602.879 916.529>
DStem2: 861.423 -24 989.479 -24 0.173648 0.984808<268.089 597.864 673.953 848.881>
LayerCount: 2
Fore
SplineSet
354 740 m 1xe8
 420 898 536 982 728 982 c 0
 909 982 1006 920 1006 813 c 0xe8
 1006 802 1005 790 1003 778 c 2
 985 674 l 2
 984 651 875 629 656 608 c 16
 450 586 119 531 119 221 c 0
 119 62 242 -24 432 -24 c 0
 621 -24 794 51 904 130 c 1
 903 117 902 105 902 93 c 0
 902 58 907 27 916 0 c 1
 1052 0 l 1
 1036 39 1027 71 1027 118 c 0xf0
 1027 181 1042 271 1072 444 c 2
 1115 686 l 2
 1125 740 1133 794 1133 844 c 0
 1133 979 1068 1084 773 1084 c 0
 597 1084 440 1034 350 942 c 0
 306 897 269 836 239 758 c 1
 354 740 l 1xe8
496 79 m 0
 387 79 259 114 259 239 c 0
 259 450 490 489 642 503 c 24
 740 511 847 532 964 565 c 1
 948 467 l 2
 932 375 905 303 869 252 c 0
 800 155 652 79 496 79 c 0
EndSplineSet
EndChar

StartChar: b
Encoding: 98 98 70
Width: 1248
VWidth: 2045
Flags: W
HStem: -12 121<488.378 809.342> 955 130<626.336 953.307> 1444 20G<425.48 555>
VStem: 171 113<-2 111> 429 126<1338 1464> 1070 130<420.397 831.911>
DStem2: 169.237 -12 282.237 -12 0.173648 0.984808<29.7765 197.306 966.188 1498.68>
LayerCount: 2
Fore
SplineSet
796 955 m 256
 551 955 373 701 373 417 c 0
 373 239 459 109 647 109 c 256
 899 109 1070 371 1070 638 c 0
 1070 788 1013 955 796 955 c 256
618 -12 m 0
 386 -12 317 150 313 163 c 1
 284 -2 l 1
 171 -2 l 1
 429 1464 l 1
 555 1464 l 1
 459 918 l 1
 557 1027 682 1085 833 1085 c 0
 1085 1085 1200 906 1200 678 c 0
 1200 394 1029 -12 618 -12 c 0
EndSplineSet
EndChar

StartChar: c
Encoding: 99 99 71
Width: 1137
VWidth: 2045
Flags: W
HStem: -9 131<425.799 802.989> 953 131<570.067 928.473>
VStem: 176 132<239.845 652.281> 967 122<280 402> 1019 127<695 864.604>
LayerCount: 2
Fore
SplineSet
176 401 m 0xf0
 176 607 295 1084 770 1084 c 0
 1068 1084 1146 915 1146 769 c 0
 1146 743 1144 718 1140 695 c 1
 1019 695 l 1
 1019 713 l 0xe8
 1019 843 956 953 753 953 c 0
 397 953 308 599 308 411 c 0
 308 158 489 122 598 122 c 0
 838 122 924 234 967 402 c 1
 1089 402 l 1
 1014 59 740 -9 592 -9 c 0
 358 -9 176 128 176 401 c 0xf0
EndSplineSet
EndChar

StartChar: d
Encoding: 100 100 72
Width: 1248
VWidth: 2045
Flags: W
HStem: -9 119<485.427 812.72> 956 128<619.876 941.995>
VStem: 238 123<242.276 650.64> 960 113<0 113> 1206 125<1340 1465>
DStem2: 958.413 -9 1071.41 -9 0.173648 0.984808<28.7611 176.668 941.209 1494.6>
LayerCount: 2
Fore
SplineSet
1059 651 m 0
 1059 451 952 110 635 110 c 256
 462 110 361 242 361 429 c 0
 361 640 494 956 785 956 c 256
 948 956 1059 853 1059 651 c 0
795 1084 m 0
 390 1084 238 665 238 395 c 0
 238 144 369 -9 631 -9 c 0
 855 -9 980 152 989 165 c 1
 960 0 l 1
 1073 0 l 1
 1331 1465 l 1
 1206 1465 l 1
 1110 920 l 1
 1052 1029 947 1084 795 1084 c 0
EndSplineSet
EndChar

StartChar: e
Encoding: 101 101 73
Width: 1137
VWidth: 2045
Flags: W
HStem: -9 124<409.198 799.102> 500 119<325 1026.71> 952 134<543.974 926.453>
VStem: 153 138<226.853 573.132> 1027 130<620.288 850.617>
LayerCount: 2
Fore
SplineSet
761 1086 m 0
 1010 1086 1157 955 1157 678 c 0
 1157 624 1151 565 1140 500 c 1
 301 500 l 1
 295 465 291 429 291 395 c 0
 291 244 362 115 602 115 c 0
 720 115 870 151 974 332 c 1
 1105 332 l 1
 977 -3 646 -9 577 -9 c 0
 244 -9 153 179 153 377 c 0
 153 720 366 1086 761 1086 c 0
1024 619 m 1
 1026 642 1027 663 1027 682 c 0
 1027 912 878 952 741 952 c 0
 566 952 372 851 325 619 c 1
 1024 619 l 1
EndSplineSet
EndChar

StartChar: f
Encoding: 102 102 74
Width: 568
VWidth: 2045
Flags: W
HStem: 0 21G<177 306.532> 957 103<205 346 490 704> 1381 134<611.244 883.787>
VStem: 177 126<0 126>
DStem2: 177 0 303 0 0.173648 0.984808<21.8797 971.808 1098.25 1356.89>
LayerCount: 2
Fore
SplineSet
744 1381 m 0
 695 1381 542 1356 508 1160 c 2
 490 1060 l 1
 722 1060 l 1
 704 957 l 1
 472 957 l 1
 303 0 l 1
 177 0 l 1
 346 957 l 1
 187 957 l 1
 205 1060 l 1
 364 1060 l 1
 384 1175 l 2
 432 1447 620 1512 753 1515 c 0
 804 1515 855 1506 902 1488 c 1
 879 1353 l 1
 829 1372 785 1381 744 1381 c 0
EndSplineSet
EndChar

StartChar: g
Encoding: 103 103 75
Width: 1248
VWidth: 2045
Flags: W
HStem: -435 130<361.343 754.306> 0 134<480.114 799.867> 959 127<611.177 937.187>
VStem: 167 127<-239.37 -74> 232 131<255.435 659.892> 1160 113<949 1062>
DStem2: 877.614 -435 1009.73 -435 0.173648 0.984808<296.667 643.71 1371.06 1523.29>
LayerCount: 2
Fore
SplineSet
1051 657 m 0xec
 1051 415 913 134 638 134 c 256
 450 134 363 266 363 442 c 0
 363 698 530 959 783 959 c 256
 951 959 1051 844 1051 657 c 0xec
807 1086 m 0
 424 1086 232 708 232 409 c 0xec
 232 175 356 -0 593 0 c 0
 753 0 889 67 989 199 c 1
 982 157 l 2
 929 -140 830 -305 550 -305 c 0
 380 -305 294 -248 294 -105 c 0
 294 -95 294 -85 295 -74 c 9
 173 -74 l 1
 170 -94 167 -117 167 -141 c 0xf4
 167 -267 230 -435 540 -435 c 0
 949 -435 1052 -184 1112 145 c 2
 1273 1062 l 1
 1160 1062 l 1
 1134 912 l 1
 1080 1028 970 1086 807 1086 c 0
EndSplineSet
EndChar

StartChar: h
Encoding: 104 104 76
Width: 1137
VWidth: 2045
Flags: W
HStem: 0 21G<134 265.526 872 1003.52> 933 151<597.348 921.022> 1445 20G<388.478 520>
VStem: 134 128<0 128> 392 128<1337 1465> 872 128<0 128> 993 133<468.422 864.118>
DStem2: 134 0 262 0 0.173648 0.984808<22.227 799.555 936.164 1487.54> 872 0 1000 0 0.173648 0.984808<22.227 732.855>
LayerCount: 2
Fore
SplineSet
985 639 m 2xfc
 990 670 993 699 993 724 c 0
 993 889 885 933 760 933 c 0
 471 933 377 652 369 607 c 2
 262 0 l 1
 134 0 l 1
 392 1465 l 1
 520 1465 l 1
 421 900 l 1
 558 1070 737 1084 790 1084 c 0
 1053 1084 1126 924 1126 767 c 0xfa
 1126 732 1123 698 1117 665 c 2
 1000 0 l 1
 872 0 l 1
 985 639 l 2xfc
EndSplineSet
EndChar

StartChar: i
Encoding: 105 105 77
Width: 454
VWidth: 2045
Flags: W
HStem: 0 21G<159 289.528> 1040 20G<342.472 473> 1258 207<417 508>
VStem: 159 127<0 127> 346 127<933 1060> 381 127<1258 1385> 417 127<1338 1465>
DStem2: 159 0 286 0 0.173648 0.984808<22.0533 1076.37 1299.49 1487.54>
LayerCount: 2
Fore
SplineSet
381 1258 m 1xf4
 417 1465 l 1
 544 1465 l 1xf2
 508 1258 l 1
 381 1258 l 1xf4
159 0 m 1
 346 1060 l 1
 473 1060 l 1xf8
 286 0 l 1
 159 0 l 1
EndSplineSet
EndChar

StartChar: j
Encoding: 106 106 78
Width: 454
VWidth: 2045
Flags: W
HStem: -429 124<-150.329 77.5933> 1040 20G<371.463 502> 1257 208<446 537>
VStem: 375 127<933 1060> 410 127<1257 1384> 446 127<1338 1465>
DStem2: 111.877 -429 239.406 -429 0.173648 0.984808<183.677 1512.07 1734.21 1923.25>
LayerCount: 2
Fore
SplineSet
410 1257 m 1xe8
 446 1465 l 1
 573 1465 l 1xe4
 537 1257 l 1
 410 1257 l 1xe8
305 -57 m 2
 271 -250 184 -429 -36 -429 c 0
 -77 -429 -121 -423 -167 -411 c 1
 -147 -296 l 1
 -91 -305 -71 -305 -51 -305 c 0
 5 -305 135 -298 178 -54 c 2
 375 1060 l 1
 502 1060 l 1xf0
 305 -57 l 2
EndSplineSet
EndChar

StartChar: k
Encoding: 107 107 79
Width: 1022
VWidth: 2045
Flags: W
HStem: 0 21G<136 266.545 858.547 1015> 1040 20G<984.256 1161> 1445 20G<390.478 521>
VStem: 136 127<0 127> 394 127<1338 1465> 869 146<0 146> 1009 152<908 1060>
DStem2: 136 0 263 0 0.173648 0.984808<22.0533 405.945 563.279 1487.54> 357 533 330 378 0.773003 0.634402<0 189.887 317.167 838.328> 668 654 569 574 0.468694 -0.88336<24.2681 671.925>
LayerCount: 2
Fore
SplineSet
136 0 m 1xfc
 394 1465 l 1
 521 1465 l 1
 357 533 l 1
 1009 1060 l 1
 1161 1060 l 1xfa
 668 654 l 1
 1015 0 l 1
 869 0 l 1
 569 574 l 1
 330 378 l 1
 263 0 l 1
 136 0 l 1xfc
EndSplineSet
EndChar

StartChar: l
Encoding: 108 108 80
Width: 454
VWidth: 2045
Flags: W
HStem: 0 21G<162 292.522> 1445 20G<416.478 547>
VStem: 162 127<0 127> 420 127<1338 1465>
DStem2: 162 0 289 0 0.173648 0.984808<22.0533 1487.54>
LayerCount: 2
Fore
SplineSet
162 0 m 1
 420 1465 l 1
 547 1465 l 1
 289 0 l 1
 162 0 l 1
EndSplineSet
EndChar

StartChar: m
Encoding: 109 109 81
Width: 1702
VWidth: 2045
Flags: W
HStem: 967 118<613.617 882.215 1246.67 1530.33>
VStem: 134 128<0 128> 321 108<954 1062> 788 127<0 127> 1447 126<0 126> 1577 134<652.372 728 789 922.395>
DStem2: 134 0 262 0 0.173648 0.984808<22.227 836.563 880.903 959.156 1016.62 1078.34> 788 0 915 0 0.173648 0.984808<22.0533 805.439> 1447 0 1573 0 0.173648 0.984808<21.8797 798.013>
LayerCount: 2
Fore
SplineSet
1435 1085 m 0
 1342 1085 1200 1065 1057 876 c 1
 1043 976 981 1085 808 1085 c 0
 658 1085 547 1033 392 849 c 1
 429 1062 l 1
 321 1062 l 1
 134 0 l 1
 262 0 l 1
 364 580 l 2
 417 881 621 967 747 967 c 0
 851 967 920 932 920 796 c 0
 920 766 916 730 909 689 c 2
 788 0 l 1
 915 0 l 1
 1024 616 l 2
 1073 898 1292 967 1375 967 c 0
 1517 967 1577 919 1577 789 c 0
 1577 755 1573 715 1565 668 c 2
 1447 0 l 1
 1573 0 l 1
 1701 728 l 2
 1708 766 1711 800 1711 831 c 0
 1711 1014 1600 1085 1435 1085 c 0
EndSplineSet
EndChar

StartChar: n
Encoding: 110 110 82
Width: 1137
VWidth: 2045
Flags: W
HStem: 0 21G<134 265.534 872 1003.52> 949 136<590.114 921.565> 1043 20G<317.482 449>
VStem: 134 128<0 128> 321 128<935 1063> 872 128<0 128> 992 135<467.789 877.075>
DStem2: 134 0 262 0 0.173648 0.984808<22.227 809.71 920.871 1079.32> 872 0 1000 0 0.173648 0.984808<22.227 735.268>
LayerCount: 2
Fore
SplineSet
982 624 m 2xdc
 988 660 992 694 992 727 c 0
 992 852 938 949 762 949 c 0xda
 496 949 387 711 356 532 c 2
 262 0 l 1
 134 0 l 1
 321 1063 l 1
 449 1063 l 1xba
 418 885 l 1
 541 1062 676 1085 790 1085 c 0
 1063 1085 1127 921 1127 772 c 0xda
 1127 735 1123 698 1117 665 c 2
 1000 0 l 1
 872 0 l 1
 982 624 l 2xdc
EndSplineSet
EndChar

StartChar: o
Encoding: 111 111 83
Width: 1137
VWidth: 2045
Flags: W
HStem: -12 121<413.175 767.157> 961 124<547.77 901.888>
VStem: 148 133<244.499 654.535> 1032 135<411.397 827.232>
LayerCount: 2
Fore
SplineSet
732 961 m 256
 424 961 281 664 281 426 c 0
 281 239 380 109 582 109 c 256
 889 109 1032 405 1032 644 c 0
 1032 831 934 961 732 961 c 256
148 389 m 0
 148 688 319 1085 755 1085 c 0
 1016 1085 1167 935 1167 672 c 0
 1167 436 1046 -12 562 -12 c 0
 300 -12 148 129 148 389 c 0
EndSplineSet
EndChar

StartChar: p
Encoding: 112 112 84
Width: 1248
VWidth: 2045
Flags: W
HStem: -9 128<486.202 812.489> 965 119<612.251 938.083>
VStem: 93 125<-390 -265> 352 112<963 1075> 1063 124<420.221 833.257>
DStem2: 93 -390 218 -390 0.173648 0.984808<21.706 576.255 1340.62 1487.72>
LayerCount: 2
Fore
SplineSet
367 430 m 0
 367 641 484 965 789 965 c 256
 924 965 1063 873 1063 653 c 0
 1063 440 936 119 640 119 c 256
 479 119 367 229 367 430 c 0
629 -9 m 0
 990 -9 1187 346 1187 681 c 0
 1187 931 1054 1084 792 1084 c 0
 577 1084 449 932 435 911 c 1
 464 1075 l 1
 352 1075 l 1
 93 -390 l 1
 218 -390 l 1
 315 156 l 1
 373 46 478 -9 629 -9 c 0
EndSplineSet
EndChar

StartChar: q
Encoding: 113 113 85
Width: 1248
VWidth: 2045
Flags: W
HStem: -9 128<488.724 815.478> 965 119<635.915 953.236>
VStem: 244 129<241.247 653.762> 888 126<-390 -264> 1160 113<962 1075>
DStem2: 888 -390 1014 -390 0.173648 0.984808<21.8797 554.549 1323.43 1489.98>
LayerCount: 2
Fore
SplineSet
646 119 m 256
 908 119 1071 391 1071 663 c 0
 1071 903 913 965 795 965 c 256
 569 965 373 732 373 436 c 0
 373 288 430 119 646 119 c 256
244 396 m 0
 244 614 363 1084 834 1084 c 0
 1049 1084 1123 932 1131 911 c 1
 1160 1075 l 1
 1273 1075 l 1
 1014 -390 l 1
 888 -390 l 1
 985 156 l 1
 887 46 762 -9 611 -9 c 0
 322 -9 244 204 244 396 c 0
EndSplineSet
EndChar

StartChar: r
Encoding: 114 114 86
Width: 681
VWidth: 2045
Flags: W
HStem: 0 21G<133 263.525> 952 110<537.734 843.437>
VStem: 133 127<0 127> 320 116<946 1062>
DStem2: 133 0 260 0 0.173648 0.984808<22.0533 854.412 934.08 1078.34>
LayerCount: 2
Fore
SplineSet
408 900 m 1
 534 1054 649 1076 729 1076 c 0
 792 1076 845 1060 890 1027 c 1
 819 906 l 1
 762 937 718 952 686 952 c 0
 514 952 405 820 358 556 c 2
 260 0 l 1
 133 0 l 1
 320 1062 l 1
 436 1062 l 1
 408 900 l 1
EndSplineSet
EndChar

StartChar: s
Encoding: 115 115 87
Width: 1022
VWidth: 2045
Flags: W
HStem: -12 124<340.708 735.179> 492 129<433.658 798.875> 961 124<454.163 850.138>
VStem: 120 128<196.754 358> 224 142<681.495 880.823> 869 137<221.679 427.246> 918 125<764 896.304>
LayerCount: 2
Fore
SplineSet
366 777 m 0xec
 366 855 418 961 674 961 c 256
 871 961 918 861 918 790 c 0
 918 781 917 772 916 764 c 257
 1039 764 l 257
 1041 777 1043 794 1043 813 c 0
 1043 917 989 1085 661 1085 c 0
 426 1085 224 928 224 720 c 0xea
 224 545 397 497 608 492 c 256
 769 491 869 429 869 332 c 0
 869 200 713 112 516 112 c 0
 354 112 248 190 248 320 c 0
 248 332 249 345 251 358 c 257
 127 358 l 257
 122 332 120 308 120 286 c 0xf4
 120 50 357 -12 532 -12 c 0
 766 -12 1006 149 1006 379 c 0
 1006 559 820 614 626 621 c 256
 413 629 366 708 366 777 c 0xec
EndSplineSet
EndChar

StartChar: t
Encoding: 116 116 88
Width: 568
VWidth: 2045
Flags: W
HStem: -12 112<338.798 552.764> 959 101<205 337 480 666>
VStem: 206 125<112.517 464.188> 420 126<1306 1432>
DStem2: 166.046 -12 290.81 -12 0.173648 0.984808<225.967 985.934 1110.23 1466.16>
LayerCount: 2
Fore
SplineSet
410 -12 m 0
 253 -12 206 49 206 162 c 0
 206 204 213 254 223 311 c 2
 337 959 l 1
 187 959 l 1
 205 1060 l 1
 355 1060 l 1
 420 1432 l 1
 546 1432 l 1
 480 1060 l 1
 684 1060 l 1
 666 959 l 1
 462 959 l 1
 346 301 l 2
 338 254 331 216 331 187 c 0
 331 125 361 100 466 100 c 0
 493 100 523 106 557 112 c 1
 554 3 l 1
 505 -7 457 -12 410 -12 c 0
EndSplineSet
EndChar

StartChar: u
Encoding: 117 117 89
Width: 1137
VWidth: 2045
Flags: W
HStem: -9 142<393.996 733.386> 1064 20G<291.49 421 1029.49 1160>
VStem: 168 131<221.823 497.615> 295 126<958 1084> 1033 127<957 1084>
DStem2: 102.827 -9 228.827 -9 0.173648 0.984808<395.43 1109.77> 840.413 -9 967.413 -9 0.173648 0.984808<31.1922 131.947 271.382 1109.84>
LayerCount: 2
Fore
SplineSet
863 121 m 1xe8
 736 5 689 -9 535 -9 c 0
 251 -9 168 144 168 312 c 0xe8
 168 349 172 386 179 423 c 2
 295 1084 l 1
 421 1084 l 1xd8
 305 423 l 2
 301 399 299 377 299 357 c 0
 299 180 449 133 557 133 c 0
 758 133 891 277 916 418 c 2
 1033 1084 l 1
 1160 1084 l 1
 969 0 l 1
 842 0 l 1
 863 121 l 1xe8
EndSplineSet
EndChar

StartChar: v
Encoding: 118 118 90
Width: 1022
VWidth: 2045
Flags: W
HStem: 0 21G<446.509 587.509> 1040 20G<213 353.415 1038.78 1186>
VStem: 213 136<924 1060> 1050 136<924 1060>
DStem2: 349 1060 213 1060 0.219074 -0.975708<0 918.587> 547 163 576 0 0.498778 0.86673<0 1028.34>
LayerCount: 2
Fore
SplineSet
451 0 m 1
 213 1060 l 1
 349 1060 l 1
 547 163 l 1
 1050 1060 l 1
 1186 1060 l 1
 576 0 l 1
 451 0 l 1
EndSplineSet
EndChar

StartChar: w
Encoding: 119 119 91
Width: 1477
VWidth: 2045
Flags: W
HStem: 0 21G<328.396 482.126 971.609 1125.06> 1040 20G<193 328.319 824.014 967.453 1465.1 1596>
VStem: 193 133<927 1060> 1474 122<938 1060>
DStem2: 326 1060 193 1060 0.129099 -0.991632<0 902.92> 430 163 473 0 0.409815 0.912169<0 825.222> 965 1060 870 870 0.121719 -0.992565<177.024 903.719> 1075 163 1116 0 0.412508 0.910954<0 981.716>
LayerCount: 2
Fore
SplineSet
870 870 m 17
 473 0 l 1
 331 0 l 1
 193 1060 l 1
 326 1060 l 1
 430 163 l 1
 833 1060 l 1
 965 1060 l 1
 1075 163 l 1
 1474 1060 l 1
 1596 1060 l 1
 1116 0 l 1
 974 0 l 9
 870 870 l 17
EndSplineSet
EndChar

StartChar: x
Encoding: 120 120 92
Width: 1022
VWidth: 2045
Flags: W
HStem: 0 21G<15 183.151 845.387 1007> 1040 20G<231 398.949 1001.15 1167>
VStem: 15 150<0 150> 231 157<903 1060> 857 150<0 150> 1021 146<914 1060>
DStem2: 15 0 165 0 0.68839 0.725341<103.258 103.258 882.403 1461.38> 388 1060 231 1060 0.50851 -0.861056<0 468.309 613.522 1151.21>
LayerCount: 2
Fore
SplineSet
15 0 m 1
 531 553 l 1
 231 1060 l 1
 388 1060 l 1
 613 649 l 1
 1021 1060 l 1
 1167 1060 l 1
 666 562 l 1
 1007 0 l 1
 857 0 l 1
 587 465 l 1
 165 0 l 1
 15 0 l 1
EndSplineSet
EndChar

StartChar: y
Encoding: 121 121 93
Width: 1022
VWidth: 2045
Flags: W
HStem: -423 115<60.6881 308.067> 1040 20G<221 364.896 1054.31 1192>
VStem: 221 140<920 1060> 1065 127<933 1060>
DStem2: 361 1060 221 1060 0.196492 -0.980505<0 983.128> 549 95 575 -95 0.471183 0.882036<0 1094.29>
LayerCount: 2
Fore
SplineSet
55 -408 m 1
 61 -293 l 1
 95 -302 127 -308 159 -308 c 0
 208 -308 262 -291 319 -258 c 0
 412 -204 435 -68 435 -40 c 0
 435 -17 430 15 422 57 c 2
 221 1060 l 1
 361 1060 l 1
 549 95 l 1
 1065 1060 l 1
 1192 1060 l 1
 575 -95 l 2
 497 -246 369 -423 133 -423 c 0
 107 -423 82 -418 55 -408 c 1
EndSplineSet
EndChar

StartChar: z
Encoding: 122 122 94
Width: 1022
VWidth: 2045
Flags: W
HStem: 0 118<207 979> 953 107<248 959>
DStem2: 61 118 207 118 0.736076 0.676898<107.467 1226.21>
LayerCount: 2
Fore
SplineSet
40 0 m 1
 61 118 l 1
 959 953 l 1
 229 953 l 1
 248 1060 l 1
 1134 1060 l 1
 1115 953 l 1
 207 118 l 1
 1000 118 l 1
 979 0 l 1
 40 0 l 1
EndSplineSet
EndChar

StartChar: braceleft
Encoding: 123 123 95
Width: 681
VWidth: 2045
Flags: W
HStem: -430 119<376.422 558> 449 163<166 261.383> 1371 119<661.818 876>
VStem: 241 115<-293.146 129.925> 299 114<-57.626 411.204>
LayerCount: 2
Fore
SplineSet
413 275 m 0xe8
 413 130 356 -62 356 -187 c 0
 356 -280 392 -311 497 -311 c 2
 579 -311 l 1
 558 -430 l 1
 503 -430 l 2
 300 -430 241 -359 241 -213 c 0xf0
 241 -67 299 140 299 274 c 0
 299 384 261 446 137 449 c 1
 166 612 l 1
 364 615 400 784 440 997 c 0
 493 1286 523 1490 823 1490 c 2
 897 1490 l 1
 876 1371 l 1
 794 1371 l 2
 625 1371 602 1268 568 1080 c 0
 513 768 488 629 264 530 c 1
 374 480 413 400 413 275 c 0xe8
EndSplineSet
EndChar

StartChar: bar
Encoding: 124 124 96
Width: 454
VWidth: 2045
Flags: W
HStem: -430 21G<96 203.533>
VStem: 96 104<-430 -326> 435 104<1385 1489>
DStem2: 96 -430 200 -430 0.173648 0.984808<18.0594 1948.71>
LayerCount: 2
Fore
SplineSet
96 -430 m 1
 435 1489 l 1
 539 1489 l 1
 200 -430 l 1
 96 -430 l 1
EndSplineSet
EndChar

StartChar: braceright
Encoding: 125 125 97
Width: 681
VWidth: 2045
Flags: W
HStem: -430 119<29 210.188> 449 163<616.632 707> 1371 119<376 488.655>
VStem: 458 116<649.751 1121.24> 516 115<932.614 1346.66>
LayerCount: 2
Fore
SplineSet
516 1239 m 0xe8
 516 1147 458 928 458 778 c 0
 458 657 496 588 607 530 c 1
 390 445 351 269 312 48 c 0
 263 -231 246 -311 79 -311 c 2
 -6 -311 l 1
 -27 -430 l 1
 29 -430 l 2
 331 -430 367 -278 429 48 c 0
 473 280 504 445 707 449 c 1
 736 612 l 1
 610 616 574 679 574 787 c 0xf0
 574 921 631 1140 631 1275 c 0
 631 1410 578 1490 377 1490 c 2
 312 1490 l 1
 291 1371 l 1
 376 1371 l 2
 486 1371 516 1318 516 1239 c 0xe8
EndSplineSet
EndChar

StartChar: asciitilde
Encoding: 126 126 98
Width: 1350
VWidth: 2045
Flags: W
HStem: 559 136<896.455 1203.53> 692 136<401.631 723.747>
LayerCount: 2
Fore
SplineSet
553 692 m 0x40
 449 692 380 647 269 556 c 1
 296 710 l 1
 381 789 480 828 594 828 c 0x40
 787 828 923 695 1059 695 c 0
 1161 695 1279 777 1339 831 c 1
 1311 674 l 1
 1210 593 1124 559 1015 559 c 0x80
 814 559 721 692 553 692 c 0x40
EndSplineSet
EndChar

StartChar: exclamdown
Encoding: 161 161 100
Width: 705
VWidth: 2045
Flags: W
HStem: 0 21G<250 423.95> 1058 20G<462.974 580> 1278 211<501 667>
VStem: 463 204<1278 1482> 467 113<1006.78 1078> 501 204<1285 1489>
DStem2: 237.654 0 441.654 0 0.173648 0.984808<31.8378 584.295 1333.14 1512.11>
LayerCount: 2
Fore
SplineSet
667 1278 m 1xf0
 463 1278 l 1xf0
 501 1489 l 1
 705 1489 l 1xe4
 667 1278 l 1xf0
421 0 m 1
 250 0 l 1
 467 1078 l 1
 580 1078 l 1xe8
 421 0 l 1
EndSplineSet
EndChar

StartChar: cent
Encoding: 162 162 101
Width: 1178
VWidth: 2045
Flags: W
HStem: 0 103<480.281 565 673 842.475> 1015 100<623.125 742 852 1001.88> 1454 20G<820.49 915>
VStem: 197 142<241.19 674.903> 500 91<-361 -270> 824 91<1383 1474>
DStem2: 500 -361 591 -361 0.173648 0.984808<15.802 369.757 486.992 1391.21 1514.7 1863.38>
LayerCount: 2
Fore
SplineSet
852 1115 m 1
 955 1112 1054 1096 1157 1036 c 1
 1128 875 l 1
 1118 875 l 1
 1078 942 968 1006 834 1015 c 1
 673 103 l 17
 809 123 920 170 1007 243 c 1
 1017 243 l 1
 989 83 l 1
 832 15 741 4 655 0 c 1
 591 -361 l 1
 500 -361 l 1
 565 3 l 1
 325 32 197 171 197 410 c 0
 197 699 355 1070 761 1115 c 1
 824 1474 l 1
 915 1474 l 1
 852 1115 l 1
742 1009 m 1
 430 967 339 616 339 426 c 0
 339 181 496 129 583 109 c 1
 742 1009 l 1
EndSplineSet
EndChar

StartChar: sterling
Encoding: 163 163 102
Width: 1115
VWidth: 2045
Flags: W
HStem: 0 207<124 216.132> 0 171<291 1031> 613 138<262 398 614 954> 1263 207<1144.6 1223> 1350 166<807.928 1145.04>
DStem2: 289.912 0 482.491 0 0.173648 0.984808<399.059 622.457 795.868 1309.33>
LayerCount: 2
Fore
SplineSet
580 553 m 2x28
 547 371 422 251 293 181 c 1
 291 171 l 1
 1061 171 l 1
 1031 0 l 1
 88 0 l 1x68
 124 207 l 1
 296 256 360 396 398 613 c 1
 238 613 l 1
 262 751 l 1
 422 751 l 1
 479 1071 l 2
 526 1341 726 1516 974 1516 c 0xa8
 1062 1516 1110 1512 1259 1470 c 1
 1223 1263 l 1
 1214 1263 l 1x30
 1151 1310 1068 1350 964 1350 c 0
 866 1350 714 1313 667 1051 c 2
 614 751 l 1
 978 751 l 1
 954 613 l 1
 590 613 l 1
 580 553 l 2x28
EndSplineSet
EndChar

StartChar: currency
Encoding: 164 164 103
Width: 1115
VWidth: 2045
Flags: W
HStem: 326 138<528.956 766.188> 858 139<582.758 823.38>
VStem: 338 143<513.269 755.005> 870 147<566.689 812.942>
DStem2: 112 272 200 163 0.760494 0.649345<0 343.699 1020.74 1363.68> 375 1157 249 1051 0.636318 -0.771427<1.59515 287.505 864.079 1145.95>
LayerCount: 2
Fore
SplineSet
1017 719 m 0
 1017 617 969 539 928 486 c 1
 1103 272 l 1
 979 166 l 1
 803 378 l 1
 734 340 687 326 617 326 c 2
 614 326 l 2
 591 326 531 327 451 379 c 1
 200 163 l 1
 112 272 l 1
 363 486 l 1
 345 526 338 566 338 605 c 0
 338 707 383 781 424 834 c 1
 249 1051 l 1
 375 1157 l 1
 552 942 l 1
 617 981 682 995 736 997 c 0
 813 997 885 957 902 946 c 1
 1151 1157 l 1
 1240 1051 l 1
 990 837 l 1
 1008 797 1017 761 1017 719 c 0
711 858 m 0
 596 858 481 751 481 628 c 0
 481 536 548 464 642 464 c 0
 750 464 870 569 870 697 c 0
 870 784 811 858 711 858 c 0
EndSplineSet
EndChar

StartChar: yen
Encoding: 165 165 104
Width: 1115
VWidth: 2045
Flags: W
HStem: 0 21G<463 656.545> 440 137<227 541 752 1069>
VStem: 318 210<1279 1489> 463 190<0 190> 1120 201<1288 1489>
DStem2: 528 1489 318 1489 0.303487 -0.952836<0 665.049> 463 0 653 0 0.173648 0.984808<32.9932 446.86 618.418 667.856> 710 849 769 677 0.562199 0.827002<0 759.783>
LayerCount: 2
Fore
SplineSet
1321 1489 m 1xe8
 769 677 l 1
 752 577 l 1
 1093 577 l 1
 1069 440 l 1
 731 440 l 1
 653 0 l 1
 463 0 l 1xd8
 541 440 l 1
 203 440 l 1
 227 577 l 1
 569 577 l 1
 583 657 l 1
 318 1489 l 1
 528 1489 l 1
 710 849 l 1
 1120 1489 l 1
 1321 1489 l 1xe8
EndSplineSet
EndChar

StartChar: brokenbar
Encoding: 166 166 105
Width: 780
VWidth: 2045
Flags: W
VStem: 239 168<-393 -225> 379 168<237 405> 442 168<758 926> 582 168<1388 1556>
DStem2: 239 -393 407 -393 0.173648 0.984808<29.1729 810.187 1197.94 1978.95>
LayerCount: 2
Fore
SplineSet
610 758 m 1x20
 442 758 l 1x20
 582 1556 l 1
 750 1556 l 1x10
 610 758 l 1x20
407 -393 m 1x80
 239 -393 l 1x80
 379 405 l 1
 547 405 l 1x40
 407 -393 l 1x80
EndSplineSet
EndChar

StartChar: section
Encoding: 167 167 106
Width: 1115
VWidth: 2045
Flags: W
HStem: -385 165<248.073 657.524> -326 193<148 252.756> 1267 195<1071.54 1168> 1353 165<647.538 1076.08>
VStem: 207 198<423.657 644.877> 344 199<1033.11 1260.63> 772 200<-117.222 104.074> 913 197<489.685 707.868>
DStem2: 556 369 494 192 0.948683 -0.316228<-155.943 206.105> 691 980 594 819 0.952624 -0.304151<-78.0221 280.956>
LayerCount: 2
Fore
SplineSet
594 819 m 1x09
 480 756 405 644 405 528 c 0
 405 432 468 397 556 369 c 2
 721 314 l 1
 760 339 913 430 913 603 c 0
 913 670 880 728 760 766 c 2
 594 819 l 1x09
972 57 m 0x12
 972 -121 828 -385 421 -385 c 0x92
 298 -385 210 -365 114 -326 c 1
 148 -133 l 1
 160 -133 l 1x42
 314 -218 422 -220 465 -220 c 0
 600 -220 772 -169 772 5 c 0
 772 87 719 125 620 154 c 2
 494 192 l 2
 348 237 207 292 207 465 c 0x8a
 207 547 239 733 468 858 c 1
 469 864 l 1
 419 896 344 957 344 1082 c 0
 344 1257 481 1518 896 1518 c 0x94
 991 1518 1090 1503 1203 1462 c 1
 1168 1267 l 1
 1159 1267 l 1x24
 1065 1320 978 1353 846 1353 c 0
 719 1353 543 1308 543 1130 c 0
 543 1052 590 1017 691 980 c 2
 822 942 l 2
 992 895 1110 825 1110 665 c 0x15
 1110 567 1066 393 848 278 c 1
 846 269 l 1
 902 237 972 178 972 57 c 0x12
EndSplineSet
EndChar

StartChar: dieresis
Encoding: 168 168 107
Width: 1115
VWidth: 2045
Flags: W
HStem: 1303 195<517 684 929 1096>
LayerCount: 2
Fore
SplineSet
1096 1303 m 1
 895 1303 l 1
 929 1498 l 1
 1130 1498 l 1
 1096 1303 l 1
684 1303 m 1
 483 1303 l 1
 517 1498 l 1
 718 1498 l 1
 684 1303 l 1
EndSplineSet
EndChar

StartChar: copyright
Encoding: 169 169 108
Width: 1898
VWidth: 2045
Flags: W
HStem: -210 110<688.065 1188.33> 180 146<896.04 1220.86> 888 181<1363.05 1430> 995 147<1005.34 1327.82> 1408 111<946.249 1438.92>
VStem: 186 120<280.253 772.469> 635 186<404.652 779.074> 1827 117<540.358 1025.44>
LayerCount: 2
Fore
SplineSet
1944 814 m 0xcf
 1944 273 1458 -210 913 -210 c 0
 449 -210 186 138 186 493 c 0
 186 1047 683 1519 1218 1519 c 0
 1687 1519 1944 1170 1944 814 c 0xcf
933 -100 m 0
 1403 -100 1827 322 1827 798 c 0
 1827 1107 1601 1408 1199 1408 c 0
 736 1408 306 999 306 512 c 0
 306 189 541 -100 933 -100 c 0
1160 995 m 0xdf
 889 995 821 707 821 557 c 0
 821 362 948 326 1042 326 c 0
 1172 326 1305 411 1332 433 c 1
 1349 433 l 1
 1318 255 l 1
 1177 200 1121 180 1014 180 c 0
 835 180 635 254 635 533 c 0
 635 827 814 1142 1183 1142 c 0xdf
 1299 1142 1397 1107 1461 1069 c 1
 1430 888 l 1
 1413 888 l 1xef
 1371 934 1268 995 1160 995 c 0xdf
EndSplineSet
EndChar

StartChar: ordfeminine
Encoding: 170 170 109
Width: 1007
VWidth: 2045
Flags: W
HStem: 541 154<456.526 704.363> 1365 154<486.73 899.227>
VStem: 255 177<720.119 933.31> 924 167<1184 1334.22>
DStem2: 802.768 541 968.768 541 0.173648 0.984808<53.1958 117.751 222.241 511.664 642.718 720.233>
LayerCount: 2
Fore
SplineSet
750 1519 m 0
 999 1519 1091 1425 1091 1274 c 0
 1091 1249 1088 1221 1083 1193 c 2
 973 565 l 1
 807 565 l 1
 823 657 l 1
 757 613 670 541 497 541 c 0
 358 541 255 631 255 779 c 0
 255 1124 594 1169 916 1184 c 1
 920 1207 924 1230 924 1252 c 0
 924 1315 890 1365 723 1365 c 0
 667 1365 580 1355 434 1303 c 1
 419 1303 l 1
 449 1474 l 1
 449 1474 635 1519 750 1519 c 0
583 695 m 0
 624 695 707 698 848 802 c 1
 891 1045 l 1
 738 1033 l 2
 610 1023 432 989 432 812 c 0
 432 748 467 695 583 695 c 0
EndSplineSet
EndChar

StartChar: guillemotleft
Encoding: 171 171 110
Width: 1170
VWidth: 2045
Flags: W
DStem2: 397 652 211 607 0.695717 -0.718316<0 405.29> 227 698 397 652 0.797548 0.603256<107.833 590.651> 841 652 663 610 0.702002 -0.712175<0 383.262> 678 695 841 652 0.802568 0.596561<105.166 560.368>
LayerCount: 2
Fore
SplineSet
1077 190 m 1
 663 610 l 1
 678 695 l 1
 1239 1112 l 1
 1206 924 l 1
 841 652 l 1
 1110 379 l 1
 1077 190 l 1
642 162 m 1
 211 607 l 1
 227 698 l 1
 814 1142 l 1
 780 946 l 1
 397 652 l 1
 676 358 l 1
 642 162 l 1
EndSplineSet
EndChar

StartChar: logicalnot
Encoding: 172 172 111
Width: 1486
VWidth: 2045
Flags: W
HStem: 601 160<291 1257>
VStem: 1161 171<57 228>
DStem2: 1161 57 1332 57 0.173648 0.984808<29.6938 552.406>
LayerCount: 2
Fore
SplineSet
1332 57 m 1
 1161 57 l 1
 1257 601 l 1
 263 601 l 1
 291 761 l 1
 1456 761 l 1
 1332 57 l 1
EndSplineSet
EndChar

StartChar: registered
Encoding: 174 174 113
Width: 1898
VWidth: 2045
Flags: W
HStem: -210 110<684.42 1189.01> 569 126<937 1036> 1004 126<991 1257.47> 1408 111<944.344 1442.69>
VStem: 187 119<283.258 773.168> 687 165<214 379> 1258 227<214 441> 1275 187<776.515 981.16> 1826 118<537.77 1023.31>
DStem2: 612.237 -210 777.237 -210 0.173648 0.984808<459.193 819.566 947.645 1261.33> 1209 615 1036 569 0.566965 -0.823742<0 358.102>
LayerCount: 2
Fore
SplineSet
1944 808 m 0xfc80
 1944 275 1459 -210 913 -210 c 0
 479 -210 187 99 187 502 c 0
 187 1033 672 1519 1218 1519 c 0
 1659 1519 1944 1206 1944 808 c 0xfc80
933 -100 m 0
 1406 -100 1826 324 1826 792 c 0
 1826 1150 1564 1408 1199 1408 c 0
 736 1408 306 998 306 515 c 0
 306 152 575 -100 933 -100 c 0
1462 932 m 0xfd80
 1462 805 1387 681 1209 615 c 1
 1485 214 l 1
 1258 214 l 1xfe80
 1036 569 l 1
 914 569 l 1
 852 214 l 1
 687 214 l 1
 848 1130 l 1
 1158 1130 l 2
 1253 1130 1462 1119 1462 932 c 0xfd80
1035 695 m 2
 1247 695 1275 832 1275 900 c 0xfd80
 1275 1004 1169 1004 1107 1004 c 2
 991 1004 l 1
 937 695 l 1
 1035 695 l 2
EndSplineSet
EndChar

StartChar: macron
Encoding: 175 175 114
Width: 1115
VWidth: 2045
Flags: W
HStem: 1658 130<300 1425>
LayerCount: 2
Fore
SplineSet
1425 1658 m 1
 277 1658 l 1
 300 1788 l 1
 1448 1788 l 1
 1425 1658 l 1
EndSplineSet
EndChar

StartChar: degree
Encoding: 176 176 115
Width: 961
VWidth: 2045
Flags: W
HStem: 755 151<515.963 782.55> 1362 151<577.798 845.756>
VStem: 295 159<967.331 1231.48> 908 161<1035.23 1299.91>
LayerCount: 2
Fore
SplineSet
295 1063 m 0
 295 1290 487 1513 749 1513 c 0
 949 1513 1069 1380 1069 1205 c 0
 1069 976 870 755 615 755 c 0
 429 755 295 879 295 1063 c 0
722 1362 m 0
 562 1362 454 1221 454 1091 c 0
 454 977 538 906 642 906 c 0
 781 906 908 1030 908 1178 c 0
 908 1287 832 1362 722 1362 c 0
EndSplineSet
EndChar

StartChar: plusminus
Encoding: 177 177 116
Width: 1486
VWidth: 2045
Flags: W
HStem: 159 158<218 718 884 1354> 739 158<320 792 986 1456>
VStem: 909 166<1236 1402>
DStem2: 690.14 159 856.14 159 0.173648 0.984808<189.263 588.876 778.164 1262.12>
LayerCount: 2
Fore
SplineSet
1354 159 m 1
 190 159 l 1
 218 317 l 1
 718 317 l 1
 792 739 l 1
 292 739 l 1
 320 897 l 1
 820 897 l 1
 909 1402 l 1
 1075 1402 l 1
 986 897 l 1
 1484 897 l 1
 1456 739 l 1
 958 739 l 1
 884 317 l 1
 1382 317 l 1
 1354 159 l 1
EndSplineSet
EndChar

StartChar: uni00B2
Encoding: 178 178 117
Width: 1007
VWidth: 2045
Flags: W
HStem: 565 145<497 966> 1371 148<517.874 814.939>
VStem: 838 187<1125.66 1346.29>
DStem2: 479 831 497 710 0.829019 0.55922<-52.7433 373.928>
LayerCount: 2
Fore
SplineSet
748 1519 m 0
 961 1519 1025 1404 1025 1294 c 0
 1025 1097 865 955 636 802 c 2
 497 710 l 1
 991 710 l 1
 966 565 l 1
 284 565 l 1
 310 717 l 1
 479 831 l 2
 640 940 838 1088 838 1259 c 0
 838 1331 787 1371 699 1371 c 0
 594 1371 480 1312 431 1278 c 1
 416 1278 l 1
 448 1458 l 1
 562 1504 683 1519 748 1519 c 0
EndSplineSet
EndChar

StartChar: uni00B3
Encoding: 179 179 118
Width: 1007
VWidth: 2045
Flags: W
HStem: 541 139<408.681 746.626> 600 175<320 394.114> 967 139<529 794.105> 1381 139<537.839 842.483>
VStem: 814 172<747.156 942.434> 862 181<1178.48 1358.64>
LayerCount: 2
Fore
SplineSet
654 1106 m 2xb8
 815 1106 862 1207 862 1275 c 0
 862 1325 836 1381 717 1381 c 0
 621 1381 497 1326 442 1282 c 1
 424 1282 l 1
 455 1458 l 1
 529 1485 641 1518 759 1520 c 0
 976 1520 1043 1406 1043 1314 c 0xb4
 1043 1210 965 1097 826 1054 c 1
 825 1047 l 1
 904 1030 986 979 986 871 c 0
 986 702 836 541 569 541 c 0xb8
 489 541 385 552 289 600 c 1
 320 775 l 1
 338 775 l 1x78
 369 739 466 680 590 680 c 0
 687 680 814 722 814 861 c 0
 814 943 750 967 644 967 c 2
 505 967 l 1
 529 1106 l 1
 654 1106 l 2xb8
EndSplineSet
EndChar

StartChar: acute
Encoding: 180 180 119
Width: 1115
VWidth: 2045
Flags: W
LayerCount: 2
Fore
SplineSet
1164 1675 m 1
 828 1302 l 1
 678 1302 l 1
 923 1675 l 1
 1164 1675 l 1
EndSplineSet
EndChar

StartChar: mu
Encoding: 181 181 120
Width: 1160
VWidth: 2045
Flags: W
HStem: -18 181<439.075 743.738> 0 21G<854 1028.53>
VStem: 64 188<-411 -223> 333 188<928 1116> 1036 186<930 1116>
DStem2: 64 -411 252 -411 0.173648 0.984808<32.6459 566.63 692.052 1550.51> 781.53 -411 952.53 -411 0.173648 0.984808<447.034 535.051 660.812 1547.99>
LayerCount: 2
Fore
SplineSet
605 163 m 0xb8
 695 163 783 183 887 275 c 1
 1036 1116 l 1
 1222 1116 l 1
 1025 0 l 1
 854 0 l 1x78
 874 116 l 1
 868 116 l 1
 730 -8 643 -18 573 -18 c 0
 476 -18 421 8 344 115 c 1
 252 -411 l 1
 64 -411 l 1
 333 1116 l 1
 521 1116 l 1
 372 275 l 1
 424 199 498 163 605 163 c 0xb8
EndSplineSet
EndChar

StartChar: paragraph
Encoding: 182 182 121
Width: 1115
VWidth: 2045
Flags: W
HStem: 1359 130<894 1082>
VStem: 451 139<-362 -223> 778 138<-362 -224>
DStem2: 451 -362 590 -362 0.173648 0.984808<24.1371 968.68> 778 -362 916 -362 0.173648 0.984808<23.9634 1747.64>
LayerCount: 2
Fore
SplineSet
234 952 m 0
 234 1156 352 1489 823 1489 c 2
 1243 1489 l 1
 916 -362 l 1
 778 -362 l 1
 1082 1359 l 1
 894 1359 l 1
 590 -362 l 1
 451 -362 l 1
 619 592 l 1
 384 599 234 730 234 952 c 0
EndSplineSet
EndChar

StartChar: periodcentered
Encoding: 183 183 122
Width: 722
VWidth: 2045
Flags: W
HStem: 831 285<439 629>
VStem: 389 240<831 1071> 439 240<876 1116>
LayerCount: 2
Fore
SplineSet
629 831 m 1xc0
 389 831 l 1xc0
 439 1116 l 1
 679 1116 l 1xa0
 629 831 l 1xc0
EndSplineSet
EndChar

StartChar: cedilla
Encoding: 184 184 123
Width: 1115
VWidth: 2045
Flags: W
HStem: -423 151<247.029 536.026> -399 160<248 388.064>
VStem: 614 141<-180.01 20>
LayerCount: 2
Fore
SplineSet
391 -272 m 0xa0
 604 -272 588 -124 614 20 c 1
 769 20 l 1
 768 6 759 -66 755 -89 c 0
 708 -356 517 -423 392 -423 c 0xa0
 321 -423 252 -409 220 -399 c 1
 248 -239 l 1
 257 -239 l 1x60
 288 -256 328 -272 391 -272 c 0xa0
EndSplineSet
EndChar

StartChar: uni0E01
Encoding: 3585 3585 124
Width: 1248
VWidth: 2045
Flags: W
HStem: 0 21G<250 366.534 985 1101.53> 764 112<498 611> 1142 112<616.6 973.487>
VStem: 250 113<0 113> 985 113<0 113> 1126 115<561.062 993.029>
DStem2: 250 0 363 0 0.173648 0.984808<19.6222 775.836> 985 0 1098 0 0.173648 0.984808<19.6222 839.92>
LayerCount: 2
Fore
SplineSet
1120 764 m 2
 1124 786 1126 808 1126 829 c 0
 1126 1009 989 1142 805 1142 c 256
 688 1142 503 1086 393 876 c 9
 630 876 l 1
 611 764 l 1
 498 764 l 17
 363 0 l 17
 250 0 l 9
 385 764 l 9
 245 764 l 1
 293 1039 556 1254 825 1254 c 256
 1066 1254 1241 1081 1241 849 c 0
 1241 821 1238 793 1233 764 c 2
 1098 0 l 1
 985 0 l 1
 1120 764 l 2
EndSplineSet
EndChar

StartChar: uni0E02
Encoding: 3586 3586 125
Width: 1173
VWidth: 2045
Flags: W
HStem: 0 112<368 480 593 932> 749 112<385.399 531.201> 1142 112<553.578 729.423>
VStem: 265 114<866.207 1009.52> 551 115<880.634 1025.52> 780 115<836.777 1092.82> 1133 113<1141 1254>
DStem2: 460.251 0 573.251 0 0.173648 0.984808<133.35 699.196> 912.251 0 1025 0 0.173648 0.984808<113.728 1273.28>
LayerCount: 2
Fore
SplineSet
265 911 m 0
 265 1051 417 1254 633 1254 c 0
 790 1254 895 1142 895 997 c 0
 895 752 700 719 661 498 c 2
 593 112 l 17
 932 112 l 25
 1133 1254 l 1
 1246 1254 l 1
 1025 0 l 9
 348 0 l 1
 368 112 l 1
 480 112 l 25
 548 498 l 2
 596 768 780 781 780 980 c 0
 780 1073 712 1142 613 1142 c 0
 592 1142 572 1139 551 1133 c 1
 601 1121 666 1068 666 979 c 0
 666 857 553 749 432 749 c 0
 331 749 265 821 265 911 c 0
451 861 m 0
 501 861 551 907 551 961 c 0
 551 999 524 1030 481 1030 c 0
 430 1030 379 984 379 932 c 0
 379 893 407 861 451 861 c 0
EndSplineSet
EndChar

StartChar: uni0E03
Encoding: 3587 3587 126
Width: 1248
VWidth: 2045
Flags: W
HStem: 0 112<441 554 667 1005> 633 113<389.853 536.669> 914 110<402.556 550.883> 1234 20G<505 590.157 795.096 847 1202.48 1319>
VStem: 240 144<753.129 963.119> 556 115<763.573 908.411> 862 116<846.761 1120.69> 1206 113<1141 1254>
DStem2: 534.251 0 647.251 0 0.173648 0.984808<133.35 702.936> 985.251 0 1098 0 0.173648 0.984808<113.728 1273.28>
LayerCount: 2
Fore
SplineSet
831 1254 m 1
 863 1242 978 1159 978 1012 c 0
 978 757 772 723 735 498 c 2
 667 112 l 1
 1005 112 l 1
 1206 1254 l 25
 1319 1254 l 17
 1098 0 l 1
 421 0 l 1
 441 112 l 1
 554 112 l 1
 622 498 l 2
 672 781 862 771 862 1001 c 0
 862 1084 825 1119 811 1124 c 1
 659 1039 l 1
 525 1130 l 17
 506 1126 411 1076 370 976 c 1
 425 1008 470 1024 506 1024 c 0
 605 1024 671 954 671 862 c 0
 671 738 557 633 437 633 c 0
 353 633 240 676 240 842 c 0
 240 1107 449 1226 561 1254 c 1
 682 1171 l 1
 831 1254 l 1
457 746 m 0
 511 746 556 792 556 845 c 0
 556 886 526 914 486 914 c 0
 435 914 384 869 384 814 c 0
 384 773 417 746 457 746 c 0
EndSplineSet
EndChar

StartChar: uni0E04
Encoding: 3588 3588 127
Width: 1301
VWidth: 2045
Flags: W
HStem: 0 21G<171 294.504 1018 1134.53> 547 115<698.481 847.421> 828 111<713.024 859.271> 1142 112<670.66 1017.79>
VStem: 865 114<681.989 823.767> 1018 113<0 113> 1161 114<698.745 999.235>
DStem2: 171 0 283.865 0 0.173648 0.984808<19.6222 102.535 314.073 989.34> 1018 0 1131 0 0.173648 0.984808<19.6222 854.009>
LayerCount: 2
Fore
SplineSet
979 779 m 0
 979 652 863 547 744 547 c 0
 655 547 616 601 607 615 c 9
 284 0 l 9
 171 0 l 17
 308 776 l 2
 355 1044 609 1254 872 1254 c 0
 1107 1254 1275 1087 1275 860 c 0
 1275 833 1273 805 1268 776 c 2
 1131 0 l 1
 1018 0 l 1
 1155 776 l 2
 1159 799 1161 821 1161 843 c 0
 1161 1021 1026 1142 852 1142 c 0
 657 1142 459 990 421 776 c 2
 335 290 l 17
 607 816 l 18
 629 854 703 939 814 939 c 0
 913 939 979 870 979 779 c 0
765 662 m 0
 812 662 865 701 865 759 c 0
 865 797 838 828 794 828 c 0
 740 828 694 779 694 730 c 0
 694 691 722 662 765 662 c 0
EndSplineSet
EndChar

StartChar: uni0E05
Encoding: 3589 3589 128
Width: 1301
VWidth: 2045
Flags: W
HStem: 0 21G<175 298.709 1018 1134.52> 526 111<698.279 843.955> 807 108<712.408 858.082> 1234 20G<587.5 667.417 1071.7 1146>
VStem: 864 115<655.836 801.049> 1018 113<0 113> 1185 115<848.364 1092.63>
DStem2: 175 0 287.865 0 0.173648 0.984808<19.6222 99.3367 314.073 1107.07> 640 1254 608 1130 0.810187 -0.586172<27.366 256.221> 847 1103 825 973 0.864475 0.502676<0 246.364> 1018 0 1131 0 0.173648 0.984808<19.6222 984.601>
LayerCount: 2
Fore
SplineSet
979 754 m 0
 979 631 865 526 745 526 c 0
 651 526 620 581 605 592 c 9
 288 0 l 1
 175 0 l 9
 338 927 l 2
 373 1123 535 1226 640 1254 c 9
 847 1103 l 1
 1106 1254 l 17
 1186 1230 1300 1145 1300 989 c 0
 1300 970 1298 949 1294 927 c 2
 1131 0 l 1
 1018 0 l 1
 1181 927 l 2
 1184 943 1185 957 1185 971 c 0
 1185 1064 1126 1113 1095 1130 c 9
 825 973 l 1
 608 1130 l 17
 562 1109 472 1048 451 927 c 2
 339 290 l 17
 606 791 l 18
 627 832 702 915 813 915 c 0
 910 915 979 847 979 754 c 0
764 637 m 0
 819 637 864 686 864 738 c 0
 864 779 834 807 794 807 c 0
 740 807 694 758 694 707 c 0
 694 666 724 637 764 637 c 0
EndSplineSet
EndChar

StartChar: uni0E06
Encoding: 3590 3590 129
Width: 1519
VWidth: 2045
Flags: W
HStem: 0 113<451.979 597.611> 281 110<466.062 614.52> 633 113<436.698 585.013> 914 110<452.78 598.877> 1234 20G<554 638.916 843.855 893.5 1452.48 1569>
VStem: 289 144<753.058 963.939> 332 114<118.808 260.614> 604 115<763.791 908.804> 912 115<843.237 1118.53> 1456 113<1141 1254>
DStem2: 582.23 0 694.988 0 0.173648 0.984808<378.754 703.516> 753 329 733 218 0.917244 -0.398325<25.8692 546.893> 1235.25 0 1348 0 0.173648 0.984808<113.728 1273.28>
LayerCount: 2
Fore
SplineSet
506 746 m 0xfdc0
 560 746 604 792 604 845 c 0
 604 883 579 914 535 914 c 0
 474 914 433 859 433 814 c 0
 433 772 465 746 506 746 c 0xfdc0
332 161 m 0xfbc0
 332 284 445 391 566 391 c 0
 597 391 624 385 648 373 c 9
 670 498 l 2
 720 779 912 773 912 999 c 0
 912 1083 874 1119 860 1124 c 1
 707 1039 l 1
 574 1130 l 17
 555 1126 460 1076 419 976 c 1
 474 1008 519 1024 555 1024 c 0
 651 1024 719 954 719 862 c 0
 719 739 605 633 486 633 c 0
 402 633 289 676 289 842 c 0xfdc0
 289 1107 498 1226 610 1254 c 1
 730 1171 l 1
 880 1254 l 1
 907 1244 1027 1162 1027 1012 c 0
 1027 759 822 723 783 498 c 2
 753 329 l 25
 1255 112 l 9
 1456 1254 l 1
 1569 1254 l 1
 1348 0 l 1
 1235 0 l 1
 733 218 l 17
 700 27 552 0 498 0 c 0
 398 0 332 70 332 161 c 0xfbc0
517 113 m 0
 576 113 618 166 618 214 c 0
 618 255 587 281 547 281 c 0
 494 281 446 235 446 182 c 0xfbc0
 446 142 477 113 517 113 c 0
EndSplineSet
EndChar

StartChar: uni0E07
Encoding: 3591 3591 130
Width: 977
VWidth: 2045
Flags: W
HStem: 861 112<713.132 844.21> 1142 112<725.588 873.616>
VStem: 592 115<978.542 1123.39> 878 114<990.945 1136.47>
DStem2: 290 704 194 625 0.621633 -0.783308<2.20454 692.179> 689.788 0 803 0 0.173648 0.984808<162.468 892.598>
LayerCount: 2
Fore
SplineSet
827 1254 m 0
 700 1254 592 1142 592 1021 c 0
 592 927 663 861 757 861 c 0
 788 861 817 867 845 879 c 1
 718 160 l 9
 290 704 l 1
 194 625 l 1
 690 0 l 17
 803 0 l 1
 989 1057 l 2
 991 1069 992 1081 992 1093 c 0
 992 1188 922 1254 827 1254 c 0
878 1071 m 0
 878 1027 836 973 779 973 c 0
 735 973 707 1005 707 1044 c 0
 707 1100 760 1142 808 1142 c 0
 851 1142 878 1110 878 1071 c 0
EndSplineSet
EndChar

StartChar: uni0E08
Encoding: 3592 3592 131
Width: 1202
VWidth: 2045
Flags: W
HStem: 0 21G<800.502 921.639> 523 111<614.353 762.242> 801 112<628.258 776.79> 1142 112<586.753 940.917>
VStem: 209 113<764 877> 497 113<638.517 782.821> 801 113<281 562> 1090 114<642.961 993.7>
DStem2: 909 281 914 0 0.356813 0.934176<0 574.01>
LayerCount: 2
Fore
SplineSet
497 684 m 0
 497 808 612 913 732 913 c 0
 833 913 894 837 896 755 c 2
 909 281 l 25
 1064 686 l 2
 1074 713 1090 772 1090 829 c 0
 1090 1007 957 1142 769 1142 c 256
 559 1142 359 973 322 764 c 9
 209 764 l 17
 254 1020 505 1254 789 1254 c 256
 1043 1254 1204 1067 1204 846 c 0
 1204 777 1189 718 1168 665 c 10
 914 0 l 1
 801 0 l 1
 787 562 l 17
 749 536 707 523 662 523 c 0
 564 523 497 592 497 684 c 0
680 634 m 0
 738 634 781 685 781 733 c 0
 781 771 754 801 711 801 c 0
 655 801 610 754 610 703 c 0
 610 665 637 634 680 634 c 0
EndSplineSet
EndChar

StartChar: uni0E09
Encoding: 3593 3593 132
Width: 1293
VWidth: 2045
Flags: W
HStem: 0 113<999.05 1144.99> 281 103<1017 1056> 396 112<396.42 528.891> 674 112<411.648 557.98> 1142 112<621.065 979.136>
VStem: 276 115<512.906 654.699> 562 115<441.99 668.616> 879 115<118.149 209.313> 1129 114<550.25 994.492> 1164 117<132.392 277.077>
DStem2: 457 0 569.606 0 0.173648 0.984808<148.513 420.387> 592 127 570 0 0.863705 0.503997<0 277.475> 988.29 0 1101.29 0 0.173648 0.984808<397.661 840.809>
LayerCount: 2
Fore
SplineSet
276 558 m 0xff40
 276 680 391 785 511 786 c 0
 618 786 677 709 677 624 c 0
 677 613 676 602 674 591 c 2
 592 127 l 1
 1017 375 l 2
 1029 381 1042 384 1056 384 c 9
 1123 764 l 2
 1127 786 1129 808 1129 830 c 0
 1129 1009 995 1142 806 1142 c 264
 617 1142 453 1007 390 864 c 9
 288 896 l 17
 369 1080 581 1254 826 1254 c 272
 1083 1254 1243 1068 1243 846 c 0xff80
 1243 819 1241 792 1236 764 c 2
 1169 384 l 17
 1195 376 1281 337 1281 233 c 0
 1281 108 1168 0 1046 0 c 0
 941 0 879 76 879 162 c 0
 879 169 879 176 880 184 c 1
 570 0 l 1
 457 0 l 1
 530 414 l 17
 503 402 473 396 442 396 c 0
 343 396 276 467 276 558 c 0xff40
464 508 m 0
 516 508 562 553 562 605 c 0
 562 644 536 674 493 674 c 0
 437 674 391 625 391 575 c 0
 391 534 423 508 464 508 c 0
1064 113 m 0
 1119 113 1164 162 1164 213 c 0xff40
 1164 252 1137 281 1094 281 c 0
 1040 281 994 235 994 182 c 0
 994 141 1024 113 1064 113 c 0
EndSplineSet
EndChar

StartChar: uni0E0A
Encoding: 3594 3594 133
Width: 1192
VWidth: 2045
Flags: W
HStem: 0 112<368 480 593 932> 749 112<385.399 531.201> 1142 112<553.578 728.905>
VStem: 265 114<866.207 1009.52> 551 115<880.634 1025.52> 780 116<856.274 1093.29> 1062 114<606.016 934.762> 1280 112<1314.46 1447>
DStem2: 460.251 0 573.251 0 0.173648 0.984808<133.35 745.169> 912.251 0 1025 0 0.173648 0.984808<113.728 868.676>
LayerCount: 2
Fore
SplineSet
265 911 m 0
 265 1051 417 1254 633 1254 c 0
 790 1254 896 1141 896 998 c 0
 896 768 702 735 677 589 c 2
 593 112 l 1
 932 112 l 1
 1060 837 l 2
 1061 843 1062 849 1062 856 c 0
 1062 907 1024 949 966 949 c 1
 986 1060 l 1
 1122 1132 1248 1268 1280 1447 c 9
 1392 1447 l 17
 1347 1190 1157 1047 1113 1018 c 1
 1128 1003 1176 959 1176 876 c 0
 1176 864 1175 851 1173 837 c 2
 1025 0 l 1
 348 0 l 1
 368 112 l 1
 480 112 l 1
 564 589 l 2
 602 804 780 804 780 981 c 0
 780 1075 709 1142 613 1142 c 0
 592 1142 572 1139 551 1133 c 1
 601 1121 666 1068 666 979 c 0
 666 857 553 749 432 749 c 0
 331 749 265 821 265 911 c 0
451 861 m 0
 501 861 551 907 551 961 c 0
 551 999 524 1030 481 1030 c 0
 430 1030 379 984 379 932 c 0
 379 893 407 861 451 861 c 0
EndSplineSet
EndChar

StartChar: uni0E0B
Encoding: 3595 3595 134
Width: 1192
VWidth: 2045
Flags: W
HStem: 0 112<383 496 609 947> 633 113<331.848 480.912> 914 110<346.518 493.216> 1234 20G<419.5 533.675 737.096 800.5>
VStem: 187 141<751.337 966.702> 498 116<763.248 908.872> 816 112<847.446 1104.32> 1077 114<606.016 935.515> 1295 113<1314.46 1447>
DStem2: 476.251 0 589.251 0 0.173648 0.984808<133.35 712.675> 927.251 0 1040 0 0.173648 0.984808<113.728 868.676>
LayerCount: 2
Fore
SplineSet
614 863 m 0
 614 747 508 633 380 633 c 0
 259 633 187 742 187 868 c 0
 187 1050 334 1214 505 1254 c 1
 624 1171 l 1
 773 1254 l 1
 828 1228 928 1152 928 1006 c 0
 928 742 715 728 686 548 c 2
 609 112 l 1
 947 112 l 1
 1075 837 l 2
 1076 843 1077 849 1077 856 c 0
 1077 907 1039 949 981 949 c 1
 1001 1060 l 1
 1137 1132 1264 1268 1295 1447 c 9
 1408 1447 l 17
 1363 1190 1172 1047 1128 1018 c 1
 1170 975 1191 930 1191 876 c 0
 1191 863 1190 850 1188 837 c 2
 1040 0 l 1
 363 0 l 1
 383 112 l 1
 496 112 l 1
 573 548 l 2
 615 790 816 778 816 986 c 0
 816 1066 771 1109 753 1124 c 1
 601 1039 l 1
 467 1130 l 17
 411 1106 349 1051 322 985 c 1
 361 1011 404 1024 449 1024 c 0
 547 1024 614 955 614 863 c 0
399 746 m 0
 453 746 498 792 498 845 c 0
 498 886 468 914 428 914 c 0
 374 914 328 865 328 814 c 0
 328 775 355 746 399 746 c 0
EndSplineSet
EndChar

StartChar: uni0E0C
Encoding: 3596 3596 135
Width: 1863
VWidth: 2045
Flags: W
HStem: 0 112<400.517 551.566 912.738 1060> 279 112<429.931 563.301 927.489 1057.48> 1142 112<617.285 973.826>
VStem: 282 114<117.871 259.505> 569 116<130.498 274.26> 793 114<116.715 260.326> 1126 114<548.898 992.19> 1785 113<1141 1254>
DStem2: 250.44 0 363.23 0 0.173648 0.984808<398.34 775.759> 985.232 0 1098.46 0 0.173648 0.984808<392.228 839.879> 1160 349 1191 199 0.884242 -0.467029<97.4659 481.769> 1564.14 0 1677 0 0.173648 0.984808<125.913 1273.3>
LayerCount: 2
Fore
SplineSet
1026 391 m 0
 907 391 793 285 793 162 c 0
 793 70 860 0 958 0 c 0
 1064 0 1170 78 1191 199 c 9
 1564 0 l 1
 1677 0 l 9
 1898 1254 l 9
 1785 1254 l 17
 1586 124 l 25
 1160 349 l 9
 1233 764 l 2
 1238 793 1240 820 1240 848 c 0
 1240 1078 1068 1254 825 1254 c 256
 557 1254 293 1040 245 764 c 1
 385 764 l 17
 285 196 l 18
 283 184 282 172 282 161 c 0
 282 67 352 -0 448 0 c 0
 579 0 685 116 685 230 c 0
 685 320 619 391 517 391 c 0
 486 391 457 385 429 373 c 9
 498 764 l 9
 611 764 l 1
 630 876 l 1
 393 876 l 17
 507 1087 687 1142 805 1142 c 256
 989 1142 1126 1009 1126 829 c 0
 1126 808 1124 786 1120 764 c 2
 1054 390 l 17
 1046 391 1037 391 1026 391 c 0
1078 210 m 0
 1078 162 1037 112 979 112 c 0
 936 112 907 142 907 181 c 0
 907 235 958 279 1008 279 c 0
 1051 279 1078 248 1078 210 c 0
569 209 m 0
 569 151 515 112 468 112 c 0
 425 112 396 142 396 181 c 0
 396 235 447 279 497 279 c 0
 541 279 569 247 569 209 c 0
EndSplineSet
EndChar

StartChar: uni0E0D
Encoding: 3597 3597 136
Width: 1864
VWidth: 2045
Flags: W
HStem: -548 149<971.191 1230.79> -231 112<984.397 1130> 0 112<402.35 549.889 1118 1585> 279 112<430.954 563.498> 764 112<499 611> 1142 112<622.488 974.375>
VStem: 283 114<116.708 259.505> 569 116<130.833 274.475> 849 116<-394.298 -251.521> 985 693<0 693> 1136 116<-380.609 -235.399 621.062 973.326> 1786 113<1141 1254>
DStem2: 154.813 -548 267.603 -548 0.173648 0.984808<954.794 1332.21> 888.373 -548 1001.62 -548 0.173648 0.984808<689.847 1396.37> 1468.18 -548 1581.18 -548 0.173648 0.984808<280.176 453.896 670.258 1829.81>
LayerCount: 2
Fore
SplineSet
1252 -287 m 0xffb0
 1252 -343 1234 -397 1153 -450 c 1
 1317 -438 1512 -301 1547 -101 c 9
 1660 -101 l 17
 1617 -347 1378 -548 1129 -548 c 0
 911 -548 849 -442 849 -357 c 0
 849 -247 946 -119 1085 -119 c 0
 1182 -119 1252 -190 1252 -287 c 0xffb0
1036 -399 m 0
 1090 -399 1136 -352 1136 -301 c 0
 1136 -263 1109 -231 1065 -231 c 0
 1009 -231 965 -283 965 -331 c 0
 965 -373 997 -399 1036 -399 c 0
685 229 m 0
 685 108 573 0 448 0 c 0
 347 0 283 71 283 161 c 0
 283 172 284 184 286 196 c 2
 386 764 l 1
 245 764 l 1
 292 1034 553 1254 825 1254 c 256
 1066 1254 1241 1082 1241 849 c 0
 1241 822 1238 793 1233 764 c 2
 1118 112 l 1
 1585 112 l 1
 1786 1254 l 1
 1899 1254 l 1
 1678 0 l 17
 985 0 l 1xffd0
 1120 764 l 2
 1124 786 1126 808 1126 829 c 0
 1126 1007 993 1142 805 1142 c 256
 687 1142 508 1087 394 876 c 1
 630 876 l 1
 611 764 l 1
 499 764 l 1
 430 373 l 1
 459 385 488 391 518 391 c 0
 618 391 685 321 685 229 c 0
469 112 m 0
 523 112 569 159 569 210 c 0
 569 252 537 279 498 279 c 0
 448 279 397 235 397 181 c 0
 397 139 428 112 469 112 c 0
EndSplineSet
Substitution2: "Thai Descender Removal Single Substitution" uni0E0D.descless
EndChar

StartChar: uni0E0E
Encoding: 3598 3598 137
Width: 1373
VWidth: 2045
Flags: W
HStem: -541 112<505.598 655.927> -261 111<522.801 670.008> 0 112<247.984 394.219> 279 112<262.457 408.735> 764 112<492 513 626 739> 1142 112<720.501 1072.49>
VStem: 128 114<118.472 259.922> 387 115<-424.094 -281.1> 1225 115<685.744 991.587>
DStem2: 272.963 -597 386.173 -597 0.173648 0.984808<984.964 1382.01> 978.561 -597 1091.85 -597 0.173648 0.984808<221.363 1446.16>
AnchorPoint: "BelowBase" 1034 -625 basechar 0
LayerCount: 2
Fore
SplineSet
128 161 m 0
 128 284 241 391 362 391 c 0
 393 391 421 385 444 373 c 9
 513 764 l 9
 344 764 l 1
 391 1034 652 1254 924 1254 c 256
 1165 1254 1340 1081 1340 849 c 0
 1340 821 1337 793 1332 764 c 2
 1122 -426 l 17
 919 -597 l 17
 774 -424 l 17
 705 -483 l 2
 658 -522 608 -541 554 -541 c 0
 454 -541 387 -470 387 -379 c 0
 387 -256 501 -150 624 -150 c 0
 678 -150 721 -169 754 -207 c 2
 802 -266 l 9
 895 -187 l 1
 962 -266 l 1
 869 -344 l 25
 947 -438 l 9
 1017 -379 l 9
 1219 764 l 2
 1223 786 1225 808 1225 829 c 0
 1225 1009 1088 1142 904 1142 c 256
 788 1142 599 1085 492 876 c 9
 758 876 l 1
 739 764 l 1
 626 764 l 17
 526 196 l 2
 506 87 404 0 294 0 c 0
 194 0 128 70 128 161 c 0
574 -429 m 0
 630 -429 675 -380 675 -331 c 0
 675 -294 649 -261 604 -261 c 0
 548 -261 502 -311 502 -362 c 0
 502 -403 533 -429 574 -429 c 0
314 112 m 0
 368 112 413 158 413 211 c 0
 413 251 383 279 343 279 c 0
 293 279 242 235 242 181 c 0
 242 139 273 112 314 112 c 0
EndSplineSet
EndChar

StartChar: uni0E0F
Encoding: 3599 3599 138
Width: 1373
VWidth: 2045
Flags: W
HStem: -571 112<260.062 408.711> -292 112<275.293 421.99> 0 112<247.984 394.219> 279 112<262.457 408.735> 764 112<492 513 626 739> 1142 112<720.501 1072.49>
VStem: 140 115<-453.061 -311.031 114.715 266.096> 1225 115<562.305 993.029>
DStem2: 271.729 -604 384.938 -604 0.173648 0.984808<992.072 1389.11> 977.737 -604 1090.67 -604 0.173648 0.984808<220.348 1453.2>
AnchorPoint: "BelowBase" 988 -661 basechar 0
LayerCount: 2
Fore
SplineSet
140 -410 m 0
 140 -286 255 -180 374 -180 c 0
 429 -180 472 -199 504 -237 c 2
 555 -296 l 9
 648 -218 l 1
 713 -296 l 1
 620 -375 l 25
 679 -447 l 1
 835 -314 l 25
 945 -447 l 9
 1016 -387 l 9
 1219 764 l 2
 1223 786 1225 808 1225 829 c 0
 1225 1009 1088 1142 904 1142 c 256
 788 1142 599 1085 492 876 c 9
 758 876 l 1
 739 764 l 1
 626 764 l 17
 526 196 l 2
 506 87 404 0 294 0 c 0
 194 0 128 70 128 161 c 0
 128 284 241 391 362 391 c 0
 393 391 421 385 444 373 c 9
 513 764 l 9
 344 764 l 1
 391 1034 652 1254 924 1254 c 256
 1165 1254 1340 1081 1340 849 c 0
 1340 821 1337 793 1332 764 c 2
 1121 -432 l 17
 917 -604 l 17
 807 -473 l 25
 651 -604 l 1
 527 -455 l 17
 455 -514 l 2
 410 -552 360 -571 305 -571 c 0
 207 -571 140 -502 140 -410 c 0
326 -459 m 0
 379 -459 426 -414 426 -361 c 0
 426 -320 396 -292 356 -292 c 0
 300 -292 255 -342 255 -392 c 0
 255 -433 286 -459 326 -459 c 0
314 112 m 0
 368 112 413 158 413 211 c 0
 413 251 383 279 343 279 c 0
 293 279 242 235 242 181 c 0
 242 139 273 112 314 112 c 0
EndSplineSet
EndChar

StartChar: uni0E10
Encoding: 3600 3600 139
Width: 1192
VWidth: 2045
Flags: W
HStem: -733 112<62.0921 210.744> -453 112<73.5018 224.94 700.245 838.141> -187 112<716.803 865.869> 0 21G<705.225 820.888> 296 112<494.707 645.224> 574 112<509.709 657.925> 764 112<401 940.198> 1142 112<626.711 983.466>
VStem: -55 111<-614.287 -472.052> 377 114<412.13 556.84> 583 115<-350.284 -205.679> 871 115<-334.052 -191.955> 953 116<539.734 751.055>
DStem2: 805 266 813 0 0.366887 0.930266<0 428.199>
LayerCount: 2
Fore
SplineSet
799 -187 m 0xfff0
 750 -187 698 -230 698 -285 c 0
 698 -323 725 -355 769 -355 c 0
 828 -355 871 -301 871 -256 c 0
 871 -218 843 -187 799 -187 c 0xfff0
329 -616 m 0
129 -621 m 0
 181 -621 229 -576 229 -520 c 0
 229 -479 198 -453 158 -453 c 0
 108 -453 56 -496 56 -549 c 0
 56 -588 84 -621 129 -621 c 0
583 -305 m 0
 583 -189 690 -75 821 -75 c 0
 921 -75 986 -146 986 -237 c 0
 986 -248 985 -260 983 -272 c 2
 926 -595 l 1
 722 -766 l 17
 611 -634 l 25
 457 -766 l 1
 330 -616 l 17
 259 -675 l 2
 213 -714 164 -733 110 -733 c 0
 14 -733 -55 -664 -55 -571 c 0
 -55 -457 51 -341 180 -341 c 0
 233 -341 276 -360 308 -399 c 2
 358 -459 l 9
 451 -379 l 1
 517 -459 l 1
 423 -538 l 25
 485 -607 l 1
 640 -476 l 25
 750 -607 l 9
 821 -548 l 1
 839 -449 l 17
 810 -461 781 -467 750 -467 c 0
 650 -467 583 -396 583 -305 c 0
377 457 m 0
 377 574 485 686 612 686 c 0
 686 686 767 646 778 529 c 2
 805 266 l 17
 946 631 l 17
 948 634 953 646 953 669 c 0
 953 723 919 764 859 764 c 2
 252 764 l 1
 297 1019 546 1254 832 1254 c 256
 1031 1254 1162 1143 1217 1006 c 9
 1111 949 l 17
 1042 1122 882 1142 812 1142 c 256
 628 1142 469 1015 401 876 c 1
 878 876 l 2
 986 876 1069 802 1069 693 c 0xffe8
 1069 667 1064 638 1052 606 c 10
 813 0 l 1
 707 0 l 1
 677 338 l 17
 645 310 600 296 543 296 c 0
 444 296 377 367 377 457 c 0
561 408 m 0
 611 408 663 450 663 505 c 0
 663 547 630 574 590 574 c 0
 536 574 491 528 491 474 c 0
 491 435 520 408 561 408 c 0
EndSplineSet
Substitution2: "Thai Descender Removal Single Substitution" uni0E10.descless
EndChar

StartChar: uni0E11
Encoding: 3601 3601 140
Width: 1573
VWidth: 2045
Flags: W
HStem: 0 21G<534 658.375 1287 1403.53> 633 113<389.853 536.669> 914 110<402.556 550.549> 1142 112<1278.72 1454.81>
VStem: 240 144<753.129 963.119> 556 115<763.573 908.588> 862 116<846.391 1120.69> 1287 113<0 113> 1470 115<950.183 1128.15>
DStem2: 534.189 0 646.691 0 0.173648 0.984808<332.287 701.876> 701 308 647 0 0.494387 0.869242<0 1037.97> 1287 0 1400 0 0.173648 0.984808<19.6222 1062.59>
LayerCount: 2
Fore
SplineSet
457 746 m 0
 511 746 556 792 556 845 c 0
 556 886 526 914 486 914 c 0
 435 914 384 869 384 814 c 0
 384 773 417 746 457 746 c 0
831 1254 m 1
 863 1242 978 1159 978 1012 c 0
 978 756 772 721 735 498 c 2
 701 308 l 17
 1161 1115 l 2
 1185 1158 1269 1254 1394 1254 c 16
 1508 1254 1585 1172 1585 1068 c 0
 1585 1056 1584 1043 1582 1030 c 2
 1400 0 l 1
 1287 0 l 1
 1468 1027 l 18
 1469 1034 1470 1041 1470 1047 c 0
 1470 1101 1430 1142 1375 1142 c 8
 1311 1142 1271 1096 1255 1069 c 2
 647 0 l 1
 534 0 l 1
 622 498 l 2
 672 781 862 771 862 1001 c 0
 862 1084 825 1119 811 1124 c 1
 659 1039 l 1
 525 1130 l 17
 506 1126 411 1076 370 976 c 1
 425 1008 470 1024 506 1024 c 0
 603 1024 671 955 671 862 c 0
 671 738 557 633 437 633 c 0
 353 633 240 676 240 842 c 0
 240 1107 449 1226 561 1254 c 1
 682 1171 l 1
 831 1254 l 1
EndSplineSet
EndChar

StartChar: uni0E12
Encoding: 3602 3602 141
Width: 1916
VWidth: 2045
Flags: W
HStem: 0 112<950.454 1097.71> 279 112<962.281 1095.77> 820 112<704.849 852.171> 1234 20G<563 643.536 1074.71 1151.5 1835.48 1951>
VStem: 572 115<656.547 801.648> 831 114<116.076 260.229> 858 115<670.686 815.108> 1191 114<851.291 1087.98> 1839 112<1142 1254>
DStem2: 149 0 261.788 0 0.173648 0.984808<182.054 1107.18> 290 160 262 0 0.722541 0.691328<0 559.451> 614 1254 583 1130 0.828186 -0.560453<22.182 269.314> 837 1103 815 973 0.875891 0.482509<0 262.65> 1023.23 0 1136.46 0 0.173648 0.984808<392.552 983.796> 1198 349 1229 199 0.891178 -0.453654<95.6746 495.973> 1618.14 0 1730 0 0.173648 0.984808<125.913 1273.3>
LayerCount: 2
Fore
SplineSet
757 652 m 0xfb80
 817 652 858 706 858 750 c 0
 858 788 831 820 787 820 c 0
 741 820 687 780 687 720 c 0
 687 678 718 652 757 652 c 0xfb80
572 703 m 0
 572 817 677 932 806 932 c 0
 907 932 973 860 973 770 c 0xfb80
 973 710 944 653 887 598 c 2
 262 0 l 17
 149 0 l 9
 312 927 l 2
 347 1123 512 1226 614 1254 c 9
 837 1103 l 1
 1111 1254 l 17
 1192 1230 1305 1146 1305 990 c 0
 1305 971 1304 950 1300 929 c 2
 1198 349 l 17
 1640 124 l 25
 1839 1254 l 9
 1951 1254 l 17
 1730 0 l 17
 1618 0 l 1
 1229 199 l 17
 1208 78 1102 0 996 0 c 0
 897 0 831 70 831 161 c 0xfd80
 831 284 944 391 1066 391 c 0
 1074 391 1083 391 1092 390 c 9
 1187 929 l 2
 1190 944 1191 957 1191 970 c 0
 1191 1064 1130 1113 1100 1130 c 9
 815 973 l 1
 583 1130 l 17
 534 1108 447 1049 425 927 c 2
 290 160 l 25
 694 547 l 1
 614 564 572 631 572 703 c 0
1016 112 m 0
 1068 112 1116 157 1116 210 c 0
 1116 249 1088 279 1045 279 c 0
 985 279 945 227 945 180 c 0xfd80
 945 141 972 112 1016 112 c 0
EndSplineSet
EndChar

StartChar: uni0E13
Encoding: 3603 3603 142
Width: 1898
VWidth: 2045
Flags: W
HStem: 0 112<401.817 551.252 1527.73 1675.89> 279 112<429.954 563.205> 764 112<498 611> 1142 112<616.867 973.487>
VStem: 282 114<116.708 259.505> 569 115<129.884 273.862> 1126 115<558.68 993.029> 1407 115<118.333 172> 1694 116<129.528 273.518> 1739 113<1141 1254>
DStem2: 250.44 0 363.23 0 0.173648 0.984808<398.34 775.759> 985 0 1097.9 0 0.173648 0.984808<152.626 839.92> 1121 131 1098 0 0.874256 0.485464<0 270.816> 1517.64 0 1630.64 0 0.173648 0.984808<395.254 1273.39>
LayerCount: 2
Fore
SplineSet
1810 230 m 0xff80
 1810 113 1701 0 1574 0 c 0
 1472 0 1407 72 1407 157 c 0
 1407 162 1408 167 1408 172 c 9
 1098 0 l 1
 985 0 l 9
 1120 764 l 2
 1124 786 1126 808 1126 829 c 0
 1126 1009 989 1142 805 1142 c 256
 686 1142 507 1087 393 876 c 9
 630 876 l 1
 611 764 l 1
 498 764 l 17
 429 373 l 17
 458 385 487 391 517 391 c 0
 619 391 684 319 684 229 c 0
 684 114 578 0 448 0 c 0
 347 0 282 71 282 161 c 0
 282 172 283 184 285 196 c 10
 385 764 l 9
 245 764 l 1
 293 1039 556 1254 825 1254 c 256
 1066 1254 1241 1081 1241 849 c 0
 1241 821 1238 793 1233 764 c 2
 1121 131 l 25
 1537 362 l 2
 1552 371 1568 377 1585 382 c 9
 1739 1254 l 9
 1852 1254 l 17xff40
 1698 382 l 17
 1744 369 1810 319 1810 230 c 0xff80
1624 279 m 0
 1565 279 1522 227 1522 181 c 0
 1522 139 1555 112 1595 112 c 0
 1649 112 1694 158 1694 211 c 0xff80
 1694 251 1664 279 1624 279 c 0
468 112 m 0
 515 112 569 151 569 209 c 0
 569 248 540 279 497 279 c 0
 447 279 396 235 396 181 c 0
 396 139 427 112 468 112 c 0
EndSplineSet
EndChar

StartChar: uni0E14
Encoding: 3604 3604 143
Width: 1301
VWidth: 2045
Flags: W
HStem: 0 21G<165 298.334 1012 1128.53> 820 112<704.849 852.171> 1142 112<669.524 1011.01>
VStem: 572 115<656.918 801.254> 858 115<671.358 815.145> 1012 113<0 113> 1155 115<699.278 1000.51>
DStem2: 165 0 277.788 0 0.173648 0.984808<182.054 995.012> 306 160 278 0 0.712946 0.701219<0 547.995> 1012 0 1125 0 0.173648 0.984808<19.6222 854.009>
LayerCount: 2
Fore
SplineSet
572 702 m 0
 572 816 677 932 806 932 c 0
 907 932 973 857 973 772 c 0
 973 742 965 675 886 598 c 2
 278 0 l 1
 165 0 l 1
 302 776 l 2
 348 1040 599 1254 865 1254 c 0
 1098 1254 1270 1089 1270 861 c 0
 1270 833 1267 805 1262 776 c 2
 1125 0 l 1
 1012 0 l 1
 1149 776 l 2
 1153 799 1155 821 1155 843 c 0
 1155 1021 1020 1142 846 1142 c 0
 653 1142 451 990 415 776 c 2
 306 160 l 1
 694 547 l 1
 618 564 572 626 572 702 c 0
757 652 m 0
 817 652 858 706 858 750 c 0
 858 788 831 820 787 820 c 0
 741 820 687 780 687 720 c 0
 687 678 718 652 757 652 c 0
EndSplineSet
EndChar

StartChar: uni0E15
Encoding: 3605 3605 144
Width: 1301
VWidth: 2045
Flags: W
HStem: 0 21G<165 298.368 1008 1124.52> 820 112<704.849 852.171> 1234 20G<577.5 657.417 1061.7 1136>
VStem: 572 115<656.547 801.648> 858 115<670.059 815.108> 1008 113<0 113> 1175 115<848.364 1092.63>
DStem2: 165 0 277.788 0 0.173648 0.984808<182.054 1107.07> 306 160 278 0 0.713521 0.700633<0 547.991> 630 1254 598 1130 0.810187 -0.586172<27.366 256.221> 837 1103 815 973 0.864475 0.502676<0 246.364> 1008 0 1121 0 0.173648 0.984808<19.6222 984.601>
LayerCount: 2
Fore
SplineSet
572 703 m 0
 572 817 677 932 806 932 c 0
 907 932 973 860 973 770 c 0
 973 735 965 673 887 598 c 2
 278 0 l 17
 165 0 l 9
 328 927 l 2
 363 1123 525 1226 630 1254 c 9
 837 1103 l 1
 1096 1254 l 17
 1176 1230 1290 1145 1290 989 c 0
 1290 970 1288 949 1284 927 c 2
 1121 0 l 1
 1008 0 l 1
 1171 927 l 2
 1174 943 1175 957 1175 971 c 0
 1175 1064 1116 1113 1085 1130 c 9
 815 973 l 1
 598 1130 l 17
 552 1109 462 1048 441 927 c 2
 306 160 l 25
 694 547 l 1
 614 564 572 631 572 703 c 0
757 652 m 0
 817 652 858 706 858 750 c 0
 858 788 831 820 787 820 c 0
 741 820 687 780 687 720 c 0
 687 678 718 652 757 652 c 0
EndSplineSet
EndChar

StartChar: uni0E16
Encoding: 3606 3606 145
Width: 1248
VWidth: 2045
Flags: W
HStem: 0 112<401.817 551.252> 279 112<429.954 563.205> 764 112<498 611> 1142 112<616.6 973.487>
VStem: 282 114<116.708 259.505> 569 115<129.884 273.862> 985 113<0 113> 1126 115<687.408 991.587>
DStem2: 250.44 0 363.23 0 0.173648 0.984808<398.34 775.759> 985 0 1098 0 0.173648 0.984808<19.6222 839.92>
LayerCount: 2
Fore
SplineSet
497 279 m 0
 447 279 396 235 396 181 c 0
 396 139 427 112 468 112 c 0
 515 112 569 151 569 209 c 0
 569 248 540 279 497 279 c 0
684 229 m 0
 684 114 578 0 448 0 c 0
 347 0 282 71 282 161 c 0
 282 172 283 184 285 196 c 10
 385 764 l 9
 245 764 l 1
 293 1039 556 1254 825 1254 c 256
 1066 1254 1241 1081 1241 849 c 0
 1241 821 1238 793 1233 764 c 2
 1098 0 l 1
 985 0 l 1
 1120 764 l 2
 1124 786 1126 808 1126 829 c 0
 1126 1009 989 1142 805 1142 c 256
 688 1142 503 1086 393 876 c 9
 630 876 l 1
 611 764 l 1
 498 764 l 17
 429 373 l 17
 458 385 487 391 517 391 c 0
 619 391 684 319 684 229 c 0
EndSplineSet
EndChar

StartChar: uni0E17
Encoding: 3607 3607 146
Width: 1338
VWidth: 2045
Flags: W
HStem: 861 112<364.119 496.866> 1142 112<379.159 526.079 1069.97 1249.38>
VStem: 245 115<978.744 1122.91> 531 114<907.672 1136.16> 1079 113<0 113> 1262 115<950.183 1030 1050 1128.66>
DStem2: 343 0 455.691 0 0.173648 0.984808<332.32 892.561> 510 308 456 0 0.485087 0.874466<0 1028.79> 1079 0 1192 0 0.173648 0.984808<19.6222 1065.46>
LayerCount: 2
Fore
SplineSet
479 1254 m 0
 357 1254 245 1147 245 1022 c 0
 245 928 315 861 411 861 c 0
 442 861 471 867 498 879 c 1
 343 0 l 1
 456 0 l 1
 1049 1069 l 2
 1070 1108 1116 1142 1169 1142 c 16
 1223 1142 1262 1105 1262 1050 c 0
 1262 1042 1261 1035 1260 1027 c 10
 1079 0 l 1
 1192 0 l 1
 1374 1030 l 2
 1376 1043 1377 1056 1377 1069 c 0
 1377 1172 1304 1254 1188 1254 c 8
 1063 1254 976 1155 955 1115 c 2
 510 308 l 1
 642 1057 l 2
 644 1069 645 1081 645 1093 c 0
 645 1188 574 1254 479 1254 c 0
531 1071 m 0
 531 1027 488 973 430 973 c 0
 391 973 360 1001 360 1042 c 0
 360 1096 407 1142 459 1142 c 0
 503 1142 531 1110 531 1071 c 0
EndSplineSet
EndChar

StartChar: uni0E18
Encoding: 3608 3608 147
Width: 1120
VWidth: 2045
Flags: W
HStem: 0 112<224 337 450 840> 764 112<386 452 565 921.981> 1142 112<613.876 967.324>
VStem: 937 114<416.719 751.136>
DStem2: 317.251 0 430.251 0 0.173648 0.984808<133.35 775.792> 820.251 0 933 0 0.173648 0.984808<113.728 682.726>
LayerCount: 2
Fore
SplineSet
935 652 m 2
 936 659 937 666 937 673 c 0
 937 725 900 764 842 764 c 2
 565 764 l 17
 450 112 l 17
 840 112 l 25
 935 652 l 2
237 764 m 1
 284 1034 545 1254 817 1254 c 256
 1013 1254 1146 1143 1202 1009 c 9
 1095 953 l 17
 1051 1055 950 1142 797 1142 c 256
 634 1142 467 1041 386 876 c 9
 861 876 l 2
 978 876 1051 795 1051 691 c 0
 1051 679 1050 665 1048 652 c 2
 933 0 l 9
 204 0 l 1
 224 112 l 1
 337 112 l 25
 452 764 l 25
 237 764 l 1
EndSplineSet
EndChar

StartChar: uni0E19
Encoding: 3609 3609 148
Width: 1338
VWidth: 2045
Flags: W
HStem: 0 112<1017.46 1167.62> 861 112<372.928 505.307> 1142 112<387.145 534.503>
VStem: 253 115<979.028 1122.3> 539 114<907.711 1135.83> 899 114<117.971 194.743> 1185 115<130.663 273.979> 1230 113<1141 1254>
DStem2: 351 0 464.135 0 0.173648 0.984808<145.559 892.561> 486 124 464 0 0.916229 0.400656<0 409.998> 1008.64 0 1121.64 0 0.173648 0.984808<396.675 1273.39>
LayerCount: 2
Fore
SplineSet
1300 231 m 0xfe
 1300 106 1185 0 1064 0 c 16
 969 0 899 67 899 161 c 0
 899 172 900 184 902 196 c 9
 464 0 l 17
 351 0 l 1
 506 879 l 1
 477 867 448 861 417 861 c 0
 319 861 253 930 253 1022 c 0
 253 1146 363 1254 487 1254 c 0
 584 1254 653 1186 653 1092 c 0
 653 1081 652 1069 650 1057 c 2
 486 124 l 9
 1028 362 l 2
 1054 373 1070 380 1076 382 c 9
 1230 1254 l 9
 1343 1254 l 17xfd
 1189 382 l 17
 1237 369 1300 320 1300 231 c 0xfe
1115 279 m 0
 1056 279 1013 227 1013 181 c 0
 1013 139 1046 112 1086 112 c 0
 1140 112 1185 158 1185 211 c 0xfe
 1185 251 1155 279 1115 279 c 0
439 973 m 0
 489 973 539 1019 539 1071 c 0
 539 1110 512 1142 468 1142 c 0
 418 1142 368 1098 368 1043 c 0
 368 1005 395 973 439 973 c 0
EndSplineSet
EndChar

StartChar: uni0E1A
Encoding: 3610 3610 149
Width: 1391
VWidth: 2045
Flags: W
HStem: 0 112<297 410 523 1121> 861 112<410.233 543.639> 1142 112<425.168 571.938>
VStem: 292 114<978.871 1123.02> 578 114<905.874 1136.03> 1322 113<1141 1254>
DStem2: 390.251 0 503.251 0 0.173648 0.984808<133.35 892.518> 1101.25 0 1214 0 0.173648 0.984808<113.728 1273.28>
LayerCount: 2
Fore
SplineSet
292 1022 m 0
 292 1152 409 1254 527 1254 c 0
 624 1254 692 1185 692 1093 c 0
 692 1081 691 1069 689 1057 c 2
 523 112 l 1
 1121 112 l 25
 1322 1254 l 25
 1435 1254 l 25
 1214 0 l 9
 277 0 l 1
 297 112 l 1
 410 112 l 17
 545 879 l 1
 517 867 488 861 457 861 c 0
 362 861 292 928 292 1022 c 0
478 973 m 0
 538 973 578 1027 578 1072 c 0
 578 1111 551 1142 507 1142 c 0
 453 1142 406 1094 406 1042 c 0
 406 1003 435 973 478 973 c 0
EndSplineSet
EndChar

StartChar: uni0E1B
Encoding: 3611 3611 150
Width: 1391
VWidth: 2045
Flags: W
HStem: 0 112<297 410 523 1121> 861 112<410.233 543.639> 1142 112<425.168 571.938>
VStem: 292 114<978.871 1123.02> 578 114<905.874 1136.03> 1424 113<1719 1832>
DStem2: 390.251 0 503.251 0 0.173648 0.984808<133.35 892.518> 1101.25 0 1214 0 0.173648 0.984808<113.728 1860.21>
AnchorPoint: "AboveBase" 1229 1370 basechar 0
LayerCount: 2
Fore
SplineSet
292 1022 m 0
 292 1152 409 1254 527 1254 c 0
 624 1254 692 1185 692 1093 c 0
 692 1081 691 1069 689 1057 c 2
 523 112 l 1
 1121 112 l 25
 1424 1832 l 25
 1537 1832 l 25
 1214 0 l 9
 277 0 l 1
 297 112 l 1
 410 112 l 17
 545 879 l 1
 517 867 488 861 457 861 c 0
 362 861 292 928 292 1022 c 0
478 973 m 0
 538 973 578 1027 578 1072 c 0
 578 1111 551 1142 507 1142 c 0
 453 1142 406 1094 406 1042 c 0
 406 1003 435 973 478 973 c 0
EndSplineSet
EndChar

StartChar: uni0E1C
Encoding: 3612 3612 151
Width: 1290
VWidth: 2045
Flags: W
HStem: 0 21G<162 292.828 1020.2 1148.52> 861 112<466.635 612.352> 1142 112<481.283 626.601>
VStem: 633 115<993.345 1135.36> 1253 113<1141 1254>
DStem2: 162 0 273.672 0 0.173648 0.984808<194.045 913.98> 304 172 274 0 0.685456 0.728114<0 534.04> 770 665 740 495 0.508084 -0.861307<131.18 572.985> 1031.67 0 1145 0 0.173648 0.984808<174.653 1273.38>
LayerCount: 2
Fore
SplineSet
748 1092 m 0
 748 970 635 861 512 861 c 0
 481 861 454 868 429 881 c 1
 304 172 l 25
 770 665 l 1
 1062 172 l 25
 1253 1254 l 9
 1366 1254 l 25
 1145 0 l 9
 1032 0 l 17
 740 495 l 25
 274 0 l 9
 162 0 l 25
 348 1054 l 18
 368 1166 472 1254 581 1254 c 0
 679 1254 748 1185 748 1092 c 0
561 1142 m 0
 510 1142 462 1098 462 1043 c 0
 462 1004 489 973 532 973 c 0
 590 973 633 1027 633 1071 c 0
 633 1110 605 1142 561 1142 c 0
EndSplineSet
EndChar

StartChar: uni0E1D
Encoding: 3613 3613 152
Width: 1290
VWidth: 2045
Flags: W
HStem: 0 21G<162 292.793 1020.29 1148.53> 861 112<466.635 612.352> 1142 112<481.283 626.601>
VStem: 633 115<993.345 1135.36> 1355 113<1719 1832>
DStem2: 162 0 273.906 0 0.173648 0.984808<186.978 913.98> 303 165 274 0 0.680451 0.732794<0 541.325> 771 669 741 497 0.497246 -0.867609<134.311 583.212> 1032.26 0 1145 0 0.173648 0.984808<165.515 1860.21>
AnchorPoint: "AboveBase" 1172 1370 basechar 0
LayerCount: 2
Fore
SplineSet
748 1092 m 0
 748 970 635 861 512 861 c 0
 481 861 454 868 429 881 c 1
 303 165 l 25
 771 669 l 1
 1061 163 l 25
 1355 1832 l 9
 1468 1832 l 25
 1145 0 l 9
 1032 0 l 17
 741 497 l 25
 274 0 l 9
 162 0 l 25
 348 1054 l 18
 368 1166 472 1254 581 1254 c 0
 679 1254 748 1185 748 1092 c 0
561 1142 m 0
 510 1142 462 1098 462 1043 c 0
 462 1004 489 973 532 973 c 0
 590 973 633 1027 633 1071 c 0
 633 1110 605 1142 561 1142 c 0
EndSplineSet
EndChar

StartChar: uni0E1E
Encoding: 3614 3614 153
Width: 1470
VWidth: 2045
Flags: W
HStem: 0 21G<345 468.302 1173.74 1293.52> 861 112<362.713 498.695> 1142 112<376.04 524.203>
VStem: 245 113<979.343 1122.21> 530 117<907.336 1136.6> 1398 113<1141 1254>
DStem2: 345 0 458.286 0 0.173648 0.984808<19.6222 104.513 375.071 894.531> 520 350 458 0 0.457916 0.888995<0 852.818> 1092 1254 1004 1060 0.161076 -0.986942<177.292 915.874> 1177.29 0 1290 0 0.173648 0.984808<355.399 1273.28>
LayerCount: 2
Fore
SplineSet
245 1022 m 0
 245 1148 358 1254 479 1254 c 0
 577 1254 647 1184 647 1089 c 0
 647 1077 646 1066 644 1054 c 2
 520 350 l 25
 985 1254 l 9
 1092 1254 l 17
 1239 350 l 25
 1398 1254 l 9
 1511 1254 l 25
 1290 0 l 9
 1177 0 l 17
 1004 1060 l 25
 458 0 l 9
 345 0 l 25
 500 881 l 1
 471 868 442 861 411 861 c 0
 312 861 245 930 245 1022 c 0
430 973 m 0
 480 973 530 1019 530 1071 c 0
 530 1110 503 1142 459 1142 c 0
 406 1142 358 1094 358 1044 c 0
 358 1005 386 973 430 973 c 0
EndSplineSet
EndChar

StartChar: uni0E1F
Encoding: 3615 3615 154
Width: 1470
VWidth: 2045
Flags: W
HStem: 0 21G<345 468.302 1173.74 1293.53> 861 112<362.713 498.695> 1142 112<376.04 524.203>
VStem: 245 113<979.343 1122.21> 530 117<907.336 1136.6> 1500 113<1719 1832>
DStem2: 345 0 458.286 0 0.173648 0.984808<19.6222 104.513 375.071 894.531> 520 350 458 0 0.457916 0.888995<0 852.818> 1092 1254 1004 1060 0.161076 -0.986942<177.292 915.874> 1177.29 0 1290 0 0.173648 0.984808<355.399 1860.21>
AnchorPoint: "AboveBase" 1277 1370 basechar 0
LayerCount: 2
Fore
SplineSet
245 1022 m 0
 245 1148 358 1254 479 1254 c 0
 577 1254 647 1184 647 1089 c 0
 647 1077 646 1066 644 1054 c 2
 520 350 l 25
 985 1254 l 9
 1092 1254 l 17
 1239 350 l 25
 1500 1832 l 9
 1613 1832 l 25
 1290 0 l 9
 1177 0 l 17
 1004 1060 l 25
 458 0 l 9
 345 0 l 25
 500 881 l 1
 471 868 442 861 411 861 c 0
 312 861 245 930 245 1022 c 0
430 973 m 0
 480 973 530 1019 530 1071 c 0
 530 1110 503 1142 459 1142 c 0
 406 1142 358 1094 358 1044 c 0
 358 1005 386 973 430 973 c 0
EndSplineSet
EndChar

StartChar: uni0E20
Encoding: 3616 3616 155
Width: 1373
VWidth: 2045
Flags: W
HStem: 0 112<245.986 394.415> 279 112<262.457 408.691> 1142 112<715.512 1072.83>
VStem: 128 114<116.715 260.108> 1084 113<0 113> 1225 114<686.868 764 829 989.909>
DStem2: 378.23 0 491.44 0 0.173648 0.984808<378.754 775.796> 1084 0 1197 0 0.173648 0.984808<19.6222 839.92>
LayerCount: 2
Fore
SplineSet
413 210 m 0
 413 162 372 112 314 112 c 0
 271 112 242 142 242 181 c 0
 242 235 293 279 343 279 c 0
 386 279 413 248 413 210 c 0
362 391 m 0
 241 391 128 284 128 162 c 0
 128 70 195 0 294 0 c 0
 405 0 507 88 526 196 c 2
 626 764 l 25
 739 764 l 1
 758 876 l 1
 492 876 l 17
 599 1085 788 1142 904 1142 c 256
 1088 1142 1225 1009 1225 829 c 0
 1225 808 1223 786 1219 764 c 2
 1084 0 l 1
 1197 0 l 1
 1332 764 l 2
 1337 793 1339 820 1339 848 c 0
 1339 1078 1167 1254 924 1254 c 256
 656 1254 392 1038 344 764 c 1
 513 764 l 25
 444 373 l 1
 419 385 392 391 362 391 c 0
EndSplineSet
EndChar

StartChar: uni0E21
Encoding: 3617 3617 156
Width: 1355
VWidth: 2045
Flags: W
HStem: 0 113<282.133 432.406> 281 110<296.086 447.007> 862 114<433.968 569.244> 1143 111<449.867 597.977>
VStem: 165 113<118.808 260.832> 317 113<980.645 1124.51> 603 113<905.948 1136.56> 1288 113<1140 1253>
DStem2: 415.23 0 526.988 0 0.173648 0.984808<378.754 894.491> 585 329 565 218 0.917244 -0.398325<25.8692 546.893> 1067.25 0 1180 0 0.173648 0.984808<113.728 1272.3>
LayerCount: 2
Fore
SplineSet
317 1022 m 0
 317 1143 425 1254 551 1254 c 0
 646 1254 716 1187 716 1093 c 0
 716 1081 715 1069 713 1057 c 2
 585 329 l 25
 1087 112 l 9
 1288 1253 l 1
 1401 1253 l 1
 1180 0 l 1
 1067 0 l 1
 565 218 l 17
 562 196 l 2
 542 86 439 0 330 0 c 0
 231 0 165 70 165 161 c 0
 165 285 279 391 398 391 c 0
 429 391 456 385 481 373 c 9
 570 881 l 1
 541 868 512 862 481 862 c 0
 385 862 317 931 317 1022 c 0
501 976 m 0
 558 976 603 1024 603 1073 c 0
 603 1112 574 1143 531 1143 c 0
 481 1143 430 1098 430 1044 c 0
 430 1002 462 976 501 976 c 0
349 113 m 0
 400 113 451 158 451 213 c 0
 451 255 418 281 379 281 c 0
 326 281 278 235 278 182 c 0
 278 142 309 113 349 113 c 0
EndSplineSet
EndChar

StartChar: uni0E22
Encoding: 3618 3618 157
Width: 1248
VWidth: 2045
Flags: W
HStem: 0 112<365 974> 622 112<472.386 791> 861 112<471.949 615.58> 1142 112<484.919 629.804>
VStem: 276 121<784.866 900> 636 115<992.542 1136> 1175 113<1141 1254>
DStem2: 232 0 345.251 0 0.173648 0.984808<133.394 635.776> 954.251 0 1067 0 0.173648 0.984808<113.728 1273.28>
LayerCount: 2
Fore
SplineSet
751 1092 m 0
 751 968 636 861 516 861 c 16
 467 861 427 874 397 900 c 1
 397 894 l 0
 397 850 419 734 586 734 c 10
 810 734 l 17
 791 622 l 1
 567 622 l 18
 502 622 446 570 435 511 c 10
 365 112 l 25
 974 112 l 25
 1175 1254 l 25
 1288 1254 l 25
 1067 0 l 9
 232 0 l 9
 322 511 l 2
 333 570 362 622 410 665 c 1
 350 690 276 755 276 892 c 0
 276 1078 391 1250 585 1254 c 0
 681 1254 751 1187 751 1092 c 0
565 1142 m 0
 512 1142 467 1094 467 1043 c 0
 467 1004 493 973 536 973 c 0
 586 973 636 1019 636 1071 c 0
 636 1110 609 1142 565 1142 c 0
EndSplineSet
EndChar

StartChar: uni0E23
Encoding: 3619 3619 158
Width: 1002
VWidth: 2045
Flags: W
HStem: 0 112<454.684 601.056> 279 112<469.457 615.797> 834 112<378 699.238> 1142 112<539.605 857.864>
VStem: 335 114<118.472 259.922> 714 115<489.695 818.595> 965 112<938.928 1030.82>
DStem2: 585.23 0 698.44 0 0.173648 0.984808<378.754 751.825>
LayerCount: 2
Fore
SplineSet
335 161 m 0
 335 284 448 391 569 391 c 0
 599 391 626 385 651 373 c 1
 712 722 l 18
 713 728 714 735 714 741 c 0
 714 791 676 834 619 834 c 2
 226 834 l 1
 266 1060 483 1254 723 1254 c 0
 934 1254 1063 1110 1077 942 c 9
 965 918 l 17
 956 1003 884 1142 704 1142 c 0
 529 1142 415 1010 378 946 c 9
 639 946 l 2
 754 943 829 865 829 762 c 0
 829 749 827 736 825 722 c 10
 733 196 l 2
 713 87 611 0 500 0 c 0
 401 0 335 70 335 161 c 0
521 112 m 0
 575 112 620 158 620 211 c 0
 620 251 590 279 550 279 c 0
 500 279 449 235 449 181 c 0
 449 139 480 112 521 112 c 0
EndSplineSet
EndChar

StartChar: uni0E24
Encoding: 3620 3620 159
Width: 1248
VWidth: 2045
Flags: W
HStem: 0 112<381.817 531.252> 279 112<409.954 543.205> 764 112<478 591> 1142 112<596.867 953.487>
VStem: 262 114<116.708 259.505> 549 115<129.884 273.862> 868 113<-548 -435> 1106 115<685.63 991.587>
DStem2: 133.813 -548 246.603 -548 0.173648 0.984808<954.794 1332.21> 868 -548 981 -548 0.173648 0.984808<19.6222 1396.44>
LayerCount: 2
Fore
SplineSet
477 279 m 0
 427 279 376 235 376 181 c 0
 376 139 407 112 448 112 c 0
 495 112 549 151 549 209 c 0
 549 248 520 279 477 279 c 0
664 229 m 0
 664 114 558 0 428 0 c 0
 327 0 262 71 262 161 c 0
 262 172 263 184 265 196 c 10
 365 764 l 9
 225 764 l 1
 273 1039 536 1254 805 1254 c 256
 1046 1254 1221 1081 1221 849 c 0
 1221 821 1218 793 1213 764 c 2
 981 -548 l 1
 868 -548 l 1
 1100 764 l 2
 1104 786 1106 808 1106 829 c 0
 1106 1009 969 1142 785 1142 c 256
 666 1142 487 1087 373 876 c 9
 610 876 l 1
 591 764 l 1
 478 764 l 17
 409 373 l 17
 438 385 467 391 497 391 c 0
 599 391 664 319 664 229 c 0
EndSplineSet
EndChar

StartChar: uni0E25
Encoding: 3621 3621 160
Width: 1263
VWidth: 2045
Flags: W
HStem: 0 112<407.179 556.337> 279 112<435.55 568.756> 752 112<593.08 896.009> 1142 112<615.815 963.487>
VStem: 235 113<764 877> 287 114<118.639 336.269> 574 116<130.537 273.932> 975 113<0 113> 1116 115<689.797 993.029>
DStem2: 975 0 1088 0 0.173648 0.984808<19.6222 443.862 696.59 839.92>
LayerCount: 2
Fore
SplineSet
503 279 m 0xf780
 450 279 401 233 401 181 c 0
 401 139 433 112 474 112 c 0
 526 112 574 157 574 210 c 0
 574 249 546 279 503 279 c 0xf780
690 229 m 0
 690 116 585 0 454 0 c 0
 352 0 287 71 287 161 c 0xf780
 287 172 288 184 290 196 c 10
 321 375 l 2
 393 782 610 864 746 864 c 256
 928 864 1041 770 1096 686 c 1
 1110 764 l 2
 1114 786 1116 808 1116 829 c 0
 1116 1009 979 1142 795 1142 c 256
 584 1142 384 971 348 764 c 9
 235 764 l 17xfb80
 283 1039 546 1254 815 1254 c 256
 1056 1254 1231 1081 1231 849 c 0
 1231 821 1228 793 1223 764 c 2
 1088 0 l 1
 975 0 l 1
 1041 372 l 2
 1045 395 1047 418 1047 439 c 0
 1047 623 909 752 727 752 c 256
 600 752 510 642 482 566 c 0
 454 490 439 401 434 373 c 17
 463 385 492 391 522 391 c 0
 625 391 690 319 690 229 c 0
EndSplineSet
EndChar

StartChar: uni0E26
Encoding: 3622 3622 161
Width: 1373
VWidth: 2045
Flags: W
HStem: 0 112<245.986 394.415> 279 112<262.457 408.691> 1142 112<715.512 1072.83>
VStem: 128 114<116.715 260.108> 987 113<-548 -435> 1225 114<685.302 764 829 989.909>
DStem2: 281.603 -548 394.813 -548 0.173648 0.984808<935.208 1332.25> 987 -548 1100 -548 0.173648 0.984808<19.6222 1396.44>
LayerCount: 2
Fore
SplineSet
413 210 m 0
 413 162 372 112 314 112 c 0
 271 112 242 142 242 181 c 0
 242 235 293 279 343 279 c 0
 386 279 413 248 413 210 c 0
362 391 m 0
 241 391 128 284 128 162 c 0
 128 70 195 0 294 0 c 0
 405 0 507 88 526 196 c 2
 626 764 l 25
 739 764 l 1
 758 876 l 1
 492 876 l 17
 599 1085 788 1142 904 1142 c 256
 1088 1142 1225 1009 1225 829 c 0
 1225 808 1223 786 1219 764 c 2
 987 -548 l 1
 1100 -548 l 1
 1332 764 l 2
 1337 793 1339 820 1339 848 c 0
 1339 1078 1167 1254 924 1254 c 256
 656 1254 392 1038 344 764 c 1
 513 764 l 25
 444 373 l 1
 419 385 392 391 362 391 c 0
EndSplineSet
EndChar

StartChar: uni0E27
Encoding: 3623 3623 162
Width: 1122
VWidth: 2045
Flags: W
HStem: 0 112<706.454 852.898> 279 112<721.513 867.844> 1142 112<559.135 881.419>
VStem: 249 113<834 947> 587 114<116.076 259.91> 989 114<615.109 1034.9>
DStem2: 837.23 0 950.44 0 0.173648 0.984808<378.754 900.032>
LayerCount: 2
Fore
SplineSet
772 112 m 0
 826 112 872 159 872 210 c 0
 872 252 840 279 801 279 c 0
 746 279 701 230 701 180 c 0
 701 141 728 112 772 112 c 0
587 161 m 0
 587 284 700 391 822 391 c 0
 853 391 880 385 903 373 c 1
 984 832 l 2
 987 851 989 870 989 888 c 0
 989 1038 879 1142 727 1142 c 0
 547 1142 392 1001 362 834 c 9
 249 834 l 17
 290 1066 515 1254 747 1254 c 0
 952 1254 1103 1105 1103 904 c 0
 1103 881 1101 857 1097 832 c 2
 985 196 l 2
 965 87 863 0 752 0 c 0
 653 0 587 70 587 161 c 0
EndSplineSet
EndChar

StartChar: uni0E28
Encoding: 3624 3624 163
Width: 1301
VWidth: 2045
Flags: W
HStem: 0 21G<171 294.504 1018 1134.53> 547 115<698.481 848.628> 828 111<713.257 860.679> 1142 112<670.66 1019.66>
VStem: 865 115<680.683 823.738> 1018 113<0 113> 1161 115<569.875 944.896>
DStem2: 171 0 283.865 0 0.173648 0.984808<19.6222 102.01 314.073 989.34> 335 290 284 0 0.464975 0.885324<0 414.203> 1018 0 1131 0 0.173648 0.984808<19.6222 852.085 1136.56 1356.91>
LayerCount: 2
Fore
SplineSet
852 1142 m 0
 657 1142 459 990 421 776 c 2
 335 290 l 1
 607 816 l 2
 629 854 703 939 814 939 c 0
 915 939 1007 971 1092 1036 c 1
 1061 1075 981 1142 852 1142 c 0
980 781 m 0
 980 656 868 547 744 547 c 0
 655 547 616 601 607 615 c 1
 284 0 l 1
 171 0 l 1
 308 776 l 2
 355 1044 609 1254 872 1254 c 0
 1038 1254 1136 1173 1180 1121 c 1
 1232 1183 1264 1253 1278 1332 c 1
 1391 1332 l 1
 1370 1212 1306 1103 1239 1033 c 1
 1255 990 1276 939 1276 863 c 0
 1276 837 1274 808 1268 776 c 2
 1131 0 l 1
 1018 0 l 1
 1155 776 l 2
 1159 798 1161 820 1161 841 c 0
 1161 878 1155 913 1143 947 c 1
 1048 879 981 863 962 855 c 1
 974 833 980 809 980 781 c 0
765 662 m 0
 812 662 865 701 865 759 c 0
 865 797 838 828 794 828 c 0
 740 828 694 779 694 730 c 0
 694 691 722 662 765 662 c 0
EndSplineSet
EndChar

StartChar: uni0E29
Encoding: 3625 3625 164
Width: 1483
VWidth: 2045
Flags: W
HStem: 0 112<297 410 523 1142> 432 150<815.055 1074.35> 749 112<827.377 975.972> 861 112<410.233 543.639> 1142 112<425.168 571.938>
VStem: 292 114<978.871 1123.02> 578 114<905.874 1136.03> 692 116<587.102 730.354> 981 115<601.672 744.658> 1343 113<1141 1254>
DStem2: 390.251 0 503.251 0 0.173648 0.984808<133.35 892.518> 1122.25 0 1235 0 0.173648 0.984808<113.728 499.589 598.823 676.868 912.14 1273.28>
LayerCount: 2
Fore
SplineSet
1096 700 m 0
 1096 685 1096 612 1029 547 c 1
 1101 553 1168 581 1233 630 c 9
 1343 1254 l 9
 1456 1254 l 17
 1390 879 l 9
 1503 879 l 17
 1477 731 1391 632 1338 583 c 9
 1235 0 l 9
 277 0 l 1
 297 112 l 1
 410 112 l 17
 545 879 l 1
 517 867 488 861 457 861 c 0
 362 861 292 928 292 1022 c 0
 292 1152 409 1254 527 1254 c 0
 624 1254 692 1185 692 1093 c 0
 692 1081 691 1069 689 1057 c 2
 523 112 l 1
 1142 112 l 17
 1209 492 l 17
 1133 452 1053 432 972 432 c 0
 756 432 692 538 692 625 c 0
 692 737 792 861 930 861 c 0
 1031 861 1096 790 1096 700 c 0
478 973 m 0
 538 973 578 1027 578 1072 c 0
 578 1111 551 1142 507 1142 c 0
 453 1142 406 1094 406 1042 c 0
 406 1003 435 973 478 973 c 0
881 582 m 0
 934 582 981 629 981 682 c 0
 981 723 950 749 910 749 c 0
 849 749 808 696 808 652 c 0
 808 612 837 582 881 582 c 0
EndSplineSet
EndChar

StartChar: uni0E2A
Encoding: 3626 3626 165
Width: 1263
VWidth: 2045
Flags: W
HStem: 0 112<417.179 566.337> 279 112<445.55 578.756> 752 112<603.946 904.672> 1142 112<625.815 977.448>
VStem: 245 113<764 877> 297 114<118.639 336.269> 584 116<130.537 273.932> 985 113<0 113> 1126 115<708.09 881.25> 1286 113<1176.7 1311>
DStem2: 985 0 1098 0 0.173648 0.984808<19.6222 443.862 696.59 844.752>
LayerCount: 2
Fore
SplineSet
513 279 m 0xf7c0
 460 279 411 233 411 181 c 0
 411 139 443 112 484 112 c 0
 536 112 584 157 584 210 c 0
 584 249 556 279 513 279 c 0xf7c0
700 229 m 0
 700 116 595 0 464 0 c 0
 362 0 297 71 297 161 c 0xf7c0
 297 172 298 184 300 196 c 10
 331 375 l 2
 403 782 620 864 756 864 c 0
 862 864 978 899 1087 985 c 1
 1038 1075 939 1142 805 1142 c 256
 594 1142 394 971 358 764 c 9
 245 764 l 17xfbc0
 293 1039 556 1254 825 1254 c 256
 986 1254 1110 1176 1175 1072 c 9
 1217 1127 1266 1197 1286 1311 c 9
 1399 1311 l 17
 1374 1167 1302 1056 1223 970 c 1
 1235 932 1241 892 1241 851 c 0
 1241 823 1238 794 1233 764 c 2
 1098 0 l 1
 985 0 l 1
 1051 372 l 2
 1055 395 1057 418 1057 439 c 0
 1057 623 919 752 737 752 c 256
 610 752 520 642 492 566 c 0
 464 490 449 401 444 373 c 17
 473 385 502 391 532 391 c 0
 635 391 700 319 700 229 c 0
1123 882 m 1
 1093 861 1034 823 984 804 c 9
 1015 781 1060 756 1106 686 c 1
 1120 764 l 2
 1124 788 1126 811 1126 834 c 0
 1126 850 1125 866 1123 882 c 1
EndSplineSet
EndChar

StartChar: uni0E2B
Encoding: 3627 3627 166
Width: 1338
VWidth: 2045
Flags: W
HStem: 0 21G<343 470.222 1079 1195.53> 831 142<1100.97 1193.85> 861 112<365.689 496.866> 1142 112<379.509 524.568 1117.31 1261.11>
VStem: 245 115<978.972 1122.74> 531 114<906.719 1135.66> 982 115<977.401 1122.17> 1079 113<0 113> 1207 116<640.316 817.958> 1267 115<990.34 1137.87>
DStem2: 343 0 455.561 0 0.173648 0.984808<240.909 892.561> 494 218 456 0 0.579508 0.814967<0 849.828> 1079 0 1192 0 0.173648 0.984808<19.6222 746.723>
LayerCount: 2
Fore
SplineSet
1382 1092 m 0xbe40
 1382 1014 1336 938 1265 896 c 1
 1282 878 1323 839 1323 761 c 0
 1323 748 1322 734 1319 719 c 2
 1192 0 l 1
 1079 0 l 1
 1205 717 l 18
 1206 723 1207 729 1207 736 c 0
 1207 776 1187 831 1114 831 c 8xdd80
 1066 831 1037 817 995 758 c 2
 456 0 l 1
 343 0 l 1
 498 879 l 1
 471 867 442 861 411 861 c 0
 312 861 245 930 245 1022 c 0
 245 1148 358 1254 479 1254 c 0
 577 1254 645 1185 645 1093 c 0
 645 1081 644 1069 642 1057 c 2
 494 218 l 1
 900 804 l 2
 940 860 968 889 1021 915 c 1
 996 946 982 980 982 1019 c 0
 982 1148 1097 1254 1217 1254 c 0
 1312 1254 1382 1186 1382 1092 c 0xbe40
1168 973 m 0
 1226 973 1267 1025 1267 1072 c 0
 1267 1111 1240 1142 1197 1142 c 0
 1141 1142 1097 1093 1097 1042 c 0xde40
 1097 1003 1125 973 1168 973 c 0
430 973 m 0xbc
 488 973 531 1027 531 1071 c 0
 531 1110 503 1142 459 1142 c 0
 408 1142 360 1098 360 1043 c 0
 360 1004 387 973 430 973 c 0xbc
EndSplineSet
EndChar

StartChar: uni0E2C
Encoding: 3628 3628 167
Width: 1445
VWidth: 2045
Flags: W
HStem: 0 21G<345 468.302 1173.74 1293.52> 861 112<362.713 498.695> 1142 112<376.04 524.203> 1229 112<1260.28 1396.26> 1509 112<1276.71 1423.24>
VStem: 245 113<979.343 1122.21> 530 117<907.336 1136.6> 1141 115<1345.95 1489.47> 1429 116<1441 1503.53>
DStem2: 345 0 458.286 0 0.173648 0.984808<19.6222 105.419 375.071 894.531> 1092 1254 1004 1060 0.161076 -0.986942<177.292 915.874> 1177.29 0 1290 0 0.173648 0.984808<355.399 1267.19>
AnchorPoint: "AboveBase" 1071 1370 basechar 0
LayerCount: 2
Fore
SplineSet
1328 1341 m 0xdf80
 1377 1341 1429 1384 1429 1439 c 0
 1429 1477 1402 1509 1358 1509 c 0
 1299 1509 1256 1455 1256 1410 c 0
 1256 1372 1284 1341 1328 1341 c 0xdf80
1141 1391 m 0
 1141 1515 1255 1621 1376 1621 c 0
 1480 1621 1545 1543 1545 1456 c 0
 1545 1451 1544 1446 1544 1441 c 9
 1644 1494 l 9
 1684 1397 l 17
 1521 1311 l 25
 1290 0 l 9
 1177 0 l 17
 1004 1060 l 25
 458 0 l 9
 345 0 l 25
 500 881 l 1
 471 868 442 861 411 861 c 0
 312 861 245 930 245 1022 c 0
 245 1148 358 1254 479 1254 c 0
 577 1254 647 1184 647 1089 c 0
 647 1077 646 1066 644 1054 c 2
 520 350 l 25
 985 1254 l 9
 1092 1254 l 17xef80
 1239 350 l 17
 1397 1248 l 1
 1368 1235 1339 1229 1309 1229 c 0
 1208 1229 1141 1300 1141 1391 c 0
430 973 m 0
 480 973 530 1019 530 1071 c 0
 530 1110 503 1142 459 1142 c 0
 406 1142 358 1094 358 1044 c 0
 358 1005 386 973 430 973 c 0
EndSplineSet
EndChar

StartChar: uni0E2D
Encoding: 3629 3629 168
Width: 1230
VWidth: 2045
Flags: W
HStem: 0 112<447 990> 468 112<550.118 695.733> 749 112<566.284 710.411> 1142 112<610.483 960.092>
VStem: 230 113<764 877> 716 114<599.572 744.694> 1111 114<549.594 991.128>
DStem2: 314 0 427.251 0 0.173648 0.984808<133.394 515.142> 970.251 0 1083 0 0.173648 0.984808<113.728 839.876>
LayerCount: 2
Fore
SplineSet
830 699 m 0
 830 575 718 468 595 468 c 0
 566 468 538 475 513 488 c 1
 447 112 l 25
 990 112 l 17
 1105 764 l 2
 1109 786 1111 808 1111 829 c 0
 1111 1008 976 1142 789 1142 c 256
 582 1142 377 972 343 764 c 9
 230 764 l 17
 278 1037 539 1254 809 1254 c 256
 1059 1254 1225 1075 1225 847 c 0
 1225 820 1223 792 1218 764 c 2
 1083 0 l 9
 314 0 l 9
 431 662 l 18
 451 776 559 861 666 861 c 0
 763 861 830 792 830 699 c 0
646 749 m 0
 596 749 546 703 546 649 c 0
 546 611 573 580 616 580 c 0
 666 580 716 626 716 679 c 0
 716 718 689 749 646 749 c 0
EndSplineSet
EndChar

StartChar: uni0E2E
Encoding: 3630 3630 169
Width: 1192
VWidth: 2045
Flags: W
HStem: 0 112<319 900> 402 112<409.906 558.823> 680 112<425.031 571.41> 882 103<469.018 886.12> 1142 109<494.5 871.047>
VStem: 334 123<1009.98 1105.85> 576 114<532.265 675.298> 1021 116<560.656 975.305>
DStem2: 186 0 299.251 0 0.173648 0.984808<133.394 446.091> 880.251 0 993 0 0.173648 0.984808<113.728 840.906>
LayerCount: 2
Fore
SplineSet
690 631 m 0
 690 508 578 402 455 402 c 0
 426 402 398 408 373 420 c 1
 319 112 l 1
 900 112 l 1
 1015 764 l 2
 1019 788 1021 810 1021 830 c 0
 1021 922 986 976 986 976 c 1
 866 907 777 882 626 882 c 0
 495 882 334 933 334 1039 c 0
 334 1166 548 1251 712 1251 c 0
 838 1251 919 1227 959 1184 c 0
 995 1144 1020 1124 1031 1124 c 0
 1055 1124 1109 1202 1146 1261 c 1
 1233 1205 l 1
 1161 1137 1086 1050 1086 1043 c 0
 1086 1031 1137 993 1137 866 c 0
 1137 837 1135 803 1128 764 c 2
 993 0 l 9
 186 0 l 1
 291 594 l 2
 311 711 423 792 526 792 c 0
 627 792 690 719 690 631 c 0
692 1142 m 256
 564 1142 457 1106 457 1052 c 0
 457 994 620 985 674 985 c 0
 790 985 852 1006 930 1054 c 1
 882 1102 793 1142 692 1142 c 256
506 680 m 0
 452 680 406 631 406 582 c 0
 406 543 434 514 477 514 c 0
 530 514 576 560 576 612 c 0
 576 654 545 680 506 680 c 0
EndSplineSet
EndChar

StartChar: uni0E2F
Encoding: 3631 3631 170
Width: 1120
VWidth: 2045
Flags: W
HStem: 0 21G<848 964.525> 764 112<542.548 802.994> 1142 112<413.046 559.801>
VStem: 277 117<979.389 1122.76> 566 115<992.721 1136.51> 848 113<0 113>
DStem2: 848 0 961 0 0.173648 0.984808<19.6222 956.515 1090.37 1273.33>
LayerCount: 2
Fore
SplineSet
681 1091 m 0
 681 1037 657 944 539 882 c 1
 563 878 590 876 621 876 c 256
 832 876 1032 1043 1069 1254 c 9
 1182 1254 l 25
 961 0 l 1
 848 0 l 1
 1014 942 l 17
 929 858 784 764 602 764 c 256
 344 764 277 896 277 1008 c 0
 277 1160 401 1254 513 1254 c 0
 615 1254 681 1182 681 1091 c 0
465 973 m 0
 523 973 566 1027 566 1071 c 0
 566 1110 538 1142 494 1142 c 0
 444 1142 394 1098 394 1043 c 0
 394 1005 421 973 465 973 c 0
EndSplineSet
EndChar

StartChar: uni0E30
Encoding: 3632 3632 171
Width: 1120
VWidth: 2045
Flags: W
HStem: 42 148<297.949 557.445> 359 112<309.806 455.965> 683 151<411.136 669.791> 1000 112<423.05 571.606>
VStem: 175 116<195.728 339.076> 288 117<837.923 980.707> 462 115<209.085 354.614> 576 114<852.892 994.764>
LayerCount: 2
Fore
SplineSet
690 947 m 0xf5
 690 881 666 831 592 782 c 1
 757 796 951 931 986 1130 c 9
 1099 1130 l 17
 1056 884 817 683 568 683 c 0
 352 683 288 789 288 875 c 0
 288 985 387 1112 524 1112 c 0
 620 1112 690 1044 690 947 c 0xf5
475 834 m 0
 528 834 576 880 576 932 c 0
 576 974 544 1000 504 1000 c 0
 450 1000 405 954 405 902 c 0
 405 863 432 834 475 834 c 0
577 303 m 0xfa
 577 237 552 188 479 139 c 1
 644 154 838 290 873 489 c 9
 986 489 l 17
 943 246 707 42 455 42 c 0
 238 42 175 148 175 234 c 0
 175 343 272 471 411 471 c 0
 508 471 577 400 577 303 c 0xfa
362 190 m 0
 413 190 462 235 462 290 c 0
 462 332 430 359 391 359 c 0
 341 359 291 315 291 261 c 0
 291 219 322 190 362 190 c 0
EndSplineSet
EndChar

StartChar: uni0E31
Encoding: 3633 3633 172
Width: 0
VWidth: 2045
Flags: W
HStem: 1384 150<-368.141 -107.215> 1701 111<-354.493 -208.432>
VStem: -490 116<1538.68 1682.06> -203 115<1553.22 1696.21> 207 113<1710.35 1831>
AnchorPoint: "AboveMark" 38 2040 basemark 0
AnchorPoint: "AboveBase" 198 1370 mark 0
LayerCount: 2
Fore
SplineSet
-88 1646 m 0
 -88 1580 -113 1531 -187 1482 c 1
 -22 1494 172 1631 207 1831 c 9
 320 1831 l 17
 277 1589 44 1384 -210 1384 c 0
 -429 1384 -490 1491 -490 1577 c 0
 -490 1690 -389 1812 -254 1812 c 0
 -153 1812 -88 1740 -88 1646 c 0
-305 1534 m 0
 -249 1534 -203 1584 -203 1632 c 0
 -203 1670 -231 1701 -275 1701 c 0
 -325 1701 -374 1656 -374 1602 c 0
 -374 1564 -349 1534 -305 1534 c 0
EndSplineSet
EndChar

StartChar: uni0E32
Encoding: 3634 3634 173
Width: 1082
VWidth: 2045
Flags: W
HStem: 0 21G<837 953.534> 1142 112<559.135 881.419>
VStem: 249 113<834 947> 837 113<0 113> 989 114<754.042 1034.29>
DStem2: 837 0 950 0 0.173648 0.984808<19.6222 900.072>
LayerCount: 2
Fore
SplineSet
727 1142 m 0
 547 1142 392 1001 362 834 c 9
 249 834 l 17
 290 1066 515 1254 747 1254 c 0
 952 1254 1103 1105 1103 904 c 0
 1103 881 1101 857 1097 832 c 10
 950 0 l 1
 837 0 l 1
 984 832 l 2
 987 851 989 870 989 888 c 0
 989 1038 879 1142 727 1142 c 0
EndSplineSet
EndChar

StartChar: uni0E34
Encoding: 3636 3636 175
Width: 0
VWidth: 2045
Flags: W
HStem: 1767 112<-537.606 -177.343>
DStem2: -674 1621 -867 1527 0.995353 -0.0962907<0 629.768>
AnchorPoint: "AboveMark" 134 2040 basemark 0
AnchorPoint: "AboveBase" 79 1370 mark 0
LayerCount: 2
Fore
SplineSet
-47 1562 m 17
 -117 1743 -267 1767 -350 1767 c 256
 -469 1767 -586 1715 -674 1621 c 1
 -47 1562 l 17
-867 1527 m 1
 -779 1710 -576 1879 -331 1879 c 256
 -74 1879 86 1695 86 1477 c 0
 86 1463 85 1449 84 1435 c 9
 -867 1527 l 1
EndSplineSet
EndChar

StartChar: uni0E35
Encoding: 3637 3637 176
Width: 0
VWidth: 2045
Flags: W
HStem: 1764 112<-537.996 -179.639>
VStem: 59 113<1822 1935>
DStem2: -675 1618 -867 1524 0.995353 -0.0962907<0 630.763> -29.432 1432 83.3075 1432 0.173648 0.984808<273.15 510.714>
AnchorPoint: "AboveBase" 83 1370 mark 0
AnchorPoint: "AboveMark" 134 2040 basemark 0
LayerCount: 2
Fore
SplineSet
-331 1876 m 256
 -171 1876 -53 1806 18 1701 c 9
 59 1935 l 1
 172 1935 l 9
 84 1432 l 9
 -867 1524 l 1
 -780 1707 -576 1876 -331 1876 c 256
-47 1559 m 17
 -117 1740 -268 1764 -351 1764 c 256
 -470 1764 -586 1712 -675 1618 c 1
 -47 1559 l 17
EndSplineSet
EndChar

StartChar: uni0E36
Encoding: 3638 3638 177
Width: 0
VWidth: 2045
Flags: W
HStem: 1762 112<-538.403 -236.541> 1966 112<-106.637 40.0038>
VStem: -240 114<1866 1944.42> 46 115<1817.07 1961.46>
DStem2: -675 1616 -868 1522 0.995353 -0.0962907<0 630.763>
AnchorPoint: "AboveBase" 68 1370 mark 0
AnchorPoint: "AboveMark" -12 2040 basemark 0
LayerCount: 2
Fore
SplineSet
161 1916 m 0
 161 1861 135 1761 13 1703 c 1
 53 1651 85 1571 85 1473 c 0
 85 1459 84 1445 83 1430 c 9
 -868 1522 l 1
 -780 1705 -577 1874 -332 1874 c 256
 -299 1874 -268 1871 -240 1866 c 1
 -240 1932 -158 2078 -6 2078 c 0
 94 2078 161 2008 161 1916 c 0
-55 1797 m 0
 3 1797 46 1850 46 1896 c 0
 46 1934 19 1966 -25 1966 c 0
 -83 1966 -126 1913 -126 1867 c 0
 -126 1829 -99 1797 -55 1797 c 0
-47 1557 m 17
 -118 1738 -268 1762 -351 1762 c 256
 -470 1762 -586 1710 -675 1616 c 1
 -47 1557 l 17
EndSplineSet
EndChar

StartChar: uni0E37
Encoding: 3639 3639 178
Width: 0
VWidth: 2045
Flags: W
HStem: 1764 112<-537.996 -180.696>
VStem: 59 113<1822 1935>
DStem2: -675 1618 -867 1524 0.995353 -0.0962907<0 630.763> -29.432 1432 83.3075 1432 0.173648 0.984808<273.15 510.714>
AnchorPoint: "AboveMark" 21 2040 basemark 0
AnchorPoint: "AboveBase" 67 1370 mark 0
LayerCount: 2
Fore
SplineSet
-867 1524 m 1
 -780 1707 -576 1876 -331 1876 c 256
 -277 1876 -228 1868 -181 1852 c 9
 -167 1935 l 1
 -54 1935 l 1
 -78 1799 l 17
 -39 1772 -6 1739 18 1701 c 9
 59 1935 l 1
 172 1935 l 9
 84 1432 l 9
 -867 1524 l 1
-47 1559 m 17
 -117 1740 -268 1764 -351 1764 c 256
 -470 1764 -586 1712 -675 1618 c 1
 -47 1559 l 17
EndSplineSet
EndChar

StartChar: uni0E38
Encoding: 3640 3640 179
Width: 0
VWidth: 2045
Flags: W
HStem: -474 112<-489.584 -357.431> -196 112<-476.9 -330.266>
VStem: -610 115<-357.929 -213.838> -394 113<-671 -558> -324 115<-431.219 -200.607>
DStem2: -394 -671 -281 -671 0.173648 0.984808<19.6222 218.332>
AnchorPoint: "BelowBase" -175 -88 mark 0
LayerCount: 2
Fore
SplineSet
-375 -84 m 0xe8
 -505 -84 -610 -198 -610 -313 c 0
 -610 -404 -543 -474 -444 -474 c 0
 -413 -474 -384 -468 -356 -456 c 1
 -394 -671 l 1
 -281 -671 l 1xf0
 -212 -279 l 2
 -210 -268 -209 -256 -209 -246 c 0
 -209 -153 -279 -84 -375 -84 c 0xe8
-324 -266 m 0xe8
 -324 -320 -375 -362 -425 -362 c 0
 -468 -362 -495 -333 -495 -295 c 0
 -495 -244 -451 -196 -396 -196 c 0
 -352 -196 -324 -227 -324 -266 c 0xe8
EndSplineSet
Substitution2: "Thai Sara U Mai Ek Reordering" uni0E48.low
Substitution2: "Thai Sara U Mai Tho Reordering" uni0E49.low
Substitution2: "Thai Sara U Mai Tri Reordering" uni0E4A.low
Substitution2: "Thai Sara U Mai Chattawa Reordering" uni0E4B.low
Substitution2: "Thai Sara U Thanthakhat Reordering" uni0E4C.low
Substitution2: "Thai Sara U Nikhahit Reordering" uni0E4D
EndChar

StartChar: uni0E39
Encoding: 3641 3641 180
Width: 0
VWidth: 2045
Flags: W
HStem: -474 112<-770.617 -637.256> -196 112<-756.56 -609.058>
VStem: -891 115<-358.036 -215.176> -604 115<-344.351 -202.574> -289 113<-197 -84>
DStem2: -391.749 -669 -279 -669 0.173648 0.984808<113.728 593.955>
AnchorPoint: "BelowBase" -127 -85 mark 0
LayerCount: 2
Fore
SplineSet
-657 -84 m 0
 -779 -84 -891 -192 -891 -314 c 0
 -891 -403 -826 -474 -724 -474 c 0
 -694 -474 -665 -468 -636 -456 c 1
 -674 -669 l 1
 -279 -669 l 17
 -176 -84 l 1
 -289 -84 l 1
 -372 -557 l 25
 -541 -557 l 1
 -492 -279 l 2
 -490 -268 -489 -257 -489 -246 c 0
 -489 -153 -560 -84 -657 -84 c 0
-604 -266 m 0
 -604 -315 -649 -362 -706 -362 c 0
 -749 -362 -776 -333 -776 -295 c 0
 -776 -244 -732 -196 -677 -196 c 0
 -633 -196 -604 -227 -604 -266 c 0
EndSplineSet
Substitution2: "Thai Sara UU Mai Ek Reordering" uni0E48.low
Substitution2: "Thai Sara UU Mai Tho Reordering" uni0E49.low
Substitution2: "Thai Sara UU Mai Tri Reordering" uni0E4A.low
Substitution2: "Thai Sara UU Mai Chattawa Reordering" uni0E4B.low
Substitution2: "Thai Sara UU Thanthakhat Reordering" uni0E4C.low
Substitution2: "Thai Sara UU Nikhahit Reordering" uni0E4D
EndChar

StartChar: uni0E3A
Encoding: 3642 3642 181
Width: 0
VWidth: 2045
Flags: W
HStem: -359 277<-443.417 -272.037>
VStem: -501 284<-303.207 -138.581>
AnchorPoint: "BelowBase" -200 -86 mark 0
LayerCount: 2
Fore
SplineSet
-217 -196 m 0
 -217 -280 -291 -359 -383 -359 c 0
 -454 -359 -501 -309 -501 -244 c 0
 -501 -156 -419 -82 -334 -82 c 0
 -261 -82 -217 -133 -217 -196 c 0
EndSplineSet
Substitution2: "Thai Phinthu Maitaikhu Reordering" uni0E47
Substitution2: "Thai Phinthu Mai Ek Reordering" uni0E48.low
Substitution2: "Thai Phinthu Mai Tho Reordering" uni0E49.low
Substitution2: "Thai Phinthu Mai Tri Reordering" uni0E4A.low
Substitution2: "Thai Phinthu Mai Chattawa Reordering" uni0E4B.low
Substitution2: "Thai Phinthu Thanthakhat Reordering" uni0E4C.low
Substitution2: "Thai Phinthu Nikhahit Reordering" uni0E4D
EndChar

StartChar: uni0E3F
Encoding: 3647 3647 182
Width: 1364
VWidth: 2045
Flags: W
HStem: 0 136<308 518 678 990.917> 692 127<428 640 798 1058.94> 1314 136<516 750 910 1144.31>
VStem: 799 136<1459 1595> 1179 150<314.441 590.811> 1232 141<968.794 1238.55>
DStem2: 132.549 -133 260.568 -133 0.173648 0.984808<295.38 859.951 988.842 1491.6> 495 -133 631 -133 0.173648 0.984808<23.6162 134.973 296.691 837.645 990.152 1469.3 1631.01 1754.54>
LayerCount: 2
Fore
SplineSet
1373 1143 m 0xf4
 1373 995 1281 850 1109 772 c 1
 1264 722 1329 609 1329 493 c 0xf8
 1329 394 1262 0 747 0 c 2
 654 0 l 25
 631 -133 l 1
 495 -133 l 1
 518 0 l 25
 156 0 l 1
 412 1450 l 1
 774 1450 l 25
 799 1595 l 9
 935 1595 l 17
 910 1450 l 25
 948 1450 l 2
 1308 1450 1373 1269 1373 1143 c 0xf4
865 819 m 2
 1008 819 1232 878 1232 1116 c 0xf4
 1232 1237 1150 1314 930 1314 c 2
 886 1314 l 17
 798 819 l 25
 865 819 l 2
792 136 m 2
 1098 136 1179 359 1179 466 c 0xf8
 1179 623 1024 692 866 692 c 2
 776 692 l 17
 678 136 l 25
 792 136 l 2
542 136 m 25
 640 692 l 9
 406 692 l 1
 308 136 l 1
 542 136 l 25
662 819 m 25
 750 1314 l 9
 516 1314 l 1
 428 819 l 1
 662 819 l 25
EndSplineSet
EndChar

StartChar: uni0E40
Encoding: 3648 3648 183
Width: 629
VWidth: 2045
Flags: W
HStem: 0 112<316.596 464.534> 279 112<345.22 476.505> 1234 20G<382.484 499>
VStem: 197 114<116.193 253.253> 386 113<1141 1254> 482 116<130.278 272.726>
DStem2: 165.44 0 278.23 0 0.173648 0.984808<398.34 1273.25>
LayerCount: 2
Fore
SplineSet
410 279 m 0xf4
 355 279 311 230 311 181 c 0
 311 143 336 112 381 112 c 0
 428 112 482 151 482 209 c 0
 482 248 453 279 410 279 c 0xf4
598 230 m 0
 598 115 491 0 362 0 c 0
 263 0 197 70 197 161 c 0
 197 172 198 184 200 196 c 10
 386 1254 l 9
 499 1254 l 17xf8
 344 373 l 17
 373 385 402 391 432 391 c 0
 530 391 598 322 598 230 c 0
EndSplineSet
EndChar

StartChar: uni0E41
Encoding: 3649 3649 184
Width: 1173
VWidth: 2045
Flags: W
HStem: 0 112<316.596 464.534 880.292 1028.53> 279 112<345.22 476.505 909.127 1040.5> 1234 20G<382.484 499 946.484 1063>
VStem: 197 114<116.193 253.253> 386 113<1141 1254> 482 116<130.278 272.726> 761 114<115.964 253.21> 950 113<1141 1254> 1046 116<130.278 272.726>
DStem2: 165.44 0 278.23 0 0.173648 0.984808<398.34 1273.25> 729.44 0 842.23 0 0.173648 0.984808<398.34 1273.25>
LayerCount: 2
Fore
SplineSet
974 279 m 0xf280
 923 279 875 235 875 180 c 0
 875 139 904 112 945 112 c 0
 992 112 1046 151 1046 209 c 0
 1046 248 1017 279 974 279 c 0xf280
1162 230 m 0
 1162 115 1055 0 926 0 c 0
 827 0 761 70 761 161 c 0
 761 172 762 184 764 196 c 10
 950 1254 l 9
 1063 1254 l 17xf3
 908 373 l 17
 937 385 966 391 996 391 c 0
 1094 391 1162 322 1162 230 c 0
410 279 m 0
 355 279 311 230 311 181 c 0
 311 143 336 112 381 112 c 0
 428 112 482 151 482 209 c 0xf6
 482 248 453 279 410 279 c 0
598 230 m 0
 598 115 491 0 362 0 c 0
 263 0 197 70 197 161 c 0
 197 172 198 184 200 196 c 10
 386 1254 l 9
 499 1254 l 17xfa
 344 373 l 17
 373 385 402 391 432 391 c 0
 530 391 598 322 598 230 c 0
EndSplineSet
EndChar

StartChar: uni0E42
Encoding: 3650 3650 185
Width: 757
VWidth: 2045
Flags: W
HStem: 0 112<485.984 634.074> 279 112<513.908 645.615> 1619 112<265 586.609> 1927 112<421.349 745.781>
VStem: 366 114<118.472 259.169> 602 114<1279.16 1603.31> 651 116<130.291 274.418> 852 115<1725.01 1818.71>
DStem2: 334.44 0 447.23 0 0.173648 0.984808<398.34 1548.02>
LayerCount: 2
Fore
SplineSet
581 279 m 0xfb
 531 279 480 235 480 181 c 0
 480 139 511 112 552 112 c 0
 606 112 651 158 651 211 c 0
 651 251 621 279 581 279 c 0xfb
767 229 m 0
 767 106 651 0 532 0 c 0
 432 0 366 70 366 161 c 0
 366 172 367 184 369 196 c 2
 600 1507 l 2
 601 1513 602 1519 602 1525 c 0
 602 1576 563 1619 506 1619 c 2
 113 1619 l 1
 154 1851 378 2039 612 2039 c 0
 823 2039 945 1895 967 1728 c 9
 852 1704 l 17
 843 1791 772 1927 592 1927 c 0
 417 1927 304 1799 265 1731 c 9
 526 1731 l 2
 642 1728 716 1650 716 1546 c 0xfd
 716 1533 715 1520 713 1507 c 2
 513 373 l 1
 540 385 569 391 600 391 c 0
 700 391 767 321 767 229 c 0
EndSplineSet
EndChar

StartChar: uni0E43
Encoding: 3651 3651 186
Width: 867
VWidth: 2045
Flags: W
HStem: 0 112<561.984 710.074> 279 112<589.908 721.615> 1501 112<401.04 546.291> 1781 112<469.593 559.277> 1924 112<470.597 685.263>
VStem: 262 134<1617.2 1759.55> 442 114<118.472 338.06> 565 115<1633.52 1775.2> 722 114<125.878 275.198 1713.95 1887>
DStem2: 410.44 0 523.23 0 0.173648 0.984808<398.34 1812.51>
LayerCount: 2
Fore
SplineSet
843 229 m 0
 843 106 727 0 608 0 c 0
 508 0 442 70 442 161 c 0
 442 172 443 184 445 196 c 2
 719 1755 l 2
 721 1766 722 1776 722 1786 c 0
 722 1866 663 1924 580 1924 c 0
 539 1924 502 1912 469 1888 c 1
 484 1891 500 1893 515 1893 c 0
 611 1893 680 1825 680 1732 c 0
 680 1613 572 1501 446 1501 c 0
 373 1501 262 1541 262 1691 c 0
 262 1894 436 2036 600 2036 c 0
 737 2036 836 1939 836 1805 c 0
 836 1789 835 1772 832 1755 c 2
 589 373 l 1
 616 385 645 391 676 391 c 0
 776 391 843 321 843 229 c 0
465 1613 m 0
 515 1613 565 1658 565 1712 c 0
 565 1750 538 1781 495 1781 c 0
 438 1781 396 1730 396 1683 c 0
 396 1644 422 1613 465 1613 c 0
657 279 m 0
 607 279 556 235 556 181 c 0
 556 139 587 112 628 112 c 0
 682 112 727 158 727 211 c 0
 727 251 697 279 657 279 c 0
EndSplineSet
EndChar

StartChar: uni0E44
Encoding: 3652 3652 187
Width: 811
VWidth: 2045
Flags: W
HStem: 0 112<508.292 656.534> 279 112<537.127 668.505>
VStem: 310 114<1774.41 2165.51> 389 114<115.964 345.975> 674 116<130.278 272.726>
DStem2: -46.1933 0 66.8286 0 0.173648 0.984808<1719.45 2064.4> 357.44 0 470.23 0 0.173648 0.984808<398.34 1896.67> 362 1674 344 1521 0.702117 0.712062<0 365.626>
LayerCount: 2
Fore
SplineSet
790 230 m 0xe8
 790 115 683 0 554 0 c 0
 455 0 389 70 389 161 c 0xd8
 389 172 390 184 392 196 c 2
 686 1868 l 17
 344 1521 l 25
 222 1521 l 25
 306 1997 l 2
 308 2010 310 2022 310 2034 c 0
 310 2073 297 2106 273 2136 c 9
 366 2214 l 17
 405 2168 424 2115 424 2054 c 0
 424 2036 422 2017 419 1997 c 2
 362 1674 l 9
 715 2032 l 9
 828 2032 l 25
 536 373 l 1
 565 385 594 391 624 391 c 0
 722 391 790 322 790 230 c 0xe8
602 279 m 0
 551 279 503 235 503 180 c 0
 503 139 532 112 573 112 c 0
 620 112 674 151 674 209 c 0
 674 248 645 279 602 279 c 0
EndSplineSet
EndChar

StartChar: uni0E45
Encoding: 3653 3653 188
Width: 1082
VWidth: 2045
Flags: W
HStem: 1142 112<432.535 746.432>
VStem: 120 113<834 947> 610 113<-548 -435> 859 115<753.181 832 886 1032.04>
DStem2: 610 -548 723 -548 0.173648 0.984808<19.6222 1454.67>
LayerCount: 2
Fore
SplineSet
597 1142 m 0
 751 1142 859 1034 859 886 c 0
 859 869 857 851 854 832 c 10
 610 -548 l 9
 723 -548 l 25
 967 832 l 18
 971 857 974 882 974 906 c 0
 974 1104 828 1254 617 1254 c 0
 381 1254 161 1065 120 834 c 9
 233 834 l 17
 264 1009 428 1142 597 1142 c 0
EndSplineSet
EndChar

StartChar: uni0E46
Encoding: 3654 3654 189
Width: 1173
VWidth: 2045
Flags: W
HStem: 618 113<432.037 581.289> 899 110<446.486 594.438> 1234 20G<574.5 681.157 886.096 945.5>
VStem: 277 151<735.601 947.257> 599 115<748.934 893.215> 749 113<-548 -435> 1013 114<829.233 1092.07>
DStem2: 749 -548 862 -548 0.173648 0.984808<19.6222 1549.61>
LayerCount: 2
Fore
SplineSet
714 848 m 0
 714 736 609 618 479 618 c 0
 347 618 277 704 277 835 c 0
 277 1088 497 1235 652 1254 c 1
 773 1171 l 1
 922 1254 l 1
 969 1247 1127 1198 1127 992 c 0
 1127 967 1124 939 1119 908 c 2
 862 -548 l 1
 749 -548 l 1
 1006 906 l 2
 1011 933 1013 958 1013 980 c 0
 1013 1056 983 1103 902 1124 c 1
 750 1039 l 1
 617 1130 l 17
 546 1120 437 1067 402 946 c 1
 442 987 491 1009 548 1009 c 0
 653 1009 714 936 714 848 c 0
499 731 m 0
 558 731 599 781 599 829 c 0
 599 867 574 899 529 899 c 0
 473 899 428 850 428 798 c 0
 428 757 459 731 499 731 c 0
EndSplineSet
EndChar

StartChar: uni0E47
Encoding: 3655 3655 190
Width: 0
VWidth: 2045
Flags: W
HStem: 1398 86<-268.819 -96.7747> 1502 110<-517.055 -375.319> 1596 83<-200.259 -92.3924> 1761 101<-565.289 -351 -258 -44.3863>
VStem: -743 113<1507.62 1699.54> -294 88<1511 1590.8> -91 84<1489.85 1594.44>
AnchorPoint: "AboveMark" -418 1369 mark 0
AnchorPoint: "AboveBase" -39 1370 mark 0
LayerCount: 2
Fore
SplineSet
-630 1584 m 0xde
 -630 1732 -506 1761 -351 1761 c 0
 -314 1761 -296 1759 -258 1759 c 0
 -121 1759 -28 1772 98 1905 c 1
 35 1978 l 1
 -64 1865 -126 1860 -254 1860 c 0
 -297 1860 -341 1862 -363 1862 c 0
 -659 1862 -743 1691 -743 1570 c 0
 -743 1435 -628 1401 -531 1398 c 1
 -531 1423 -517 1502 -453 1502 c 0xde
 -368 1502 -366 1398 -189 1398 c 16
 -69 1398 -7 1493 -7 1564 c 0
 -7 1629 -54 1679 -125 1679 c 0xbe
 -162 1679 -275 1660 -294 1510 c 1
 -354 1516 -380 1612 -464 1612 c 0
 -532 1612 -572 1545 -580 1504 c 1
 -614 1515 -630 1543 -630 1584 c 0xde
-91 1550 m 0
 -91 1518 -119 1484 -158 1484 c 0
 -188 1484 -206 1503 -206 1529 c 0
 -206 1565 -177 1596 -139 1596 c 0xbe
 -110 1596 -91 1576 -91 1550 c 0
EndSplineSet
Substitution2: "Thai Mark High Variant" uni0E47.high
Substitution2: "Thai Phinthu Maitaikhu Reordering" uni0E3A
EndChar

StartChar: uni0E48
Encoding: 3656 3656 191
Width: 0
VWidth: 2045
Flags: W
VStem: -81 113<2117 2230> -27 113<2309 2422>
DStem2: -81 2117 32 2117 0.173648 0.984808<19.6222 309.743>
AnchorPoint: "AboveMark" -38 2040 mark 0
LayerCount: 2
Fore
SplineSet
-27 2422 m 25x40
 86 2422 l 1x40
 32 2117 l 1
 -81 2117 l 1x80
 -27 2422 l 25x40
EndSplineSet
MultipleSubs2: "Thai Tone Nikhahit Attachment" uni0E4D uni0E48
Substitution2: "Thai Tone Low Variant" uni0E48.low
Substitution2: "Thai Sara U Mai Ek Reordering" uni0E38
Substitution2: "Thai Sara UU Mai Ek Reordering" uni0E39
Substitution2: "Thai Phinthu Mai Ek Reordering" uni0E3A
EndChar

StartChar: uni0E49
Encoding: 3657 3657 192
Width: 0
VWidth: 2045
Flags: W
HStem: 2067 89<-129 29.2456> 2212 57<-178.615 -165> 2359 68<-174.919 -89.0136>
VStem: -248 68<2270.1 2353.17> -88 69<2273.43 2358.64> 229 91<2367 2458>
AnchorPoint: "AboveMark" -69 2040 mark 0
LayerCount: 2
Back
SplineSet
-294 2340 m 0
 -294 2425 -219 2507 -126 2507 c 0
 -54 2507 -8 2457 -8 2392 c 0
 -8 2365 -18 2317 -45 2285 c 2
 -145 2168 l 1
 66 2168 266 2338 303 2546 c 265
 417 2546 l 273
 371 2286 123 2057 -164 2057 c 10
 -277 2057 l 1
 -258 2168 l 1
 -190 2238 l 17
 -234 2238 -294 2269 -294 2340 c 0
-161 2310 m 0
 -124 2310 -94 2343 -94 2376 c 0
 -94 2402 -111 2422 -141 2422 c 0
 -175 2422 -209 2393 -209 2357 c 0
 -209 2332 -190 2310 -161 2310 c 0
EndSplineSet
Fore
SplineSet
-248 2293 m 0
 -248 2362 -187 2427 -113 2427 c 0
 -55 2427 -19 2387 -19 2335 c 0
 -19 2309 -29 2272 -48 2249 c 2
 -129 2156 l 1
 40 2156 200 2292 229 2458 c 265
 320 2458 l 273
 284 2250 85 2067 -145 2067 c 10
 -235 2067 l 1
 -219 2156 l 1
 -165 2212 l 17
 -200 2212 -248 2236 -248 2293 c 0
-141 2269 m 0
 -113 2269 -88 2295 -88 2322 c 0
 -88 2343 -101 2359 -125 2359 c 0
 -155 2359 -180 2333 -180 2307 c 0
 -180 2287 -165 2269 -141 2269 c 0
EndSplineSet
MultipleSubs2: "Thai Tone Nikhahit Attachment" uni0E4D uni0E49
Substitution2: "Thai Tone Low Variant" uni0E49.low
Substitution2: "Thai Sara U Mai Tho Reordering" uni0E38
Substitution2: "Thai Sara UU Mai Tho Reordering" uni0E39
Substitution2: "Thai Phinthu Mai Tho Reordering" uni0E3A
EndChar

StartChar: uni0E4A
Encoding: 3658 3658 193
Width: 0
VWidth: 2045
Flags: W
HStem: 2067 89<14 96.1171> 2067 67<-264.836 -178.934> 2224 68<-261.301 -175.071> 2335 90<-262.489 -103.243 -41.3203 114.786>
VStem: -374 108<2135.1 2273.38> -174 69<2138.28 2223.75> 121 93<2213.15 2329.24> 372 91<2347.05 2458>
AnchorPoint: "AboveMark" -98 2040 mark 0
LayerCount: 2
Back
SplineSet
39 2178 m 1,0,-1
-447 2232 m 0,1,-1
 -447 2405 -310 2514 -176 2514 c 16,4,-1
 -123 2514 -80 2499 -47 2468 c 1,7,-1
 -2 2499 45 2514 98 2514 c 0,10,-1
 215 2514 288 2434 288 2330 c 0,13,-1
 288 2297 280 2263 274 2248 c 1,16,-1
 374 2313 463 2422 487 2556 c 265,19,-1
 601 2556 l 273,20,-1
 551 2272 282 2067 19 2067 c 9,23,-1
 39 2178 l 17,24,-1
 161 2201 174 2278 174 2308 c 0,27,-1
 174 2360 136 2402 79 2402 c 8,30,-1
 39 2402 3 2384 -33 2343 c 1,33,-1
 -106 2343 l 1,34,-1
 -114 2361 -136 2402 -198 2402 c 24,37,-1
 -270 2402 -328 2335 -336 2290 c 1,40,-1
 -312 2329 -273 2348 -219 2348 c 0,43,-1
 -156 2348 -109 2303 -109 2236 c 0,46,-1
 -109 2144 -188 2067 -278 2067 c 0,49,-1
 -357 2067 -447 2105 -447 2232 c 0,1,-1
-263 2151 m 0,52,-1
 -230 2151 -196 2181 -196 2218 c 0,55,-1
 -196 2245 -216 2263 -243 2263 c 0,58,-1
 -277 2263 -311 2233 -311 2197 c 0,61,-1
 -311 2171 -292 2151 -263 2151 c 0,52,-1
EndSplineSet
Fore
SplineSet
14 2156 m 1,0,-1
-374 2200 m 0,1,-1
 -374 2340 -262 2425 -157 2425 c 16,4,-1
 -115 2425 -82 2413 -55 2388 c 1,7,-1
 -19 2413 20 2425 62 2425 c 0,10,-1
 156 2425 214 2361 214 2278 c 0,13,-1
 214 2254 209 2231 202 2212 c 1,16,-1
 282 2264 354 2351 372 2458 c 265,19,-1
 463 2458 l 273,20,-1
 423 2231 208 2067 -2 2067 c 9,23,-1
 14 2156 l 17,24,-1
 112 2173 121 2236 121 2261 c 0,27,-1
 121 2302 91 2335 46 2335 c 8,30,-1
 14 2335 -15 2321 -44 2288 c 1,33,-1
 -102 2288 l 1,34,-1
 -108 2302 -126 2335 -176 2335 c 24,37,-1
 -233 2335 -280 2282 -286 2246 c 1,40,-1
 -267 2277 -236 2292 -192 2292 c 0,43,-1
 -142 2292 -105 2256 -105 2202 c 0,46,-1
 -105 2129 -167 2067 -240 2067 c 0,49,-1
 -303 2067 -374 2098 -374 2200 c 0,1,-1
-228 2134 m 0,52,-1
 -201 2134 -174 2158 -174 2188 c 0,55,-1
 -174 2210 -191 2224 -212 2224 c 0,58,-1
 -242 2224 -266 2198 -266 2171 c 0,61,-1
 -266 2150 -251 2134 -228 2134 c 0,52,-1
EndSplineSet
MultipleSubs2: "Thai Tone Nikhahit Attachment" uni0E4D uni0E4A
Substitution2: "Thai Tone Low Variant" uni0E4A.low
Substitution2: "Thai Sara U Mai Tri Reordering" uni0E38
Substitution2: "Thai Sara UU Mai Tri Reordering" uni0E39
Substitution2: "Thai Phinthu Mai Tri Reordering" uni0E3A
EndChar

StartChar: uni0E4B
Encoding: 3659 3659 194
Width: 0
VWidth: 2045
Flags: W
HStem: 2220 111<-148 -59 73 161>
VStem: -80 112<2097 2209> -17 112<2343 2455>
DStem2: -80 2097 32 2097 0.173648 0.984808<19.4486 124.778 257.013 363.501>
AnchorPoint: "AboveMark" -32 2040 mark 0
LayerCount: 2
Back
SplineSet
210 2246 m 1
 61 2246 l 1
 35 2097 l 1
 -78 2097 l 1
 -52 2246 l 1
 -202 2246 l 1
 -182 2358 l 1
 -32 2358 l 1
 -6 2508 l 1
 107 2508 l 1
 81 2358 l 1
 230 2358 l 1
 210 2246 l 1
EndSplineSet
Fore
SplineSet
161 2220 m 1xa0
 53 2220 l 1
 32 2097 l 1
 -80 2097 l 1xc0
 -59 2220 l 1
 -168 2220 l 1
 -148 2331 l 1
 -39 2331 l 1
 -17 2455 l 1
 95 2455 l 1
 73 2331 l 1
 181 2331 l 1
 161 2220 l 1xa0
EndSplineSet
MultipleSubs2: "Thai Tone Nikhahit Attachment" uni0E4D uni0E4B
Substitution2: "Thai Tone Low Variant" uni0E4B.low
Substitution2: "Thai Sara U Mai Chattawa Reordering" uni0E38
Substitution2: "Thai Sara UU Mai Chattawa Reordering" uni0E39
Substitution2: "Thai Phinthu Mai Chattawa Reordering" uni0E3A
EndChar

StartChar: uni0E4C
Encoding: 3660 3660 195
Width: 0
VWidth: 2045
Flags: W
HStem: 2079 89<-175.571 -49.1799> 2302 88<-165.689 -40.2801 46 314.777>
VStem: -269 91<2170.72 2292.44> -39 91<2178.21 2300.87>
AnchorPoint: "AboveMark" -27 2040 mark 0
LayerCount: 2
Back
SplineSet
-331 2240 m 0
 -331 2355 -226 2468 -96 2468 c 10
 255 2468 l 2
 310 2468 360 2487 405 2526 c 9
 471 2447 l 17
 400 2387 321 2357 236 2357 c 2
 64 2357 l 17
 69 2341 72 2324 72 2306 c 0
 72 2196 -32 2079 -163 2079 c 0
 -264 2079 -331 2150 -331 2240 c 0
-144 2190 m 0
 -88 2190 -43 2239 -43 2289 c 0
 -43 2327 -70 2357 -114 2357 c 0
 -170 2357 -216 2308 -216 2259 c 0
 -216 2220 -188 2190 -144 2190 c 0
EndSplineSet
Fore
SplineSet
-269 2208 m 0
 -269 2303 -182 2390 -82 2390 c 10
 199 2390 l 2
 243 2390 283 2406 320 2437 c 9
 373 2374 l 17
 315 2326 252 2302 184 2302 c 2
 46 2302 l 17
 50 2290 52 2276 52 2262 c 0
 52 2170 -32 2079 -135 2079 c 0
 -216 2079 -269 2135 -269 2208 c 0
-120 2168 m 0
 -78 2168 -39 2204 -39 2246 c 0
 -39 2277 -61 2302 -96 2302 c 0
 -139 2302 -178 2267 -178 2224 c 0
 -178 2192 -156 2168 -120 2168 c 0
EndSplineSet
MultipleSubs2: "Thai Tone Nikhahit Attachment" uni0E4D uni0E4C
Substitution2: "Thai Tone Low Variant" uni0E4C.low
Substitution2: "Thai Sara U Thanthakhat Reordering" uni0E38
Substitution2: "Thai Sara UU Thanthakhat Reordering" uni0E39
Substitution2: "Thai Phinthu Thanthakhat Reordering" uni0E3A
EndChar

StartChar: uni0E4D
Encoding: 3661 3661 196
Width: 0
VWidth: 2045
Flags: W
HStem: 1401 112<-193.066 -44.5885> 1681 112<-177.715 -31.4124>
VStem: -313 114<1519.64 1661.28> -26 116<1531.05 1675.71>
AnchorPoint: "AboveMark" -34 2040 basemark 0
AnchorPoint: "AboveBase" 47 1370 mark 0
LayerCount: 2
Back
SplineSet
-317.812 1555 m 132
 -308.29 1609 -280.816 1655.17 -235.391 1693.5 c 132
 -189.965 1731.83 -139.752 1751 -84.752 1751 c 132
 -29.752 1751 13.7018 1731.83 45.6094 1693.5 c 132
 77.5169 1655.17 88.71 1609 79.1885 1555 c 132
 69.667 1501 42.1933 1454.83 -3.23242 1416.5 c 132
 -48.6589 1378.17 -98.8721 1359 -153.872 1359 c 132
 -208.872 1359 -252.325 1378.17 -284.232 1416.5 c 132
 -316.14 1454.83 -327.333 1501 -317.812 1555 c 132
-204.988 1554 m 132
 -209.102 1530.67 -204.07 1511 -189.892 1495 c 132
 -175.713 1479 -156.956 1471 -133.623 1471 c 132
 -110.29 1471 -88.8792 1479 -69.3916 1495 c 132
 -49.9033 1511 -38.1022 1530.67 -33.9883 1554 c 132
 -29.8737 1577.33 -34.6803 1597.33 -48.4082 1614 c 132
 -62.1361 1630.67 -80.6667 1639 -104 1639 c 132
 -127.333 1639 -148.969 1630.67 -168.908 1614 c 132
 -188.847 1597.33 -200.873 1577.33 -204.988 1554 c 132
EndSplineSet
Fore
SplineSet
90 1630 m 0
 90 1514 -19 1401 -147 1401 c 0
 -248 1401 -313 1472 -313 1562 c 0
 -313 1687 -198 1793 -78 1793 c 0
 25 1793 90 1721 90 1630 c 0
-126 1513 m 0
 -73 1513 -26 1559 -26 1612 c 0
 -26 1652 -57 1681 -97 1681 c 0
 -157 1681 -199 1627 -199 1582 c 0
 -199 1540 -166 1513 -126 1513 c 0
EndSplineSet
Substitution2: "Thai Mark High Variant" uni0E4D.high
Substitution2: "Thai Sara U Nikhahit Reordering" uni0E38
Substitution2: "Thai Sara UU Nikhahit Reordering" uni0E39
Substitution2: "Thai Phinthu Nikhahit Reordering" uni0E3A
EndChar

StartChar: uni0E4E
Encoding: 3662 3662 197
Width: 0
VWidth: 2045
Flags: W
HStem: 1420 112<-285.753 -227> 1756 112<-262.317 -128.402> 1993 112<17.0067 194.815>
VStem: -417 115<1545.97 1717.16> 209 114<1881 1979.53>
AnchorPoint: "AboveBase" 102 1370 mark 0
LayerCount: 2
Fore
SplineSet
-134 1866 m 1
 -96 2056 51 2105 134 2105 c 0
 250 2105 323 2023 323 1920 c 0
 323 1907 322 1894 320 1881 c 1
 207 1881 l 1
 208 1887 209 1893 209 1899 c 0
 209 1951 171 1993 113 1993 c 0
 46 1993 -21 1932 -21 1860 c 0
 -21 1838 -14 1818 1 1802 c 1
 -13 1722 l 1
 -92 1722 l 1
 -111 1745 -136 1756 -166 1756 c 0
 -234 1756 -302 1694 -302 1624 c 0
 -302 1571 -262 1532 -207 1532 c 1
 -227 1420 l 1
 -338 1420 -417 1498 -417 1603 c 0
 -417 1745 -287 1867 -148 1868 c 0
 -143 1868 -139 1867 -134 1866 c 1
EndSplineSet
EndChar

StartChar: uni0E4F
Encoding: 3663 3663 198
Width: 977
VWidth: 2045
Flags: W
HStem: 0 112<350.436 681.197> 225 112<465.528 643.276> 560 112<488.981 668.286> 782 112<451.566 783.764>
VStem: 109 112<239.046 555.017> 338 114<349.515 523.117> 682 114<374.997 547.039> 913 112<337.953 655.154>
LayerCount: 2
Fore
SplineSet
547 337 m 0
 616 337 682 397 682 468 c 0
 682 522 642 560 587 560 c 0
 518 560 452 500 452 429 c 0
 452 375 492 337 547 337 c 0
796 487 m 0
 796 349 670 225 528 225 c 0
 411 225 338 306 338 409 c 0
 338 541 456 672 606 672 c 0
 722 672 796 590 796 487 c 0
508 112 m 0
 719 112 913 297 913 506 c 0
 913 664 795 782 626 782 c 0
 415 782 221 597 221 388 c 0
 221 230 339 112 508 112 c 0
1025 524 m 0
 1025 247 762 0 488 0 c 0
 265 0 109 162 109 370 c 0
 109 642 366 894 646 894 c 0
 870 894 1025 733 1025 524 c 0
EndSplineSet
EndChar

StartChar: uni0E50
Encoding: 3664 3664 199
Width: 1267
VWidth: 2045
Flags: W
HStem: 0 112<462.893 849.528> 782 112<569.318 956.644>
VStem: 195 118<252.06 553.683> 1111 116<342.608 637.571>
LayerCount: 2
Fore
SplineSet
653 112 m 0
 907 112 1111 305 1111 496 c 0
 1111 653 976 782 771 782 c 0
 516 782 313 591 313 397 c 0
 313 238 448 112 653 112 c 0
1227 515 m 0
 1227 252 953 0 632 0 c 0
 371 0 195 171 195 380 c 0
 195 651 482 894 790 894 c 0
 1051 894 1227 726 1227 515 c 0
EndSplineSet
EndChar

StartChar: uni0E51
Encoding: 3665 3665 200
Width: 1318
VWidth: 2045
Flags: W
HStem: 0 102<400.661 601.367> 384 112<632.367 778.792> 782 112<596.284 977.75>
VStem: 189 116<195.472 517.81> 497 115<222.846 364.772> 783 113<239.732 378.267> 1151 114<246.142 613.267>
LayerCount: 2
Fore
SplineSet
497 263 m 0
 497 391 612 496 731 496 c 0
 819 496 896 441 896 328 c 0
 896 139 681 0 520 0 c 0
 301 0 189 137 189 323 c 0
 189 628 495 894 812 894 c 0
 1032 894 1265 756 1265 469 c 0
 1265 226 1114 -26 803 -137 c 1
 784 -50 l 1
 1029 35 1151 250 1151 436 c 0
 1151 635 1011 782 792 782 c 0
 562 782 305 599 305 345 c 0
 305 161 449 102 537 102 c 0
 568 102 591 109 605 121 c 1
 577 124 497 161 497 263 c 0
682 218 m 0
 733 218 783 262 783 315 c 0
 783 353 756 384 712 384 c 0
 663 384 612 340 612 285 c 0
 612 247 639 218 682 218 c 0
EndSplineSet
EndChar

StartChar: uni0E52
Encoding: 3666 3666 201
Width: 1519
VWidth: 2045
Flags: W
HStem: 0 112<319 1217.61> 237 112<629.637 778.574> 517 109<642.737 791.699> 779 115<723.415 982.456 1151.22 1369> 1205 112<304 367.286>
VStem: 379 115<867.812 1191.13> 492 133<355.462 575.125> 798 113<370.599 510.364> 1404 111<358.485 742.515>
DStem2: 184 0 299.251 0 0.173648 0.984808<133.741 1131.64>
LayerCount: 2
Fore
SplineSet
1104 112 m 18xfd80
 1284 112 1404 381 1404 598 c 0
 1404 753 1326 782 1266 782 c 0
 1161 782 1124 719 1109 637 c 2
 1093 547 l 1
 980 547 l 1
 996 637 l 2
 998 650 1000 662 1000 674 c 0
 1000 738 962 779 857 779 c 0
 711 779 610 653 594 553 c 1
 637 601 687 626 744 626 c 0
 849 626 911 557 911 469 c 0
 911 350 806 237 676 237 c 0
 635 237 492 257 492 448 c 0xfb80
 492 716 702 894 890 894 c 0
 974 894 1038 861 1082 794 c 1
 1153 861 1221 894 1286 894 c 16
 1385 894 1515 837 1515 602 c 0
 1515 247 1288 0 1082 0 c 10
 184 0 l 1
 377 1094 l 2
 378 1101 379 1109 379 1115 c 0
 379 1171 337 1205 284 1205 c 9
 304 1317 l 17
 415 1317 494 1239 494 1134 c 0
 494 1121 492 1108 490 1094 c 2
 319 112 l 1
 1104 112 l 18xfd80
696 349 m 0
 747 349 798 394 798 447 c 0
 798 485 769 517 725 517 c 0
 671 517 625 470 625 419 c 0
 625 381 652 349 696 349 c 0
EndSplineSet
EndChar

StartChar: uni0E53
Encoding: 3667 3667 202
Width: 1519
VWidth: 2045
Flags: W
HStem: 0 112<371.877 520.633> 279 112<386.024 532.343> 782 112<494.984 801.966 1060.55 1309.12>
VStem: 179 115<297.471 555.968> 538 116<129.819 274.346> 744 113<0 113> 1253 113<0 113> 1359 115<508.214 586 621 732.885>
DStem2: 744 0 857 0 0.173648 0.984808<19.6222 630.403> 1253 0 1366 0 0.173648 0.984808<19.6222 629.464>
LayerCount: 2
Fore
SplineSet
418 0 m 0xfd
 549 0 654 116 654 229 c 0
 654 320 586 391 487 391 c 0
 386 391 323 325 302 296 c 1
 297 310 294 328 294 350 c 0
 294 442 333 782 685 782 c 16
 780 782 850 717 850 622 c 0
 850 610 849 598 847 586 c 2
 744 0 l 1
 857 0 l 1
 960 586 l 2
 981 701 1087 782 1193 782 c 0
 1293 782 1359 712 1359 621 c 0xfd
 1359 610 1358 598 1356 586 c 2
 1253 0 l 1
 1366 0 l 1xfe
 1469 586 l 2
 1472 605 1474 623 1474 640 c 0
 1474 784 1369 894 1213 894 c 0
 1050 894 960 788 937 763 c 1
 918 789 865 894 705 894 c 8
 339 894 179 591 179 309 c 0
 179 78 314 0 418 0 c 0xfd
538 210 m 0
 538 162 497 112 439 112 c 0
 396 112 367 142 367 181 c 0
 367 235 418 279 468 279 c 0
 511 279 538 248 538 210 c 0
EndSplineSet
EndChar

StartChar: uni0E54
Encoding: 3668 3668 203
Width: 1519
VWidth: 2045
Flags: W
HStem: 0 112<425.206 785 911.703 1332> 275 112<820.761 970.568> 553 112<835.101 982.304> 782 112<526.977 1454.44>
VStem: 182 114<233.006 556.58> 665 152<289.586 532.566> 988 115<405.426 548.63> 1558 113<978 1091>
LayerCount: 2
Fore
SplineSet
182 371 m 0
 182 637 431 894 722 894 c 2
 1326 894 l 2
 1439 894 1540 984 1558 1091 c 9
 1671 1091 l 17
 1641 921 1480 782 1306 782 c 2
 702 782 l 2
 478 782 296 590 296 386 c 0
 296 223 420 112 581 112 c 2
 785 112 l 17
 700 178 665 283 665 379 c 0
 665 570 812 665 937 665 c 0
 1036 665 1103 594 1103 504 c 0
 1103 380 987 275 868 275 c 0
 847 275 830 276 817 279 c 1
 822 245 847 209 893 170 c 0
 939 131 1016 112 1124 112 c 10
 1352 112 l 1
 1332 0 l 1
 561 0 l 2
 338 0 182 161 182 371 c 0
887 387 m 0
 938 387 988 431 988 484 c 0
 988 522 961 553 917 553 c 0
 868 553 817 510 817 455 c 0
 817 416 844 387 887 387 c 0
EndSplineSet
EndChar

StartChar: uni0E55
Encoding: 3669 3669 204
Width: 1519
VWidth: 2045
Flags: W
HStem: 0 112<425.206 785 911.703 1332> 275 112<820.761 970.568> 553 112<835.101 982.304> 782 135<766.321 914.587> 782 112<995 1454.44> 1084 112<778.708 930.206>
VStem: 182 114<233.006 560.098> 646 116<921.625 1065.33> 665 152<289.586 532.566> 934 114<936.662 1079.3> 988 115<405.426 548.63> 1558 113<978 1091>
LayerCount: 2
Fore
SplineSet
646 965 m 0xef10
 646 1080 751 1196 881 1196 c 0
 983 1196 1048 1125 1048 1035 c 0xef50
 1048 979 1025 929 995 894 c 9
 1326 894 l 2
 1439 894 1540 984 1558 1091 c 9
 1671 1091 l 17
 1641 921 1480 782 1306 782 c 2
 702 782 l 2
 478 782 296 590 296 386 c 0
 296 223 420 112 581 112 c 2
 785 112 l 17
 700 178 665 283 665 379 c 0
 665 570 812 665 937 665 c 0
 1036 665 1103 594 1103 504 c 0
 1103 380 987 275 868 275 c 0
 847 275 830 276 817 279 c 1xeeb0
 822 245 847 209 893 170 c 0
 939 131 1016 112 1124 112 c 10
 1352 112 l 1
 1332 0 l 1
 561 0 l 2
 338 0 182 161 182 371 c 0
 182 636 422 865 663 891 c 1
 652 914 646 938 646 965 c 0xef10
833 917 m 0xf750
 891 917 934 970 934 1016 c 0
 934 1057 902 1084 862 1084 c 0
 815 1084 762 1045 762 987 c 0
 762 949 789 917 833 917 c 0xf750
887 387 m 0
 938 387 988 431 988 484 c 0
 988 522 961 553 917 553 c 0
 868 553 817 510 817 455 c 0xe6b0
 817 416 844 387 887 387 c 0
EndSplineSet
EndChar

StartChar: uni0E56
Encoding: 3670 3670 205
Width: 1412
VWidth: 2045
Flags: W
HStem: 0 112<493.891 885.026> 396 112<390.411 538.551> 782 112<535.915 1071.04>
VStem: 243 128<232.601 376.758> 384 115<944.281 1336.32> 544 115<248.286 391.392> 1225 118<385.438 647.025>
DStem2: 175.325 0 287.704 0 0.173648 0.984808<838.964 1221.39>
LayerCount: 2
Fore
SplineSet
667 112 m 0
 1001 112 1225 356 1225 516 c 0
 1225 674 1063 782 880 782 c 0
 525 782 366 678 285 622 c 9
 381 1168 l 2
 383 1180 384 1192 384 1204 c 0
 384 1242 372 1277 347 1307 c 9
 441 1385 l 17
 480 1338 499 1284 499 1223 c 0
 499 1205 497 1187 494 1168 c 2
 430 807 l 1
 519 850 633 894 888 894 c 0
 1110 894 1343 767 1343 537 c 0
 1343 294 1040 0 607 0 c 0
 310 0 243 143 243 248 c 0
 243 400 371 508 492 508 c 0
 594 508 659 437 659 347 c 0
 659 259 599 166 492 127 c 1
 509 115 651 112 667 112 c 0
442 228 m 0
 498 228 544 277 544 327 c 0
 544 366 516 396 472 396 c 0
 416 396 371 347 371 297 c 0
 371 259 398 228 442 228 c 0
EndSplineSet
EndChar

StartChar: uni0E57
Encoding: 3671 3671 206
Width: 1385
VWidth: 2045
Flags: W
HStem: 0 112<327.313 475.059 1029 1135.32> 279 112<339.786 486.845> 782 112<390.76 592.413 780.531 989.504>
VStem: 148 108<301.1 579.726> 492 116<130.073 274.858> 584 113<476 589> 1011 115<564.521 759.723>
DStem2: 500.068 0 613.068 0 0.173648 0.984808<502.965 677.44> 896 0 1009.25 0 0.173648 0.984808<133.394 678.391> 1149.74 0 1262.74 0 0.173648 0.984808<147.554 1202.45>
LayerCount: 2
Fore
SplineSet
608 229 m 0xfa
 608 105 492 0 372 0 c 0
 211 0 148 140 148 309 c 0
 148 476 219 894 518 894 c 0
 597 894 654 865 699 801 c 1
 720 822 795 894 912 894 c 0
 1040 894 1126 804 1126 688 c 0
 1126 673 1125 658 1122 643 c 2
 1029 112 l 17
 1108 112 1181 177 1194 251 c 2
 1332 1033 l 2
 1348 1123 1391 1196 1462 1251 c 9
 1527 1172 l 17
 1481 1135 1455 1089 1445 1033 c 2
 1307 251 l 18
 1283 112 1149 0 1009 0 c 2
 896 0 l 1
 1009 643 l 2
 1011 652 1011 660 1011 669 c 0
 1011 733 965 782 892 782 c 0
 811 782 740 719 726 643 c 2
 697 476 l 1
 584 476 l 1xf6
 613 643 l 2
 615 652 615 660 615 668 c 0
 615 735 566 782 498 782 c 0
 295 782 261 439 256 296 c 1
 277 325 340 391 441 391 c 0
 541 391 608 321 608 229 c 0xfa
394 112 m 0
 448 112 492 158 492 211 c 0xfa
 492 249 466 279 423 279 c 0
 370 279 321 233 321 181 c 0
 321 139 353 112 394 112 c 0
EndSplineSet
EndChar

StartChar: uni0E58
Encoding: 3672 3672 207
Width: 1519
VWidth: 2045
Flags: W
HStem: 0 104<921.93 1010> 308 116<499.919 647.906 1089.57 1240.13> 782 112<478.141 652 1306 1457.92>
VStem: 163 118<207.3 582.285> 962 111<146.98 289.323> 1245 114<160.886 302.497> 1558 113<978 1091>
LayerCount: 2
Fore
SplineSet
281 372 m 0
 281 675 492 782 632 782 c 2
 1306 782 l 2
 1477 782 1641 919 1671 1091 c 9
 1558 1091 l 17
 1538 976 1432 894 1326 894 c 2
 652 894 l 2
 421 894 163 691 163 384 c 0
 163 240 216 66 415 0 c 1
 465 222 494 308 569 308 c 0
 604 308 666 257 755 154 c 0
 845 51 946 0 1057 0 c 0
 1232 0 1359 126 1359 258 c 0
 1359 357 1287 420 1193 420 c 0
 1081 420 962 328 962 197 c 0
 962 156 977 125 1010 104 c 1
 1008 104 l 2
 880 104 760 424 585 424 c 0
 428 424 375 253 362 180 c 0
 359 159 l 1
 300 229 281 298 281 372 c 0
1245 239 m 0
 1245 190 1200 142 1144 142 c 0
 1101 142 1073 171 1073 210 c 0
 1073 260 1115 308 1173 308 c 0
 1216 308 1245 278 1245 239 c 0
EndSplineSet
EndChar

StartChar: uni0E59
Encoding: 3673 3673 208
Width: 1519
VWidth: 2045
Flags: W
HStem: 0 151<434.096 677.767> 319 111<551.638 699.335> 782 112<536.163 933.7 1147.21 1406.35>
VStem: 184 114<173.284 545.083> 415 116<155.808 298.141> 704 116<170.14 312.49> 997 113<0 113> 1075 114<329.05 644.807>
DStem2: 997 0 1110 0 0.173648 0.984808<19.6222 487.021> 1319.83 0 1432.92 0 0.173648 0.984808<859.051 1341.54>
LayerCount: 2
Fore
SplineSet
184 326 m 0xfd
 184 642 415 894 763 894 c 0
 870 894 955 885 1055 794 c 1
 1138 861 1218 894 1295 894 c 0
 1378 894 1436 878 1469 846 c 9
 1526 1168 l 2
 1541 1251 1584 1324 1656 1385 c 9
 1721 1307 l 17
 1676 1272 1649 1225 1639 1168 c 2
 1556 698 l 25
 1434 646 l 17
 1434 653 l 2
 1434 741 1377 782 1275 782 c 0
 1224 782 1175 762 1127 723 c 1
 1153 695 1189 606 1189 493 c 0xfd
 1189 464 1186 433 1181 402 c 2
 1110 0 l 1
 997 0 l 1xfe
 1068 402 l 2
 1073 430 1075 456 1075 482 c 0
 1075 664 953 782 743 782 c 0
 481 782 298 609 298 339 c 0
 298 153 406 112 446 106 c 1
 425 130 415 159 415 195 c 0
 415 336 541 430 652 430 c 0
 748 430 820 363 820 269 c 0
 820 224 800 132 703 61 c 0
 647 20 564 0 454 0 c 0
 336 0 184 86 184 326 c 0xfd
603 151 m 0
 654 151 704 195 704 248 c 0
 704 287 676 319 632 319 c 0
 574 319 531 266 531 219 c 0
 531 177 563 151 603 151 c 0
EndSplineSet
EndChar

StartChar: uni0E5A
Encoding: 3674 3674 209
Width: 1276
VWidth: 2045
Flags: W
HStem: 0 21G<825 941.525 1031 1147.52> 764 112<519.557 780.271> 1142 112<389.585 535.804>
VStem: 255 117<979.333 1124.06> 542 115<993.207 1136> 825 113<0 113> 1031 113<0 113> 1251 114<1135 1249>
DStem2: 825 0 938 0 0.173648 0.984808<19.6222 956.515 1090.37 1273.33> 1031 0 1144 0 0.173648 0.984808<19.6222 1268.23>
LayerCount: 2
Fore
SplineSet
1251 1249 m 25
 1365 1254 l 25
 1144 0 l 1
 1031 0 l 1
 1251 1249 l 25
657 1092 m 0
 657 1042 634 943 516 882 c 1
 540 878 567 876 598 876 c 256
 809 876 1009 1043 1046 1254 c 9
 1159 1254 l 25
 938 0 l 1
 825 0 l 1
 991 942 l 17
 895 850 754 764 579 764 c 256
 321 764 255 896 255 1008 c 0
 255 1166 385 1254 491 1254 c 0
 587 1254 657 1187 657 1092 c 0
442 973 m 0
 492 973 542 1019 542 1071 c 0
 542 1110 515 1142 471 1142 c 0
 420 1142 372 1098 372 1043 c 0
 372 1004 399 973 442 973 c 0
EndSplineSet
EndChar

StartChar: uni0E5B
Encoding: 3675 3675 210
Width: 2472
VWidth: 2045
Flags: W
HStem: 0 109<447.831 821.473> 345 113<674.399 819.245> 432 112<2293.17 2471> 625 112<687.3 833.374> 944 114<562.991 876.861>
VStem: 166 116<278.73 646.692> 553 115<463.667 606.035> 980 105<603.091 842.609>
DStem2: 1095 394 1178 361 0.486508 0.873676<-207.321 290.99> 1392 737 1316 604 0.164837 -0.986321<118.653 370.062> 1453 372 1483 239 0.45982 0.888012<0 306.26> 1749 737 1671 604 0.164837 -0.986321<118.323 370.062> 1810 372 1838 239 0.461735 0.887018<0 306.446> 2104 737 2028 604 0.164837 -0.986321<118.653 370.062>
LayerCount: 2
Fore
SplineSet
712 944 m 0xdf
 534 944 282 729 282 459 c 0
 282 289 385 109 631 109 c 0
 816 109 1006 233 1095 394 c 10
 1286 737 l 9
 1392 737 l 17
 1453 372 l 25
 1642 737 l 9
 1749 737 l 17
 1810 372 l 25
 1998 737 l 9
 2104 737 l 17
 2165 372 l 17
 2238 487 2306 544 2370 544 c 2
 2491 544 l 1
 2471 432 l 1
 2358 432 l 26xbf
 2319 432 2265 368 2195 239 c 9
 2088 239 l 17
 2028 604 l 25
 1838 239 l 9
 1731 239 l 17
 1671 604 l 25
 1483 239 l 9
 1376 239 l 17
 1316 604 l 25
 1178 361 l 2
 1110 241 909 0 602 0 c 0
 322 0 166 199 166 434 c 0
 166 769 475 1058 744 1058 c 0
 909 1058 1085 963 1085 746 c 0
 1085 491 864 345 741 345 c 0
 614 345 553 417 553 505 c 0
 553 629 665 737 787 737 c 0
 922 737 947 630 945 601 c 1
 964 617 980 660 980 710 c 0
 980 820 900 944 712 944 c 0xdf
738 458 m 0xdf
 790 458 838 505 838 557 c 0
 838 596 810 625 767 625 c 0
 711 625 668 576 668 527 c 0
 668 489 695 458 738 458 c 0xdf
EndSplineSet
EndChar

StartChar: zerowidthjoiner
Encoding: 8205 8205 211
Width: 0
VWidth: 2045
Flags: W
LayerCount: 2
Back
SplineSet
-11.4902 -275 m 1
 -85.4902 -275 l 1
 159.252 1113 l 1
 1.27148 977 l 1
 -38.9121 1027 l 1
 161.887 1196 l 1
 20.1572 1362 l 1
 77.9736 1412 l 1
 218.998 1242 l 1
 419.974 1412 l 1
 460.157 1362 l 1
 259.887 1196 l 1
 401.088 1027 l 1
 343.271 977 l 1
 233.252 1113 l 1
 -11.4902 -275 l 1
EndSplineSet
EndChar

StartChar: afii299
Encoding: 8206 8206 212
Width: 0
VWidth: 2045
Flags: W
LayerCount: 2
Back
SplineSet
641.24 1198 m 1
 386.329 983 l 1
 347.146 1033 l 1
 505.068 1163 l 1
 240.068 1163 l 1
 -13.4902 -275 l 1
 -85.4902 -275 l 1
 180.234 1232 l 1
 517.234 1232 l 1
 405.157 1362 l 1
 461.974 1412 l 1
 641.24 1198 l 1
EndSplineSet
EndChar

StartChar: afii300
Encoding: 8207 8207 213
Width: 0
VWidth: 2045
Flags: W
LayerCount: 2
Back
SplineSet
-13.4902 -275 m 1
 -85.4902 -275 l 1
 168.068 1163 l 1
 -96.9316 1163 l 1
 17.1455 1033 l 1
 -39.6709 983 l 1
 -218.761 1198 l 1
 35.9736 1412 l 1
 75.1572 1362 l 1
 -84.7656 1232 l 1
 252.234 1232 l 1
 -13.4902 -275 l 1
EndSplineSet
EndChar

StartChar: uni2010
Encoding: 8208 8208 214
Width: 971
VWidth: 2045
Flags: W
HStem: 580 165<320.363 916.27>
LayerCount: 2
Fore
SplineSet
320.363 745 m 1
 945.363 745 l 1
 916.27 580 l 1
 291.27 580 l 1
 320.363 745 l 1
EndSplineSet
EndChar

StartChar: endash
Encoding: 8211 8211 215
Width: 1123
VWidth: 2045
Flags: W
HStem: 571 160<125.895 1221.68>
LayerCount: 2
Fore
SplineSet
1221.68 571 m 1
 97.6826 571 l 1
 125.895 731 l 1
 1249.89 731 l 1
 1221.68 571 l 1
EndSplineSet
EndChar

StartChar: emdash
Encoding: 8212 8212 216
Width: 1882
VWidth: 2045
Flags: W
HStem: 571 160<125.895 1963.68>
LayerCount: 2
Fore
SplineSet
1963.68 571 m 1
 97.6826 571 l 1
 125.895 731 l 1
 1991.89 731 l 1
 1963.68 571 l 1
EndSplineSet
EndChar

StartChar: horizontalbar
Encoding: 8213 8213 217
Width: 1858
VWidth: 2045
Flags: W
HStem: 571 160<238.895 1850.68>
LayerCount: 2
Fore
SplineSet
1850.68 571 m 1
 210.683 571 l 1
 238.895 731 l 1
 1878.89 731 l 1
 1850.68 571 l 1
EndSplineSet
EndChar

StartChar: underscoredbl
Encoding: 8215 8215 218
Width: 1115
VWidth: 2045
Flags: W
HStem: -423 130<-66.6641 1058.41> -211 130<-29.2822 1095.79>
LayerCount: 2
Fore
SplineSet
1095.79 -211 m 1
 -52.2051 -211 l 1
 -29.2822 -81 l 1
 1118.72 -81 l 1
 1095.79 -211 l 1
1058.41 -423 m 1
 -89.5859 -423 l 1
 -66.6641 -293 l 1
 1081.34 -293 l 1
 1058.41 -423 l 1
EndSplineSet
EndChar

StartChar: quoteleft
Encoding: 8216 8216 219
Width: 448
VWidth: 2045
Flags: W
LayerCount: 2
Fore
SplineSet
510.798 997 m 1
 372.798 997 l 1
 210.365 1556 l 1
 451.365 1556 l 1
 510.798 997 l 1
EndSplineSet
EndChar

StartChar: quoteright
Encoding: 8217 8217 220
Width: 577
VWidth: 2045
Flags: W
LayerCount: 2
Fore
SplineSet
769.365 1556 m 1
 410.798 997 l 1
 273.798 997 l 1
 527.365 1556 l 1
 769.365 1556 l 1
EndSplineSet
EndChar

StartChar: quotesinglbase
Encoding: 8218 8218 221
Width: 429
VWidth: 2045
Flags: W
LayerCount: 2
Fore
SplineSet
436.077 284 m 1
 76.5098 -275 l 1
 -60.4902 -275 l 1
 193.077 284 l 1
 436.077 284 l 1
EndSplineSet
EndChar

StartChar: quotereversed
Encoding: 8219 8219 222
Width: 429
VWidth: 2045
Flags: W
LayerCount: 2
Fore
SplineSet
609.365 1556 m 1
 352.798 997 l 1
 111.798 997 l 1
 471.365 1556 l 1
 609.365 1556 l 1
EndSplineSet
EndChar

StartChar: quotedblleft
Encoding: 8220 8220 223
Width: 847
VWidth: 2045
Flags: W
LayerCount: 2
Fore
SplineSet
899.798 997 m 1
 767.798 997 l 1
 603.365 1556 l 1
 841.365 1556 l 1
 899.798 997 l 1
506.798 997 m 1
 372.798 997 l 1
 210.365 1556 l 1
 448.365 1556 l 1
 506.798 997 l 1
EndSplineSet
EndChar

StartChar: quotedblright
Encoding: 8221 8221 224
Width: 998
VWidth: 2045
Flags: W
LayerCount: 2
Fore
SplineSet
1169.37 1556 m 1
 809.798 997 l 1
 675.798 997 l 1
 931.365 1556 l 1
 1169.37 1556 l 1
776.365 1556 m 1
 416.798 997 l 1
 282.798 997 l 1
 538.365 1556 l 1
 776.365 1556 l 1
EndSplineSet
EndChar

StartChar: quotedblbase
Encoding: 8222 8222 225
Width: 812
VWidth: 2045
Flags: W
LayerCount: 2
Fore
SplineSet
831.077 284 m 1
 469.51 -275 l 1
 337.51 -275 l 1
 593.077 284 l 1
 831.077 284 l 1
437.077 284 m 1
 76.5098 -275 l 1
 -56.4902 -275 l 1
 199.077 284 l 1
 437.077 284 l 1
EndSplineSet
EndChar

StartChar: dagger
Encoding: 8224 8224 226
Width: 1115
VWidth: 2045
Flags: W
HStem: 1033 130<339.068 680.204 823.011 1164.15>
VStem: 515.98 133<136 269> 766.365 133<1423 1556>
DStem2: 515.98 136 648.98 136 0.173648 0.984808<23.0952 917.799 1058.8 1441.91>
LayerCount: 2
Fore
SplineSet
1164.15 1033 m 1
 802.204 1039 l 1
 648.98 136 l 1
 515.98 136 l 1
 680.204 1039 l 1
 316.146 1033 l 1
 339.068 1163 l 1
 701.011 1157 l 1
 766.365 1556 l 1
 899.365 1556 l 1
 823.011 1157 l 1
 1187.07 1163 l 1
 1164.15 1033 l 1
EndSplineSet
EndChar

StartChar: daggerdbl
Encoding: 8225 8225 227
Width: 1115
VWidth: 2045
Flags: W
HStem: 508 128<246.144 587.279 730.263 1071.57> 1048 119<340.655 681.791 824.773 1166.08>
VStem: 513.864 133<124 257> 766.365 133<1423 1556>
DStem2: 513.864 124 646.864 124 0.173648 0.984808<23.0952 394.854 536.875 939.123 1081.14 1454.09>
LayerCount: 2
Fore
SplineSet
1071.57 508 m 1
 709.279 512 l 1
 646.864 124 l 1
 513.864 124 l 1
 587.279 512 l 1
 223.574 508 l 1
 246.144 636 l 1
 608.263 631 l 1
 681.791 1048 l 1
 318.085 1044 l 1
 340.655 1172 l 1
 702.773 1167 l 1
 766.365 1556 l 1
 899.365 1556 l 1
 824.773 1167 l 1
 1188.66 1172 l 1
 1166.08 1044 l 1
 803.791 1048 l 1
 730.263 631 l 1
 1094.14 636 l 1
 1071.57 508 l 1
EndSplineSet
EndChar

StartChar: bullet
Encoding: 8226 8226 228
Width: 948
VWidth: 2045
Flags: W
HStem: 311 701<466.165 696.203>
VStem: 224 715<553.335 773.282>
LayerCount: 2
Fore
SplineSet
224 598 m 0
 224 817 424 1012 641 1012 c 0
 815 1012 939 890 939 723 c 0
 939 516 747 311 520 311 c 0
 351 311 224 430 224 598 c 0
EndSplineSet
EndChar

StartChar: ellipsis
Encoding: 8230 8230 229
Width: 1648
VWidth: 2045
Flags: W
HStem: 0 224<216.497 381 774.497 938 1330.5 1494>
VStem: 177 204<0 204> 216.497 204<20 224> 735 203<0 203> 774.497 203<21 224> 1291 203<0 203> 1330.5 203<21 224>
LayerCount: 2
Fore
SplineSet
1494 0 m 1x84
 1291 0 l 1x84
 1330.5 224 l 1
 1533.5 224 l 1x82
 1494 0 l 1x84
938 0 m 1x90
 735 0 l 1x90
 774.497 224 l 1
 977.497 224 l 1x88
 938 0 l 1x90
381 0 m 1xc0
 177 0 l 1xc0
 216.497 224 l 1
 420.497 224 l 1xa0
 381 0 l 1xc0
EndSplineSet
EndChar

StartChar: perthousand
Encoding: 8240 8240 230
Width: 2843
VWidth: 2045
Flags: W
HStem: -29 133<1453.14 1668.6 2296 2516.1> 0 21G<527 705.996> 634 133<480.512 697.577> 720 133<1559.11 1778.4 2401.83 2621.46> 1384 133<590.825 806.015>
VStem: 278 177<792.339 1193.27> 527 165<0 165> 833 176<953.986 1357.12> 1250 176<131.292 527.268> 1570 164<1325 1489> 1806 176<295.404 693.434> 2093 175<131.675 526.296> 2649 176<291.687 693.461>
DStem2: 527 0 692 0 0.573721 0.819051<94.6639 1817.96>
LayerCount: 2
Fore
SplineSet
721 1517 m 0x2ff8
 897 1517 1009 1433 1009 1219 c 0
 1009 1056 946 634 566 634 c 0
 390 634 278 718 278 930 c 0
 278 1107 345 1514 721 1517 c 0x2ff8
1734 1489 m 1
 692 0 l 1
 527 0 l 1x4ff8
 1570 1489 l 1
 1734 1489 l 1
1693 853 m 0x9ff8
 1869 853 1982 767 1982 555 c 0
 1982 374 1908 -29 1538 -29 c 0
 1362 -29 1250 58 1250 271 c 0
 1250 484 1338 853 1693 853 c 0x9ff8
589 767 m 0x2ff8
 811 767 833 1151 833 1221 c 0
 833 1353 779 1384 698 1384 c 0
 480 1384 455 1004 455 924 c 0
 455 793 509 767 589 767 c 0x2ff8
1561 104 m 0x9ff8
 1785 104 1806 501 1806 562 c 0
 1806 692 1751 720 1671 720 c 0
 1451 720 1426 339 1426 264 c 0
 1426 132 1481 104 1561 104 c 0x9ff8
2537 853 m 0
 2757 853 2825 723 2825 557 c 0
 2825 347 2738 -29 2382 -29 c 0
 2205 -29 2093 58 2093 271 c 0
 2093 481 2180 853 2537 853 c 0
2405 104 m 0
 2623 104 2649 480 2649 557 c 0
 2649 688 2594 720 2514 720 c 0
 2292 720 2268 337 2268 265 c 0
 2268 134 2323 104 2405 104 c 0
EndSplineSet
EndChar

StartChar: minute
Encoding: 8242 8242 231
Width: 600
VWidth: 2045
Flags: W
LayerCount: 2
Fore
SplineSet
832.551 1489 m 1
 426.404 870 l 1
 290.404 870 l 1
 593.551 1489 l 1
 832.551 1489 l 1
EndSplineSet
EndChar

StartChar: second
Encoding: 8243 8243 232
Width: 969
VWidth: 2045
Flags: W
LayerCount: 2
Fore
SplineSet
829.551 1489 m 1
 421.404 870 l 1
 290.404 870 l 1
 593.551 1489 l 1
 829.551 1489 l 1
1222.55 1489 m 1
 815.404 870 l 1
 684.404 870 l 1
 986.551 1489 l 1
 1222.55 1489 l 1
EndSplineSet
EndChar

StartChar: guilsinglleft
Encoding: 8249 8249 233
Width: 782
VWidth: 2045
Flags: W
DStem2: 416.965 652 229.03 607 0.706536 -0.707678<0 397.131> 245.076 698 416.965 652 0.804915 0.593391<111.06 584.111>
LayerCount: 2
Fore
SplineSet
663.328 172 m 1
 229.03 607 l 1
 245.076 698 l 1
 832.426 1131 l 1
 797.513 933 l 1
 416.965 652 l 1
 698.594 372 l 1
 663.328 172 l 1
EndSplineSet
EndChar

StartChar: guilsinglright
Encoding: 8250 8250 234
Width: 782
VWidth: 2045
Flags: W
DStem2: 216.594 372 181.328 172 0.802805 0.596242<0 472.311> 350.426 1131 315.513 933 0.706821 -0.707393<115.387 513.1>
LayerCount: 2
Fore
SplineSet
767.03 607 m 1
 181.328 172 l 1
 216.594 372 l 1
 596.965 652 l 1
 315.513 933 l 1
 350.426 1131 l 1
 783.076 698 l 1
 767.03 607 l 1
EndSplineSet
EndChar

StartChar: uni203E
Encoding: 8254 8254 236
Width: 1115
VWidth: 2045
Flags: W
HStem: 1658 130<266.272 1408.35>
LayerCount: 2
Fore
SplineSet
1408.35 1658 m 1
 243.351 1658 l 1
 266.272 1788 l 1
 1431.27 1788 l 1
 1408.35 1658 l 1
EndSplineSet
EndChar

StartChar: fraction
Encoding: 8260 8260 237
Width: 884
VWidth: 2045
Flags: W
HStem: 0 21G<-29 149.99>
VStem: -29 165<0 165> 1012.55 165<1324 1489>
DStem2: -29 0 136 0 0.573185 0.819426<94.5756 1817.13>
LayerCount: 2
Fore
SplineSet
1177.55 1489 m 1
 136 0 l 1
 -29 0 l 1
 1012.55 1489 l 1
 1177.55 1489 l 1
EndSplineSet
EndChar

StartChar: uni207F
Encoding: 8319 8319 238
Width: 1007
VWidth: 2045
Flags: W
HStem: 1368 151<679.612 905.916>
VStem: 225 171<565 736> 817 172<565 737> 927 177<966.102 1343.83>
DStem2: 225 565 396 565 0.173648 0.984808<29.6938 771.236 864.385 937.109> 817 565 989 565 0.173648 0.984808<29.8675 680.962>
LayerCount: 2
Fore
SplineSet
853 1519 m 0xd0
 948 1519 1104 1488 1104 1269 c 0xd0
 1104 1238 1101 1202 1094 1163 c 2
 989 565 l 1
 817 565 l 1xe0
 909 1088 l 2
 920 1148 927 1198 927 1239 c 0
 927 1325 893 1368 781 1368 c 0
 732 1368 663 1354 517 1254 c 1
 396 565 l 1
 225 565 l 1
 387 1488 l 1
 558 1488 l 1
 541 1387 l 1
 709 1514 795 1519 853 1519 c 0xd0
EndSplineSet
EndChar

StartChar: dottedcircle
Encoding: 9676 9676 239
Width: 1253
VWidth: 2045
Flags: W
HStem: 6 121<567.185 677.812> 68 121<872.854 982.617> 98 121<319.725 430.392> 234 121<1066.34 1178.62> 249 121<202.75 313.576> 444 121<115.451 227 1182.16 1291.57> 680 121<172.741 285.284 1205.48 1317.76> 867 121<311.756 420.94> 891 121<1136.89 1248.93> 1010 121<526.172 636.982> 1033 121<973.786 1083.54> 1078 121<763.891 873.811>
VStem: 109 124<450.592 558.422> 166 124<685.801 794.234> 197 122<254.695 364.359> 314 122<103.858 213.871 877.462 985.768> 520 123<1016.1 1125.11> 561 123<12.3698 121.974> 758 122<1084.34 1193.38> 867 121<73.5667 184.135> 968 122<1039.31 1148.39> 1060 124<240.149 349.043> 1131 124<897.422 1006.23> 1173 122<444.168 553.479> 1199 124<685.186 793.77>
LayerCount: 2
Fore
SplineSet
428 942 m 0x07
 428 903 396 867 356 867 c 0
 327 867 306 887 306 916 c 0
 306 937 320 988 377 988 c 0
 409 988 428 969 428 942 c 0x07
643 1082 m 0x064080
 643 1044 610 1010 570 1010 c 0
 539 1010 520 1028 520 1057 c 0
 520 1102 556 1131 591 1131 c 0
 621 1131 643 1111 643 1082 c 0x064080
880 1151 m 0x061020
 880 1115 850 1078 807 1078 c 0
 782 1078 758 1096 758 1127 c 0
 758 1167 792 1199 829 1199 c 0
 857 1199 880 1182 880 1151 c 0x061020
233 516 m 0x0608
 233 473 193 444 159 444 c 0
 128 444 109 469 109 495 c 0
 109 526 140 565 182 565 c 0
 209 565 233 548 233 516 c 0x0608
319 320 m 0x0e02
 319 281 285 249 247 249 c 0
 215 249 197 270 197 297 c 0
 197 338 230 370 268 370 c 0
 297 370 319 350 319 320 c 0x0e02
436 169 m 0x2601
 436 127 399 98 363 98 c 0
 335 98 314 113 314 144 c 0
 314 186 342 219 385 219 c 0
 418 219 436 199 436 169 c 0x2601
684 78 m 0x860040
 684 38 648 6 612 6 c 0
 584 6 561 25 561 54 c 0
 561 89 588 127 632 127 c 0
 663 127 684 107 684 78 c 0x860040
988 139 m 0x460010
 988 99 954 68 916 68 c 0
 886 68 867 86 867 115 c 0
 867 153 895 189 937 189 c 0
 969 189 988 167 988 139 c 0x460010
1184 305 m 0x160004
 1184 265 1149 234 1111 234 c 0
 1076 234 1060 259 1060 284 c 0
 1060 316 1089 355 1133 355 c 0
 1165 355 1184 333 1184 305 c 0x160004
1295 510 m 0x060001
 1295 469 1261 438 1222 438 c 0
 1193 438 1173 454 1173 483 c 0
 1173 523 1201 559 1244 559 c 0
 1273 559 1295 541 1295 510 c 0x060001
1323 750 m 0x06000080
 1323 718 1298 680 1251 680 c 0
 1217 680 1199 701 1199 729 c 0
 1199 768 1237 801 1272 801 c 0
 1304 801 1323 777 1323 750 c 0x06000080
1255 960 m 0x068002
 1255 929 1225 891 1180 891 c 0
 1150 891 1131 910 1131 940 c 0
 1131 979 1165 1012 1202 1012 c 0
 1238 1012 1255 985 1255 960 c 0x068002
1090 1104 m 0x062008
 1090 1070 1057 1033 1019 1033 c 0
 989 1033 968 1052 968 1081 c 0
 968 1117 995 1154 1040 1154 c 0
 1073 1154 1090 1130 1090 1104 c 0x062008
290 749 m 0x0604
 290 709 257 680 216 680 c 0
 181 680 166 703 166 728 c 0
 166 761 196 801 239 801 c 0
 269 801 290 778 290 749 c 0x0604
EndSplineSet
EndChar

StartChar: uni0E10.descless
Encoding: 63232 63232 240
Width: 1192
VWidth: 2045
Flags: W
HStem: 0 21G<705.225 820.888> 296 112<494.707 645.224> 574 112<509.709 657.925> 764 112<401 940.198> 1142 112<626.711 983.466>
VStem: 377 114<412.13 556.84> 953 116<539.734 751.055>
DStem2: 805 266 813 0 0.366887 0.930266<0 428.199>
LayerCount: 2
Fore
SplineSet
377 457 m 0
 377 574 485 686 612 686 c 0
 686 686 767 646 778 529 c 2
 805 266 l 17
 946 631 l 17
 948 634 953 646 953 669 c 0
 953 723 919 764 859 764 c 2
 252 764 l 1
 297 1019 546 1254 832 1254 c 256
 1031 1254 1162 1143 1217 1006 c 9
 1111 949 l 17
 1042 1122 882 1142 812 1142 c 256
 628 1142 469 1015 401 876 c 1
 878 876 l 2
 986 876 1069 802 1069 693 c 0
 1069 667 1064 638 1052 606 c 10
 813 0 l 1
 707 0 l 1
 677 338 l 17
 645 310 600 296 543 296 c 0
 444 296 377 367 377 457 c 0
561 408 m 0
 611 408 663 450 663 505 c 0
 663 547 630 574 590 574 c 0
 536 574 491 528 491 474 c 0
 491 435 520 408 561 408 c 0
EndSplineSet
EndChar

StartChar: uni0E34.left
Encoding: 63233 63233 241
Width: 0
VWidth: 2045
Flags: W
HStem: 1767 112<-782.606 -422.343>
DStem2: -919 1621 -1112 1527 0.995353 -0.0962907<0 629.768>
LayerCount: 2
Back
SplineSet
-516.979 1486 m 21
 -519.254 1492 -521.196 1498 -522.805 1504 c 4
 -546.696 1561.33 -584.976 1607 -637.647 1641 c 132
 -690.318 1675 -751.321 1692 -820.654 1692 c 260
 -889.987 1692 -956.709 1674.67 -1020.82 1640 c 20
 -1066.39 1616 -1107.85 1585 -1145.22 1547 c 5
 -516.979 1486 l 21
-386.372 1359 m 13
 -1336.97 1452 l 5
 -1319.18 1488.67 -1297.22 1524.33 -1271.11 1559 c 12
 -1213.16 1634.33 -1142.66 1693.83 -1059.63 1737.5 c 132
 -976.598 1781.17 -890.357 1803.33 -800.906 1804 c 260
 -711.573 1804 -632.619 1782 -564.044 1738 c 132
 -495.469 1694 -446.157 1634.33 -416.106 1559 c 4
 -389.587 1497.67 -379.676 1431 -386.372 1359 c 13
EndSplineSet
Fore
Refer: 175 3636 N 1 0 0 1 -245 0 2
EndChar

StartChar: uni0E35.left
Encoding: 63234 63234 242
Width: 0
VWidth: 2045
Flags: W
HStem: 1764 112<-782.996 -424.639>
VStem: -186 113<1822 1935>
DStem2: -920 1618 -1112 1524 0.995353 -0.0962907<0 630.763> -274.432 1432 -161.692 1432 0.173648 0.984808<273.15 510.714>
LayerCount: 2
Back
SplineSet
-386.019 1361 m 13
 -1336.8 1453 l 5
 -1318.77 1491 -1296.69 1527.33 -1270.58 1562 c 12
 -1212.75 1636.67 -1142.31 1695.83 -1059.28 1739.5 c 132
 -976.246 1783.17 -890.062 1805 -800.729 1805 c 260
 -711.396 1805 -632.55 1783.33 -564.191 1740 c 4
 -518.148 1710 -480.613 1673.33 -451.587 1630 c 13
 -410.326 1864 l 5
 -297.326 1864 l 13
 -386.019 1361 l 13
-516.625 1488 m 21
 -519.136 1492.67 -521.196 1498 -522.805 1504 c 4
 -546.46 1562.67 -584.652 1608.83 -637.383 1642.5 c 132
 -690.114 1676.17 -751.146 1693 -820.479 1693 c 260
 -889.812 1693 -956.416 1676.33 -1020.29 1643 c 20
 -1065.98 1618.33 -1107.62 1586.33 -1145.22 1547 c 5
 -516.625 1488 l 21
EndSplineSet
Fore
Refer: 176 3637 N 1 0 0 1 -245 0 2
EndChar

StartChar: uni0E36.left
Encoding: 63235 63235 243
Width: 0
VWidth: 2045
Flags: W
HStem: 1762 112<-768.403 -466.541> 1966 112<-336.637 -189.996>
VStem: -470 114<1866 1944.42> -184 115<1817.07 1961.46>
DStem2: -905 1616 -1098 1522 0.995353 -0.0962907<0 630.763>
LayerCount: 2
Back
SplineSet
-455.882 1634 m 1
 -439.094 1612 -425.659 1588 -415.577 1562 c 0
 -389.96 1499.33 -380.441 1432.33 -387.019 1361 c 9
 -1336.8 1453 l 1
 -1318.77 1491 -1296.69 1527.33 -1270.58 1562 c 8
 -1212.75 1636.67 -1142.31 1695.83 -1059.28 1739.5 c 128
 -976.246 1783.17 -890.062 1805 -800.729 1805 c 256
 -768.062 1805 -737.533 1802.33 -709.141 1797 c 1
 -709.768 1801 -709.553 1806 -708.495 1812 c 0
 -698.856 1866.67 -671.324 1913.17 -625.897 1951.5 c 128
 -580.472 1989.83 -530.259 2009 -475.259 2009 c 128
 -420.259 2009 -376.805 1989.83 -344.897 1951.5 c 128
 -312.99 1913.17 -301.827 1866.83 -311.407 1812.5 c 128
 -320.988 1758.17 -348.462 1712 -393.829 1674 c 0
 -414.1 1657.33 -434.785 1644 -455.882 1634 c 1
-595.407 1812.5 m 128
 -599.462 1789.5 -594.459 1769.67 -580.398 1753 c 128
 -566.337 1736.33 -547.64 1728 -524.307 1728 c 128
 -500.974 1728 -479.504 1736.33 -459.898 1753 c 128
 -440.293 1769.67 -428.462 1789.5 -424.407 1812.5 c 128
 -420.352 1835.5 -425.188 1855.33 -438.916 1872 c 128
 -452.644 1888.67 -471.175 1897 -494.508 1897 c 128
 -517.841 1897 -539.477 1888.67 -559.416 1872 c 128
 -579.355 1855.33 -591.352 1835.5 -595.407 1812.5 c 128
-516.625 1488 m 17
 -519.136 1492.67 -521.196 1498 -522.805 1504 c 0
 -546.46 1562.67 -584.652 1608.83 -637.383 1642.5 c 128
 -690.114 1676.17 -751.146 1693 -820.479 1693 c 256
 -889.812 1693 -956.416 1676.33 -1020.29 1643 c 16
 -1065.98 1618.33 -1107.62 1586.33 -1145.22 1547 c 1
 -516.625 1488 l 17
EndSplineSet
Fore
Refer: 177 3638 N 1 0 0 1 -230 0 2
EndChar

StartChar: uni0E37.left
Encoding: 63236 63236 244
Width: 0
VWidth: 2045
Flags: W
HStem: 1764 112<-766.996 -409.696>
VStem: -170 113<1822 1935>
DStem2: -904 1618 -1096 1524 0.995353 -0.0962907<0 630.763> -258.432 1432 -145.692 1432 0.173648 0.984808<273.15 510.714>
LayerCount: 2
Back
SplineSet
-547.307 1728 m 17
 -508.126 1700.67 -476.22 1668 -451.587 1630 c 9
 -410.326 1864 l 1
 -297.326 1864 l 9
 -386.019 1361 l 9
 -1336.8 1453 l 1
 -1318.77 1491 -1296.69 1527.33 -1270.58 1562 c 8
 -1212.75 1636.67 -1142.31 1695.83 -1059.28 1739.5 c 128
 -976.246 1783.17 -890.062 1805 -800.729 1805 c 256
 -746.729 1805 -696.807 1797 -650.962 1781 c 9
 -636.326 1864 l 1
 -523.326 1864 l 1
 -547.307 1728 l 17
-516.625 1488 m 17
 -519.136 1492.67 -521.196 1498 -522.805 1504 c 0
 -546.46 1562.67 -584.652 1608.83 -637.383 1642.5 c 128
 -690.114 1676.17 -751.146 1693 -820.479 1693 c 256
 -889.812 1693 -956.416 1676.33 -1020.29 1643 c 16
 -1065.98 1618.33 -1107.62 1586.33 -1145.22 1547 c 1
 -516.625 1488 l 17
EndSplineSet
Fore
Refer: 178 3639 N 1 0 0 1 -229 0 2
EndChar

StartChar: uni0E48.low_left
Encoding: 63237 63237 245
Width: 0
VWidth: 2045
Flags: W
VStem: -260 111<1444 1555> -181 111<1781 1892>
DStem2: -260 1444 -149 1444 0.173648 0.984808<19.2749 454.912>
LayerCount: 2
Back
SplineSet
-327.52 1568 m 1
 -205.52 1568 l 1
 -254.009 1293 l 1
 -376.009 1293 l 1
 -327.52 1568 l 1
EndSplineSet
Fore
Refer: 250 63242 N 1 0 0 1 -198 0 2
EndChar

StartChar: uni0E48.low
Encoding: 63242 63242 250
Width: 0
VWidth: 2045
Flags: W
VStem: -62 111<1444 1555> 17 111<1781 1892>
DStem2: -62 1444 49 1444 0.173648 0.984808<19.2749 454.912>
AnchorPoint: "AboveBase" 36 1370 mark 0
LayerCount: 2
Back
SplineSet
-14 1719 m 25
 97 1719 l 1
 49 1444 l 1
 -62 1444 l 1
 -14 1719 l 25
EndSplineSet
Fore
SplineSet
17 1892 m 25x40
 128 1892 l 1x40
 49 1444 l 1
 -62 1444 l 1x80
 17 1892 l 25x40
EndSplineSet
EndChar

StartChar: uni0E49.low
Encoding: 63243 63243 251
Width: 0
VWidth: 2045
Flags: W
HStem: 1421 112<-257 -75.9531> 1604 72<-319.389 -302> 1788 83<-315.336 -206.682>
VStem: -406 85<1676.98 1781.49> -206 87<1680.27 1786.73> 191 114<1797 1911>
AnchorPoint: "AboveBase" 119 1370 mark 0
LayerCount: 2
Fore
SplineSet
-406 1708 m 0
 -406 1795 -325 1871 -238 1871 c 0
 -169 1871 -119 1825 -119 1759 c 0
 -119 1731 -130 1683 -157 1649 c 2
 -257 1533 l 1
 -40 1537 155 1706 191 1911 c 265
 305 1911 l 273
 257 1641 -1 1421 -276 1421 c 10
 -389 1421 l 1
 -370 1533 l 1
 -302 1604 l 17
 -347 1604 -406 1637 -406 1708 c 0
-272 1676 m 0
 -234 1676 -206 1708 -206 1743 c 0
 -206 1768 -223 1788 -253 1788 c 0
 -287 1788 -321 1758 -321 1722 c 0
 -321 1694 -299 1676 -272 1676 c 0
EndSplineSet
EndChar

StartChar: uni0E4A.low
Encoding: 63244 63244 252
Width: 0
VWidth: 2045
Flags: W
HStem: 1418 112<-72 23.4023> 1418 83<-419.257 -312.619> 1613 88<-416.827 -307.143> 1754 112<-407.188 -225.655 -130.507 48.0983>
VStem: -558 137<1501.64 1671.44> -306 84<1508.4 1611.13> 63 114<1601.78 1740.39> 376 112<1786.08 1908>
AnchorPoint: "AboveBase" 111 1370 mark 0
LayerCount: 2
Fore
SplineSet
-72 1530 m 1,0,-1
-558 1583 m 0,1,-1
 -558 1761 -414 1865 -287 1866 c 16,4,-1
 -235 1866 -192 1851 -158 1820 c 1,7,-1
 -114 1850 -66 1865 -13 1866 c 0,10,-1
 101 1866 177 1785 177 1680 c 0,13,-1
 177 1649 171 1623 162 1601 c 1,16,-1
 266 1665 353 1774 376 1908 c 265,19,-1
 488 1908 l 273,20,-1
 441 1639 186 1418 -92 1418 c 9,23,-1
 -72 1530 l 17,24,-1
 51 1552 63 1629 63 1661 c 0,27,-1
 63 1716 21 1754 -33 1754 c 8,30,-1
 -93 1754 -131 1710 -143 1695 c 1,33,-1
 -218 1695 l 1,34,-1
 -224 1709 -247 1754 -310 1754 c 24,37,-1
 -383 1754 -441 1686 -448 1643 c 1,40,-1
 -422 1682 -384 1701 -331 1701 c 0,43,-1
 -268 1698 -222 1652 -222 1586 c 0,46,-1
 -222 1493 -304 1418 -390 1418 c 0,49,-1
 -475 1418 -558 1462 -558 1583 c 0,1,-1
-375 1501 m 0,52,-1
 -334 1501 -306 1539 -306 1567 c 0,55,-1
 -306 1593 -326 1613 -356 1613 c 0,58,-1
 -390 1613 -421 1584 -421 1547 c 0,61,-1
 -421 1522 -404 1501 -375 1501 c 0,52,-1
EndSplineSet
EndChar

StartChar: uni0E4B.low
Encoding: 63245 63245 253
Width: 0
VWidth: 2045
Flags: W
HStem: 1599 112<-216 -87 46 175>
VStem: -117 113<1430 1543> -38 113<1765 1878>
DStem2: -117 1430 -4 1430 0.173648 0.984808<19.6222 171.642 305.036 454.912>
AnchorPoint: "AboveBase" 140 1370 mark 0
LayerCount: 2
Back
SplineSet
172 1581 m 1
 23 1581 l 1
 -4 1430 l 1
 -117 1430 l 1
 -90 1581 l 1
 -239 1581 l 1
 -219 1693 l 1
 -70 1693 l 1
 -44 1842 l 1
 69 1842 l 1
 43 1693 l 1
 192 1693 l 1
 172 1581 l 1
EndSplineSet
Fore
SplineSet
175 1599 m 1xa0
 26 1599 l 1
 -4 1430 l 1
 -117 1430 l 1xc0
 -87 1599 l 1
 -236 1599 l 1
 -216 1711 l 1
 -67 1711 l 1
 -38 1878 l 1
 75 1878 l 1
 46 1711 l 1
 195 1711 l 1
 175 1599 l 1xa0
EndSplineSet
EndChar

StartChar: uni0E4C.low
Encoding: 63246 63246 254
Width: 0
VWidth: 2045
Flags: W
HStem: 1420 112<-326.101 -179.764> 1701 112<-313.089 -163.321 -52 272.1>
VStem: -447 115<1536.96 1681.23> -159 115<1550.87 1696.62>
AnchorPoint: "AboveBase" -125 1370 mark 0
LayerCount: 2
Fore
SplineSet
-447 1582 m 0
 -447 1707 -331 1813 -211 1813 c 10
 140 1813 l 2
 195 1813 244 1832 290 1870 c 9
 356 1792 l 17
 284 1731 205 1701 120 1701 c 2
 -52 1701 l 17
 -47 1685 -44 1667 -44 1649 c 0
 -44 1526 -159 1420 -280 1420 c 0
 -381 1420 -447 1491 -447 1582 c 0
-260 1532 m 0
 -210 1532 -159 1577 -159 1632 c 0
 -159 1670 -186 1701 -230 1701 c 0
 -286 1701 -332 1652 -332 1602 c 0
 -332 1563 -304 1532 -260 1532 c 0
EndSplineSet
EndChar

StartChar: uni0E0D.descless
Encoding: 63247 63247 255
Width: 1864
VWidth: 2045
Flags: W
HStem: 0 112<402.35 549.889 1118 1585> 279 112<430.954 563.498> 764 112<499 611> 1142 112<622.488 974.375>
VStem: 283 114<116.708 259.505> 569 116<130.833 274.475> 985 693<0 693> 1126 115<688.008 991.988> 1786 113<1141 1254>
DStem2: 251.44 0 364.23 0 0.173648 0.984808<398.34 775.759> 985 0 1098.25 0 0.173648 0.984808<133.394 839.92> 1565.25 0 1678 0 0.173648 0.984808<113.728 1273.28>
LayerCount: 2
Fore
SplineSet
685 229 m 0xfd80
 685 108 573 0 448 0 c 0
 347 0 283 71 283 161 c 0
 283 172 284 184 286 196 c 2
 386 764 l 1
 245 764 l 1
 292 1034 553 1254 825 1254 c 256
 1066 1254 1241 1082 1241 849 c 0xfd80
 1241 822 1238 793 1233 764 c 2
 1118 112 l 1
 1585 112 l 1
 1786 1254 l 1
 1899 1254 l 1
 1678 0 l 17
 985 0 l 1xfe80
 1120 764 l 2
 1124 786 1126 808 1126 829 c 0
 1126 1007 993 1142 805 1142 c 256
 687 1142 508 1087 394 876 c 1
 630 876 l 1
 611 764 l 1
 499 764 l 1
 430 373 l 1
 459 385 488 391 518 391 c 0
 618 391 685 321 685 229 c 0xfd80
469 112 m 0
 523 112 569 159 569 210 c 0
 569 252 537 279 498 279 c 0
 448 279 397 235 397 181 c 0
 397 139 428 112 469 112 c 0
EndSplineSet
EndChar

StartChar: uni0E4D.left
Encoding: 63249 63249 257
Width: 0
VWidth: 2045
Flags: W
HStem: 1401 112<-402.066 -253.589> 1681 112<-386.715 -240.412>
VStem: -522 114<1519.64 1661.28> -235 116<1531.05 1675.71>
LayerCount: 2
Back
SplineSet
-655.812 1555 m 132
 -646.29 1609 -618.816 1655.17 -573.391 1693.5 c 132
 -527.965 1731.83 -477.752 1751 -422.752 1751 c 132
 -367.752 1751 -324.465 1731.83 -292.891 1693.5 c 132
 -261.316 1655.17 -250.123 1609 -259.312 1555 c 132
 -268.5 1501 -295.807 1454.83 -341.232 1416.5 c 132
 -386.659 1378.17 -436.872 1359 -491.872 1359 c 132
 -546.872 1359 -590.325 1378.17 -622.232 1416.5 c 132
 -654.14 1454.83 -665.333 1501 -655.812 1555 c 132
-542.988 1554 m 132
 -547.102 1530.67 -542.237 1511 -528.392 1495 c 132
 -514.546 1479 -495.956 1471 -472.623 1471 c 132
 -449.29 1471 -427.713 1479 -407.892 1495 c 132
 -388.07 1511 -376.102 1530.67 -371.988 1554 c 132
 -367.873 1577.33 -372.847 1597.33 -386.908 1614 c 132
 -400.969 1630.67 -419.667 1639 -443 1639 c 132
 -466.333 1639 -487.803 1630.67 -507.408 1614 c 132
 -527.013 1597.33 -538.873 1577.33 -542.988 1554 c 132
EndSplineSet
Fore
Refer: 196 3661 N 1 0 0 1 -209 0 2
EndChar

StartChar: uni0E48.left
Encoding: 63251 63251 259
Width: 0
VWidth: 2045
Flags: W
VStem: -154 113<2117 2230> -100 113<2309 2422>
DStem2: -154 2117 -41 2117 0.173648 0.984808<19.6222 309.743>
LayerCount: 2
Back
SplineSet
-169.747 1924 m 1
 -47.7471 1924 l 1
 -96.2363 1649 l 1
 -218.236 1649 l 1
 -169.747 1924 l 1
EndSplineSet
Fore
Refer: 191 3656 N 1 0 0 1 -73 0 2
EndChar

StartChar: uni0E38.low
Encoding: 63256 63256 264
Width: 0
VWidth: 2045
Flags: W
HStem: -1011 112<-654.584 -522.431> -733 112<-641.9 -495.266>
VStem: -775 115<-894.929 -750.838> -559 113<-1208 -1095> -489 115<-968.219 -737.607>
DStem2: -559 -1208 -446 -1208 0.173648 0.984808<19.6222 218.332>
LayerCount: 2
Back
SplineSet
-478 -625 m 0
 -596 -625 -712 -731 -712 -858 c 0
 -712 -952 -642 -1018 -547 -1018 c 0
 -517 -1018 -487 -1012 -460 -1000 c 1
 -498 -1213 l 1
 -385 -1213 l 1
 -316 -822 l 2
 -314 -810 -313 -799 -313 -787 c 0
 -313 -694 -381 -625 -478 -625 c 0
-428 -807 m 0
 -428 -854 -471 -906 -527 -906 c 0
 -566 -906 -597 -878 -597 -838 c 0
 -597 -785 -551 -737 -497 -737 c 0
 -454 -737 -428 -768 -428 -807 c 0
EndSplineSet
Fore
Refer: 179 3640 N 1 0 0 1 -165 -537 2
EndChar

StartChar: uni0E39.low
Encoding: 63257 63257 265
Width: 0
VWidth: 2045
Flags: W
HStem: -1014 112<-982.617 -849.256> -736 112<-968.56 -821.058>
VStem: -1103 115<-898.036 -755.177> -816 115<-884.351 -742.574> -501 113<-737 -624>
DStem2: -603.749 -1209 -491 -1209 0.173648 0.984808<113.728 593.955>
LayerCount: 2
Back
SplineSet
-765 -631 m 0
 -884 -631 -1000 -737 -1000 -860 c 0
 -1000 -952 -931 -1021 -834 -1021 c 0
 -803 -1021 -774 -1015 -747 -1003 c 1
 -784 -1216 l 1
 -388 -1216 l 17
 -285 -631 l 1
 -398 -631 l 1
 -482 -1104 l 25
 -652 -1104 l 1
 -603 -826 l 2
 -601 -814 -600 -802 -600 -791 c 0
 -600 -699 -669 -631 -765 -631 c 0
-715 -811 m 0
 -715 -855 -752 -909 -814 -909 c 0
 -858 -909 -885 -880 -885 -841 c 0
 -885 -796 -846 -743 -785 -743 c 0
 -742 -743 -715 -772 -715 -811 c 0
EndSplineSet
Fore
Refer: 180 3641 N 1 0 0 1 -212 -540 2
EndChar

StartChar: uniF71C
Encoding: 63260 63260 266
Width: 698
VWidth: 2045
Flags: W
HStem: -423 21G<32.4141 190.859>
LayerCount: 2
Fore
SplineSet
32.4141 -423 m 1
 216.846 -154 l 1
 457.846 -154 l 1
 169.414 -423 l 1
 32.4141 -423 l 1
EndSplineSet
EndChar

StartChar: uniF71D
Encoding: 63261 63261 267
Width: 798
VWidth: 2045
Flags: W
HStem: -236 211<178.592 223.387 508.606 574.387> -127 102<242.606 508.606>
VStem: 141.387 82<-236 -154> 489.387 85<-236 -151>
DStem2: 141.387 -236 223.387 -236 0.173648 0.984808<14.2392 124.921>
LayerCount: 2
Fore
SplineSet
574.387 -236 m 1xb0
 489.387 -236 l 1xb0
 508.606 -127 l 1
 242.606 -127 l 1x70
 223.387 -236 l 1
 141.387 -236 l 1
 178.592 -25 l 1xb0
 611.592 -25 l 1x70
 574.387 -236 l 1xb0
EndSplineSet
EndChar

StartChar: zerowidthnonjoiner
Encoding: 8204 8204 268
Width: 0
VWidth: 2045
Flags: W
LayerCount: 2
Back
SplineSet
264.109 1288 m 1
 -11.4902 -275 l 1
 -85.4902 -275 l 1
 190.109 1288 l 1
 264.109 1288 l 1
EndSplineSet
EndChar

StartChar: uni0E3A.low
Encoding: 63258 63258 271
Width: 0
VWidth: 2045
Flags: W
HStem: -898 277<-582.417 -411.037>
VStem: -640 284<-842.207 -677.581>
LayerCount: 2
Back
SplineSet
-559 -758 m 0
 -559 -673 -483 -599 -400 -599 c 0
 -329 -599 -287 -655 -287 -714 c 0
 -287 -804 -380 -868 -447 -868 c 0
 -509 -868 -559 -824 -559 -758 c 0
EndSplineSet
Fore
Refer: 181 3642 N 1 0 0 1 -139 -539 2
EndChar

StartChar: uniF71B
Encoding: 63259 63259 272
Width: 998
VWidth: 2045
Flags: W
HStem: 1064 20G<402.612 1020.14>
VStem: 225.58 614<60 674> 406.139 614.001<469.999 1084>
DStem2: 225.58 60 839.58 60 0.173648 0.984808<106.62 1039.8>
LayerCount: 2
Fore
SplineSet
1020.14 1084 m 1xa0
 839.58 60 l 1
 225.58 60 l 1xc0
 406.139 1084 l 1
 1020.14 1084 l 1xa0
EndSplineSet
EndChar

StartChar: ff
Encoding: 64256 64256 276
Width: 1110
VWidth: 2045
Flags: W
HStem: 0 21G<177 306.532 719 848.532> 957 103<205 346 490 888 1032 1246> 1353 135<755.391 881.442 1297.39 1423.44> 1381 134<611.244 883.787 1153.24 1425.79>
VStem: 177 126<0 126> 719 126<0 126>
DStem2: 177 0 303 0 0.173648 0.984808<21.8797 971.808 1098.25 1356.89> 719 0 845 0 0.173648 0.984808<21.8797 971.808 1098.25 1356.89>
LayerCount: 2
Fore
SplineSet
1286 1381 m 0xdc
 1237 1381 1084 1356 1050 1160 c 2
 1032 1060 l 1
 1264 1060 l 1
 1246 957 l 1
 1014 957 l 1
 845 0 l 1
 719 0 l 1
 888 957 l 1
 472 957 l 1
 303 0 l 1
 177 0 l 1
 346 957 l 1
 187 957 l 1
 205 1060 l 1
 364 1060 l 1
 384 1175 l 2
 432 1447 620 1512 753 1515 c 0xdc
 804 1515 855 1506 902 1488 c 1
 879 1353 l 1xec
 829 1372 785 1381 744 1381 c 0
 695 1381 542 1356 508 1160 c 2
 490 1060 l 1
 906 1060 l 1
 926 1175 l 2
 974 1447 1162 1512 1295 1515 c 0xdc
 1346 1515 1397 1506 1444 1488 c 1
 1421 1353 l 1xec
 1371 1372 1327 1381 1286 1381 c 0xdc
EndSplineSet
LCarets2: 1 0 
Ligature2: "'liga' Standard Ligatures lookup 0" f f
EndChar

StartChar: fi
Encoding: 64257 64257 277
Width: 978
VWidth: 2045
Flags: W
HStem: 0 21G<177 306.532 683 813.528> 957 103<205 346 490 852> 1258 207<941 1032> 1381 134<611.244 883.787>
VStem: 177 126<0 126> 683 127<0 127> 905 127<1258 1385> 941 127<1338 1465>
DStem2: 177 0 303 0 0.173648 0.984808<21.8797 971.808 1098.25 1356.89> 683 0 810 0 0.173648 0.984808<22.0533 971.808 1299.49 1487.54>
LayerCount: 2
Fore
SplineSet
905 1258 m 1xee
 941 1465 l 1
 1068 1465 l 1xed
 1032 1258 l 1
 905 1258 l 1xee
744 1381 m 0xdc
 695 1381 542 1356 508 1160 c 2
 490 1060 l 1
 997 1060 l 1
 810 0 l 1
 683 0 l 1
 852 957 l 1
 472 957 l 1
 303 0 l 1
 177 0 l 1
 346 957 l 1
 187 957 l 1
 205 1060 l 1
 364 1060 l 1
 384 1175 l 2
 432 1447 620 1512 753 1515 c 0
 804 1515 855 1506 902 1488 c 1
 879 1353 l 1
 829 1372 785 1381 744 1381 c 0xdc
EndSplineSet
LCarets2: 1 0 
Ligature2: "'liga' Standard Ligatures lookup 0" f i
EndChar

StartChar: fl
Encoding: 64258 64258 278
Width: 977
VWidth: 2045
Flags: W
HStem: 0 21G<177 306.532 685 815.522> 957 103<205 346 490 704> 1381 134<649.633 925.149>
VStem: 177 126<0 126> 685 127<0 127>
DStem2: 177 0 303 0 0.173648 0.984808<21.8797 971.808 1098.25 1330.73> 685 0 812 0 0.173648 0.984808<22.0533 1391.79>
LayerCount: 2
Fore
SplineSet
845 1381 m 0
 771 1381 542 1356 508 1160 c 2
 490 1060 l 1
 722 1060 l 1
 704 957 l 1
 472 957 l 1
 303 0 l 1
 177 0 l 1
 346 957 l 1
 187 957 l 1
 205 1060 l 1
 364 1060 l 1
 384 1175 l 2
 432 1447 646 1512 846 1515 c 0
 923 1515 998 1493 1070 1465 c 1
 812 0 l 1
 685 0 l 1
 927 1370 l 1
 898 1377 871 1381 845 1381 c 0
EndSplineSet
LCarets2: 1 0 
Ligature2: "'liga' Standard Ligatures lookup 0" f l
EndChar

StartChar: ffi
Encoding: 64259 64259 279
Width: 1520
VWidth: 2045
Flags: W
HStem: 0 21G<177 306.532 719 848.532 1225 1355.53> 957 103<205 346 490 888 1032 1394> 1258 207<1483 1574> 1353 135<755.391 881.442 1297.39 1423.44> 1381 134<611.244 883.787 1153.24 1425.79>
VStem: 177 126<0 126> 719 126<0 126> 1225 127<0 127> 1447 127<1258 1385> 1483 127<1338 1465>
DStem2: 177 0 303 0 0.173648 0.984808<21.8797 971.808 1098.25 1356.89> 719 0 845 0 0.173648 0.984808<21.8797 971.808 1098.25 1356.89> 1225 0 1352 0 0.173648 0.984808<22.0533 971.808 1299.49 1487.54>
LayerCount: 2
Fore
SplineSet
1286 1381 m 0xcf
 1237 1381 1084 1356 1050 1160 c 2
 1032 1060 l 1
 1539 1060 l 1
 1352 0 l 1
 1225 0 l 1
 1394 957 l 1
 1014 957 l 1
 845 0 l 1
 719 0 l 1
 888 957 l 1
 472 957 l 1
 303 0 l 1
 177 0 l 1
 346 957 l 1
 187 957 l 1
 205 1060 l 1
 364 1060 l 1
 384 1175 l 2
 432 1447 620 1512 753 1515 c 0xcf
 804 1515 855 1506 902 1488 c 1
 879 1353 l 1xd7
 829 1372 785 1381 744 1381 c 0
 695 1381 542 1356 508 1160 c 2
 490 1060 l 1
 906 1060 l 1
 926 1175 l 2
 974 1447 1162 1512 1295 1515 c 0xcf
 1346 1515 1397 1506 1444 1488 c 1
 1421 1353 l 1xd7
 1371 1372 1327 1381 1286 1381 c 0xcf
1447 1258 m 1xe780
 1483 1465 l 1
 1610 1465 l 1xe740
 1574 1258 l 1
 1447 1258 l 1xe780
EndSplineSet
LCarets2: 2 0 0 
Ligature2: "'liga' Standard Ligatures lookup 0" ff i
Ligature2: "'liga' Standard Ligatures lookup 0" f f i
EndChar

